<svg enable-background="new 0 0 110 110" height="512" viewBox="0 0 110 110" width="512" xmlns="http://www.w3.org/2000/svg"><path d="m96.3518982 64.9997711c.1754761-1.237793-.4810791-2.5024414-2.0266113-3.472168-7.520813-4.7158203-15.203064-9.3383789-23.0466309-13.8666992s-15.8484497-8.9633789-24.0147705-13.3041992c-2.8907471-1.5356445-7.2836914-1.5888672-10.3349609-.1743164-8.0015259 3.7099609-15.190979 7.8876953-21.5690308 12.534668-1.1867676.8642578-1.756897 1.9121094-1.7314453 2.9516602-.0005493-.0244141-.0113525-.0488281-.0112915-.0732422l-.0223999 7.8969727c-.0031738 1.1162109.6918945 2.2290039 2.085022 3.1030273 7.5167847 4.7182617 15.1974487 9.3413086 23.0409546 13.8701172 7.8435059 4.527832 15.8500366 8.9619141 24.0203247 13.3007812 2.890564 1.5356445 7.2758179 1.59375 10.3272095.1787109 8.0015869-3.7099609 15.19104-7.8876953 21.5689697-12.534668 1.1608276-.8457031 1.7434082-1.8671875 1.7462769-2.8852539l.0223999-7.8964844c-.0003663.1235352-.0364381.2470704-.0540162.3710938zm-26.3671875-12.0634765v-.0004883c-.050415-.0288086-.12146-.0429688-.1769409-.0683594-.1425171-.0664062-.2832031-.1357422-.4539795-.1772461.2373047.0581055.4511719.1420898.6309204.2456055.0899048.0522461.1712036.1088867.2427368.1699219-.0715332-.0610352-.152832-.1176758-.2427368-.1694336z" fill="#963e25"/><path d="m96.3518982 57.4411774c.1754761-1.2373047-.4810791-2.5019531-2.0266113-3.4716797-7.520813-4.7163086-15.203064-9.3383789-23.0466309-13.8666992s-15.8484497-8.9633808-24.0147705-13.3042011c-2.8907471-1.5356445-7.2836914-1.5893555-10.3349609-.1743164-8.0015259 3.7099609-15.190979 7.8876972-21.5690308 12.5346699-1.1867676.8642578-1.756897 1.9116211-1.7314453 2.9516602-.0005493-.0249023-.0113525-.0488281-.0112915-.0732422l-.0223999 7.8969727c-.0031738 1.1162109.6918945 2.2285156 2.085022 3.1030273 7.5167847 4.7182617 15.1974487 9.3413086 23.0409546 13.8696289 7.8435059 4.5288086 15.8500366 8.9628906 24.0203247 13.3007812 2.890564 1.5356445 7.2758179 1.59375 10.3272095.1787109 8.0015869-3.7089844 15.19104-7.8876953 21.5689697-12.534668 1.1608276-.8452148 1.7434082-1.8666992 1.7462769-2.8847656l.0223999-7.8969727c-.0003663.1240235-.0364381.2475586-.0540162.3710938zm-64.2280274-9.7602539c-.001709.0014648-.0033569.0024414-.0050049.0039062.0236816-.0166016.0449219-.0341797.0701294-.0498047h.000061c-.0234374.0146485-.0430297.0307617-.0651855.0458985zm37.8608399-2.3027344c0-.0004883 0-.0004883 0-.0004883.0899048.0522461.1712036.1088867.2427368.1699219-.0715332-.0610352-.152832-.1176758-.2427368-.1694336zm.5844116.8115234c0-.0004883 0-.0004883 0-.0004883s0 0 .000061 0c-.0003662-.0673828-.0158081-.1323242-.0352173-.1962891-.003479-.0112305-.0022583-.0234375-.0062866-.0351562.0267334.074707.0410767.1523438.0415039.2314453 0 0-.000061 0-.000061.0004883zm7.359436 3.7919922c-.0466919-.0341797-.0899658-.0693359-.1428833-.1000977.0899048.0517578.1712646.1088867.2427979.1699219-.02948-.0249023-.0672607-.0463867-.0999146-.0698242zm5.0198365 4.3256836c.0220337-.0102539.0442505-.0200195.0657349-.0307617-.0181885.0087891-.0370483.0175781-.0559692.0263672-.003357.0014648-.0065309.0029297-.0097657.0043945zm.3463135-.1298828c-.0042114.0009766-.0083618.0024414-.0126343.0039062.0444946-.0131836.0852051-.0302734.1315918-.0415039-.0419312.0102539-.0786133.0258789-.1189575.0375977z" fill="#ededed"/><g enable-background="new"><path d="m45.1489296 34.8551521c-1.0871124-.0000343-1.9661827.5067139-1.9740181 1.1348343.0074196-2.6323624.0149422-5.2645206.0223694-7.8969002.0078545-.6281319.8869247-1.1348782 1.9740372-1.1348457-.0067292 2.3690872-.0156899 5.5278549-.0223885 7.8969116z" fill="#d6683d"/><path d="m45.1489296 34.8551521c.0074844-2.6323624.0150414-5.2645187.022377-7.8968983.547226-.0000534 1.0430183.1283302 1.402523.3358898-.0073814 2.6321335-.0149193 5.2640305-.0223465 7.8961525.0074272-2.632103.0149651-5.2640018.0223961-7.8961029.359478.2075405.5827141.4942875.5844345.8112392-.0046844 1.6606998-.0094528 3.321291-.0141296 4.9819736l-.0082779 2.9149551c-.0017014-.3169861-.2249603-.6037445-.584465-.811306s-.8552971-.3359449-1.4025116-.335903z" fill="#d6683d"/><path d="m43.1749115 35.9899864c-.0000534.0041161-.0000648.0082359-.000042.0123634l.0223732-7.8969021c-.0000076-.0041351.0000038-.0082569.0000572-.012373-.0074462 2.6323911-.0022735 5.2645837-.0223884 7.8969117z" fill="#d6683d"/><path d="m46.5738144 27.2941399c.3595123.2075672.5827522.4943199.5844688.8112907.0036392.6338177-.8798294 1.147234-1.9740562 1.1471977-.5472221.0000401-1.0430031-.1283302-1.4025154-.3358955-.3595161-.2075653-.5827522-.4943199-.5844727-.8112907-.0036392-.6338158.8798332-1.147234 1.9740601-1.1471977.5472183-.0000401 1.0429992.1283302 1.4025154.3358955z" fill="#963e25"/><path d="m47.1582832 28.1054306-.0223922 7.8969154c.003643.633812-.8798256 1.1472321-1.9740524 1.1471939-.5472221.000042-1.0429993-.1283302-1.4025154-.3358955s-.5827522-.4943199-.5844688-.8112907l.0223694-7.8969059c.0017357.3169651.2249718.6037197.5844879.811285.3595123.2075653.8552933.3359356 1.4025154.3358955 1.0942267.0000363 1.9776954-.51338 1.9740561-1.1471977z" fill="#963e25"/><path d="m52.9499588 39.3590775c-1.0871124-.0000305-1.9661827.5067139-1.9740181 1.1348343.0074272-2.6323624.014946-5.2645187.0223732-7.8968964.0078506-.6281357.8869209-1.134882 1.9740334-1.1348495-.0067215 2.3690833-.0156861 5.5278434-.0223885 7.8969116z" fill="#d6683d"/><path d="m52.9499588 39.3590775c.0075645-2.6323586.0150833-5.264534.0223808-7.8968964.547245-.000042 1.0430145.1283283 1.4025192.3358898-.0073929 2.6321888-.0149117 5.2641621-.0223389 7.8963375.0074272-2.6321754.014946-5.2641296.0223732-7.8963051.3595123.2075691.5827293.4943047.5844498.8112564l-.0000038.0006065v.0000763.0000725.0000572.0000534.0000381.0000343.0000191.0000191c-.0065804 1.6603508-.0094604 3.3206482-.0141373 4.980999l-.0082588 2.9149361c-.001709-.316967-.2249489-.6037178-.5844727-.8112907-.3595046-.2075577-.8552741-.3359298-1.4025115-.3359031z" fill="#d6683d"/><path d="m50.9759407 40.4939117c-.0000534.0041161-.0000648.0082397-.000042.0123634l.0223808-7.8969002c-.0000191-.0041351-.0000038-.0082588.0000496-.0123749-.0074424 2.632393-.0022659 5.2645875-.0223884 7.8969117z" fill="#d6683d"/><path d="m54.3748474 31.798069c.3595123.2075653.5827522.4943199.5844688.8112907.0036392.6338158-.8798332 1.1472321-1.9740562 1.1471977-.5472221.0000381-1.0430031-.1283302-1.4025154-.3358955-.3595161-.2075653-.5827522-.4943199-.5844727-.8112907-.0036392-.6338177.8798332-1.147234 1.9740601-1.1471977.5472183-.0000401 1.0429993.1283283 1.4025154.3358955z" fill="#963e25"/><path d="m54.9593163 32.6093597-.0223923 7.8969116c.003643.6338158-.8798256 1.1472321-1.9740524 1.1471977-.5472221.0000381-1.0429993-.1283302-1.4025154-.3358955s-.5827522-.4943199-.5844727-.8112907l.022377-7.8969078c.0017319.316967.224968.6037216.5844841.8112869.3595123.2075653.8552933.3359337 1.4025154.3358955 1.094223.0000344 1.9776955-.5133819 1.9740563-1.1471977z" fill="#963e25"/><path d="m32.1479721 42.8169174.022377-7.8968925c.0021095-.7392769.4872398-1.4777946 1.4593239-2.0427094 1.9588356-1.1383495 5.1415939-1.1339149 7.105381-.0001221l-.0223885 7.8969116c-1.9637871-1.1337929-5.1465454-1.1382256-7.105381.0001221-.972084.5649147-1.4572143 1.3034325-1.4593124 2.0426903z" fill="#d6683d"/><path d="m32.1479607 42.8169174.0223694-7.8969116c-.0021095.7504272.4935036 1.5016212 1.4827614 2.072773l-.0223885 7.8969116c-.9892578-.5711517-1.4848709-1.3223457-1.4827423-2.072773z" fill="#c95632"/><path d="m60.7587357 43.8674774c-1.0871086-.0000305-1.9661789.5067139-1.9740181 1.1348343.0074272-2.6323624.014946-5.2645187.022377-7.8968964.0078506-.6281357.8869209-1.1348801 1.9740295-1.1348495-.0067215 2.369091-.0156822 5.5278549-.0223884 7.8969116z" fill="#d6683d"/><path d="m62.1612282 44.2033691c-.3595047-.2075577-.8552742-.3359299-1.4024925-.3358917.006546-2.3249512.013237-4.6497345.0197601-6.9747009l.0026245-.9221954c.5472183-.0000534 1.0429878.1283188 1.4024925.3358765-.0074425 2.6321831-.0149078 5.2641754-.0223351 7.8963509.0074272-2.6321754.014946-5.2641296.022377-7.8963051.3595085.2075577.5827255.4942932.5844421.811245 0 .0002861-.0000191.0006943-.0000191.0009689.0000191-.0000153.0000191-.0000229.0000191-.0000229-.0037308 1.3159714-.0074844 2.631958-.0111961 3.9479256l-.0112 3.9480515c-.0017088-.3169786-.2249487-.6037294-.5844725-.8113024z" fill="#d6683d"/><path d="m58.7847176 45.0023117c-.0000496.0041161-.0000648.0082397-.000042.0123672l.0223808-7.896904c-.0000153-.0041351 0-.0082588.0000496-.0123749-.0074425 2.632393-.0022659 5.2645875-.0223884 7.8969117z" fill="#d6683d"/><path d="m62.7680779 37.1177483-.0223961 7.8969231c.0036469.6338081-.8798256 1.1472244-1.9740524 1.1471863-.5472145.0000458-1.0429993-.1283302-1.4025154-.3358955-.3595047-.2075615-.5827484-.4943199-.5844612-.8112869l.0223846-7.8969002c.0017128.3169556.2249565.603714.584465.8112755.3595161.2075653.8553009.3359413 1.4025154.3358955 1.0942268.000038 1.9776993-.5133821 1.9740601-1.1471978z" fill="#963e25"/><path d="m62.1836052 36.3064575c.3595161.2075653.5827599.4943237.5844727.8112907.0036392.6338158-.8798332 1.1472359-1.9740601 1.1471977-.5472145.0000458-1.0429993-.1283302-1.4025154-.3358955-.3595085-.2075615-.5827522-.4943199-.5844612-.8112869-.0036392-.6338158.8798294-1.1472321 1.9740562-1.1471977.5472145-.000042 1.0429993.1283302 1.4025078.3358917z" fill="#963e25"/><path d="m27.2250671 38.5389175c-.0065765 2.3244324-.0132103 4.6486816-.0197697 6.973114.0065231-2.3243942.0130997-4.6485901.0196228-6.9729843.0000076-.0000572.0000095-.0001297.0000191-.0001869.0000362.0000381.0000553.0001488.0001106.0001488.0000076-.0000076-.0000019-.0000267-.0000019-.0000267s.000002-.0000496.0000191-.0000649z" fill="#d6683d"/><path d="m25.7998657 46.0995979c-1.0868931-.0001564-1.9659824.5065994-1.9740143 1.1348343.007412-2.6323624.0149517-5.2645187.0223789-7.8969002.0080395-.6282463.8871307-1.135006 1.9740238-1.1348457-.0073528 2.6321182-.0148907 5.2640152-.0223179 7.8961182.0074272-2.6320305.0149651-5.2638741.0223942-7.8959007l-.0000935-.0002022c.547451-.0001831 1.0432434.1282005 1.4027481.335762s.5827656.4943199.5842648.8114166l-.0000153.0006256v.0000534.0000763.0000534.0000381.0000534.0000381.0000191.0000191c-.0064297 1.6603508-.0094414 3.3206482-.0141163 4.980999l-.0082607 2.9149361c-.0014954-.3170967-.2247562-.6038551-.5842609-.8114166s-.8552951-.3359451-1.4027309-.3357773zm1.4250908-7.5607452-.0000286.0001869-.0011101.3953896-.0011463.4080162-.0011787.4190903-.0012054.4286118-.0012264.4365883-.0012474.4430122-.0012608.4478798-.0012684.4512062-.001276.4529762-.001276.4531975-.0012722.45187-.0012665.4489899-.0012531.4445572-.001236.4385796-.0012169.4310493-.0011902.4219666-.0001678.0594368-.0001678.0592155-.0001678.0589867-.0001659.0587578-.0001659.0585213-.0001659.0582848-.000164.0580406-.0001644.0577962-.000164.0575409-.0001621.0572853-.0001621.0570259-.0001602.0567627-.0001602.0564957-.0001583.0562248-.0001602.0559464-.0001564.0556641.0001564-.0556641.0001602-.0559464.0001583-.0562248.0001602-.0564957.0001602-.0567627.0001621-.0570259.0001621-.0572853.000164-.0575409.000164-.0577965.000164-.0580406.0001659-.0582848.0001659-.0585213.0001659-.0587578.0001678-.0589867.0001678-.0592155.0001678-.0594368.0011959-.4220314.0012226-.4310951.0012436-.4386101.0012608-.4445763.0012722-.4489975.0012817-.4518661.0012836-.4531898.0012856-.4529648.0012779-.4511871.0012703-.4478683.001255-.4429932.0012379-.4365768.001215-.4286079.0011883-.4190941.0011578-.4080276.0011215-.3954163-.0000019.0000305-.0000019.0000229-.0000057.0000153-.0000057.0000076h-.0000057l-.0000074-.0000039-.0000076-.0000114-.0000095-.0000114-.0000095-.0000153-.0000095-.0000191-.0000095-.0000191-.0000076-.0000153-.0000095-.0000153-.0000078-.0000151-.0000057-.0000114z" fill="#d6683d"/><path d="m23.8258514 47.2344322c-.0000515.0041161-.0000668.0082359-.0000458.0123634l.0223885-7.8969002c-.0000229-.0041389-.0000076-.0082588.0000458-.0123749-.0074368 2.632393-.001894 5.2645875-.0223885 7.8969117z" fill="#d6683d"/><path d="m27.8092213 39.3498764-.0223999 7.8969154c.0038605.6336937-.8796101 1.14711-1.9740448 1.1471939-.5470123-.0000801-1.0427914-.1284485-1.4023075-.3360176-.3595142-.2075653-.5827503-.4943199-.5846786-.8111687l.0223846-7.896904c.0019302.3168411.2251682.6035957.5846825.811161.3595142.2075691.8552933.3359375 1.4023056.3360176 1.0944347-.0000838 1.9779071-.5135001 1.9740581-1.1471976z" fill="#963e25"/><path d="m27.2249603 38.5384636c.3595142.2075691.5827503.4943237.5842609.8114128.003849.6336975-.8796234 1.1471138-1.9740582 1.1471977-.5470123-.0000801-1.0427914-.1284485-1.4023056-.3360176-.3595142-.2075653-.5827522-.4943199-.5846786-.8111687-.0034313-.6339378.8800392-1.1473541 1.9740582-1.1471977.5474281-.0001602 1.0432072.1282082 1.4027233.3357735z" fill="#963e25"/><path d="m68.5597687 48.3714066c-1.0871124-.0000343-1.9661865.5067139-1.9740219 1.1348343.0074158-2.6323624.0149536-5.2645187.0223846-7.8968964.007843-.6281357.8869095-1.1348839 1.9740219-1.1348495-.0067367 2.3690833-.0156784 5.5278434-.0223846 7.8969116z" fill="#d6683d"/><path d="m68.5597687 48.3714066c.0074921-2.6323624.0150299-5.2645378.0223694-7.8968964.5472336-.0000572 1.0429993.128315 1.402504.3358727.0000229.0000114.0000381.0000229.0000534.0000343-.0247498 1.1434402-.006546 2.2869377-.0097656 3.4304352-.0041885 1.4887161-.0084381 2.977375-.0126343 4.4660873.0074234-2.6322327.0149689-5.2642784.0223923-7.8965073.3595047.2075539.5827179.4942894.5844421.8112411-.0000153.0000839-.0000153.0001793-.0000153.0002518v.0000191.0000725.0000763.0000496.0000954.0000763.0000534.0000763c-.0046768 1.6604233-.0094452 3.3207932-.0141144 4.9812202l-.0028839 1.0146904-.0053787 1.9002457c-.0017166-.3169823-.2249527-.6037331-.5844803-.811306-.3595047-.2075577-.855278-.3359299-1.4024887-.3358879z" fill="#d6683d"/><path d="m66.5857468 49.5062408c-.0000534.0041161-.000061.0082359-.0000381.0123634l.0223846-7.8969002c-.0000229-.0041389-.0000076-.0082588.0000381-.0123749-.007431 2.632393-.0022736 5.2645875-.0223846 7.8969117z" fill="#d6683d"/><path d="m69.984642 40.8103867c.3595123.2075653.5827484.4943237.584465.8112907.0036392.6338158-.8798294 1.1472359-1.9740601 1.1471977-.5472107.000042-1.0429993-.1283302-1.4025116-.3358955s-.5827484-.4943199-.584465-.8112907c-.0036392-.6338158.8798294-1.1472321 1.9740601-1.1471939.5472107-.0000458 1.0429993.1283264 1.4025116.3358917z" fill="#963e25"/><path d="m70.5691071 41.6216774-.0223846 7.8969231c.0036392.6338043-.8798294 1.1472244-1.9740601 1.1471863-.5472183.000042-1.0429993-.1283302-1.4025116-.3358955s-.582756-.4943199-.5844727-.8112907l.022377-7.8968964c.0017319.3169556.224968.6037102.5844803.8112755s.8553009.3359375 1.4025116.3358955c1.0942306.0000381 1.9776993-.513382 1.9740601-1.1471978z" fill="#963e25"/><path d="m35.0260963 43.0428429c-.0065689 2.3244362-.0132217 4.6486855-.019783 6.9731178.0065231-2.324398.0131187-4.6485901.0196419-6.9729843.0000114-.0000076.0000191 0 .0000267.0000038.0000496.0000305.000103-.0000992.0001144-.0001373z" fill="#d6683d"/><path d="m70.3929291 58.2045364-.0223847 7.8969117-36.7398414-21.2117577.0223884-7.8969116z" fill="#c95632"/><path d="m33.6008949 50.6035233c-1.086895-.0001564-1.9659843.5065994-1.9740143 1.1348343.0074196-2.6323586.0149574-5.264534.0223846-7.8968964.0080338-.6282501.8871231-1.135006 1.9740181-1.1348495-.0073471 2.6320457-.0148849 5.2638893-.0223122 7.895916.0074272-2.6319733.0149651-5.2637215.0223961-7.8956947l-.0000954-.0002022c.5474663-.0001717 1.0432358.1282005 1.4027405.3357582.3595276.2075729.5827675.4943237.5842667.8114166-.0000114.000206-.0000076.0004578-.0000076.0006447v.0000381.0000267.0000458.0000381.0000191.0000381.0000534.0000763c.0000038-.0000267.0000038-.0000343.0000038-.0000343-.0037193 1.3159637-.0074883 2.6319504-.0112038 3.9479179l-.0111961 3.9480515c-.0014839-.3170967-.2247238-.6038475-.5842514-.8114204-.3595046-.2075577-.8552741-.3359299-1.402729-.3357773zm1.425087-7.5605431c-.0000076-.0000038-.0000153-.0000114-.0000267-.0000153l-.0011101.3953896-.0011444.4080162-.0011787.4190903-.0012054.4286156-.0012283.4365845-.0012474.4430122-.0012589.4478836-.0012703.4512024-.0012741.4529762-.0012779.4531975-.0012703.45187-.0012665.4489899-.001255.4445572-.001236.4385796-.0012169.4310493-.0011902.4219666-.0001678.0594368-.0001678.0592232-.0001678.0589981-.000164.0587692-.0001678.0585403-.000164.0583-.000164.0580597-.000164.0578117-.000164.0575638-.000164.0573044-.0001602.0570412-.0001602.056778-.0001602.0565109-.0001602.0562325-.0001602.0559502-.0001564.0556679.0001564-.0556679.0001602-.0559502.0001602-.0562325.0001602-.0565109.0001602-.056778.0001602-.0570412.000164-.0573044.000164-.0575638.000164-.0578117.000164-.0580597.000164-.0583.0001678-.0585403.000164-.0587692.0001678-.0589981.0001678-.0592232.0001678-.0594368.0011978-.4219627.0012207-.4310455.0012436-.4385757.0012627-.4445572.0012703-.4489899.0012817-.4518661.0012856-.4532013.0012856-.45298.0012779-.45121.0012703-.4478912.001255-.4430199.001236-.4365997.0012169-.4286308.0011902-.4191132.0011559-.4080391.0011215-.3954201-.0000038.0000343v.0000305l-.0000076.0000229-.0000038.0000191-.0000076.0000191-.0000076.0000114-.0000076.0000076-.0000076.0000038-.0000114.0000038h-.0000076-.0000114-.0000076l-.0000076-.0000038-.0000076-.0000038-.0000076-.0000038z" fill="#d6683d"/><path d="m31.6268806 51.7383575c-.0000534.0041161-.0000687.0082397-.0000458.0123672l.0223751-7.8969002c-.0000095-.0041389.0000057-.0082626.0000591-.0123787-.0074309 2.6323777-.0018882 5.2645875-.0223884 7.8969117z" fill="#d6683d"/><path d="m35.0259933 43.0423927c.3595123.2075653.5827522.4943199.5842628.8114128.0038452.6336937-.8796234 1.1471138-1.9740601 1.1471977-.5470123-.0000801-1.0427933-.1284523-1.4023056-.3360176-.3595161-.2075653-.5827522-.4943199-.5846786-.8111687-.0034313-.6339378.8800392-1.1473541 1.9740562-1.1471977.5474321-.0001602 1.0432092.1282082 1.4027253.3357735z" fill="#963e25"/><path d="m35.6102562 43.8538055-.0223999 7.8969154c.0038567.6336937-.879612 1.14711-1.9740486 1.1471939-.5470123-.0000801-1.0427895-.1284523-1.4023056-.3360176-.3595142-.2075653-.5827522-.4943199-.5846786-.8111687l.0223866-7.896904c.0019283.3168411.2251644.6035957.5846806.811161.3595123.2075653.8552933.3359375 1.4023056.3360176 1.0944365-.0000838 1.9779051-.5135039 1.9740599-1.1471976z" fill="#963e25"/><path d="m76.3607941 52.8753319c-1.0871124-.0000343-1.9661789.5067139-1.9740219 1.1348343.0074234-2.6323586.014946-5.264534.0223694-7.8968964.0078583-.6281357.8869324-1.1348839 1.9740372-1.1348495-.0067216 2.3690872-.0156861 5.5278472-.0223847 7.8969116z" fill="#d6683d"/><path d="m76.3607941 52.8753319c.0074844-2.6323586.0150375-5.264534.022377-7.8968925.547226-.000061 1.0429993.1283112 1.4025192.3358841-.0073776 2.6320648-.0149155 5.2638893-.0223389 7.8959351.0074234-2.6319733.0149612-5.2637253.0223923-7.8956947l-.0000534-.0002213c.3595047.2075424.5827484.4942894.584465.8112564-.0046844 1.6606979-.0094681 3.3212891-.0141449 4.9819756l-.002861 1.0146904-.005394 1.9002647c-.001709-.3169861-.2249451-.6037331-.5844498-.8112946-.3595275-.207573-.8552932-.3359452-1.4025115-.3359032z" fill="#d6683d"/><path d="m74.3867722 54.0101662c-.0000458.0041161-.000061.0082359-.0000381.0123634l.022377-7.8968964c-.0000153-.0041428 0-.0082626.0000534-.0123787-.0074464 2.6323777-.0022736 5.2645913-.0223923 7.8969117z" fill="#d6683d"/><path d="m78.3701401 46.1256027-.0224075 7.8969269c.0036545.6338043-.8798141 1.1472206-1.9740372 1.1471825-.5472183.000042-1.0430069-.1283264-1.4025116-.3358917-.3595123-.2075653-.582756-.4943237-.5844727-.8112907l.022377-7.8968964c.0017242.3169518.224968.6037102.5844803.8112755.3595123.2075615.8552933.3359337 1.4025116.3358917 1.094223.0000381 1.9776993-.5133782 1.9740601-1.1471978z" fill="#963e25"/><path d="m77.7856674 45.3143158c.3595123.2075653.582756.4943199.5844727.8112869.0036392.6338196-.879837 1.1472359-1.9740601 1.1471977-.5472183.000042-1.0429993-.1283302-1.4025116-.3358917-.3595123-.2075653-.582756-.4943237-.5844727-.8112907-.0036392-.6338158.879837-1.1472359 1.9740601-1.1471977.5472183-.000042 1.0430069.1283302 1.4025116.3358955z" fill="#963e25"/><path d="m42.8348503 47.5512314c-.0065651 2.324501-.0132179 4.6488228-.0197754 6.9733124.0065193-2.3243942.0130997-4.6485863.0196228-6.9729843.0000076-.0000572.0000267-.0001297.0000343-.0001831.0000573.0000152.0001107-.0000954.0001183-.000145z" fill="#d6683d"/><path d="m41.4096756 55.111927c-1.086895-.0001602-1.9659843.5065994-1.9740143 1.1348305.0074158-2.6323586.0149536-5.264534.0223808-7.8968964.0080376-.6282463.8871269-1.135006 1.9740181-1.1348457-.0074387 2.6321907-.0149193 5.2641449-.0223503 7.8963203.007431-2.6321754.0149498-5.2641296.022377-7.8963051.5474358-.0001793 1.04319.1281929 1.4026833.3357468.3595276.2075729.5827675.4943199.5842667.8114166l-.0000076.0004158v.0000572.0000725.0000572.0000381.0000725.0000191.0000343c-.0037155 1.3160439-.0074844 2.6320648-.0111961 3.9481087l-.0112 3.9480515c-.0014839-.317112-.2247238-.6038589-.5842514-.8114319-.3595048-.2075576-.8552743-.3359298-1.4027062-.335762zm1.4250641-7.5605583-.0000267.0001869-.0011101.3953896-.0011482.4080162-.0011749.4190903-.0012054.4286156-.0012283.4365845-.0012474.4430122-.0012589.4478798-.0012703.4512062-.0012741.4529762-.0012779.4531975-.0012741.45187-.0012627.4489899-.001255.4445572-.001236.4385796-.0012169.4310493-.0011902.4219666-.0001678.0594368-.0001678.0592155-.0001678.0589867-.0001678.0587578-.000164.0585251-.000164.0582809-.0001678.0580406-.000164.0577965-.0001602.0575409-.000164.0572853-.0001602.0570297-.0001602.0567627-.0001602.0564919-.0001602.0562248-.0001602.0559464-.0001564.0556641.0001564-.0556641.0001602-.0559464.0001602-.0562248.0001602-.0564919.0001602-.0567627.0001602-.0570297.000164-.0572853.0001602-.0575409.000164-.0577965.0001678-.0580406.000164-.0582809.000164-.0585251.0001678-.0587578.0001678-.0589867.0001678-.0592155.0001678-.0594368.0011978-.4220314.0012207-.4310951.0012436-.4386101.0012589-.4445801.0012741-.4489975.0012817-.4518738.0012856-.4531937.0012817-.4529724.0012817-.4511986.0012703-.4478798.001255-.4430122.001236-.4365959.0012169-.4286346.0011864-.4191208.0011597-.4080582.0011177-.3954506v.0000343l-.0000038.0000305-.0000038.0000229-.0000038.0000191-.0000076.0000191-.0000076.0000114-.0000076.0000076-.0000076.0000038-.0000114.0000038h-.0000076-.0000114-.0000076l-.0000076-.0000038-.0000076-.0000038-.0000076-.0000038z" fill="#d6683d"/><path d="m39.4356613 56.2467575c-.0000534.0041161-.0000687.0082397-.0000458.0123672l.0223732-7.8969002c-.0000076-.0041389.0000076-.0082626.0000572-.0123787-.007431 2.6323777-.0018882 5.2645875-.0223846 7.8969117z" fill="#d6683d"/><path d="m42.8347511 47.5507851c.3595161.2075653.5827599.4943237.5842628.811409.003849.6336975-.8796234 1.1471138-1.9740562 1.1471977-.5470085-.0000763-1.0427933-.1284485-1.4023094-.3360138-.3595085-.2075653-.5827484-.4943237-.584671-.8111687-.0034294-.6339378.8800392-1.1473541 1.9740601-1.1471977.5474205-.000164 1.0432052.1282082 1.4027137.3357735z" fill="#963e25"/><path d="m43.419014 48.3621941-.0223999 7.8969269c.0038605.6336823-.879612 1.1470985-1.9740448 1.1471825-.5470047-.0000763-1.0427933-.1284485-1.4023056-.3360138-.3595085-.2075653-.5827522-.4943237-.5846748-.8111687l.0223808-7.8968964c.0019302.3168297.2251701.6035881.5846786.8111534.3595161.2075653.8553009.3359375 1.4023094.3360138 1.0944329-.0000839 1.9779053-.5135002 1.9740563-1.1471977z" fill="#963e25"/><path d="m84.1618195 57.3792572c-1.0871048-.0000343-1.9661789.5067139-1.9740143 1.1348343.0074234-2.6323738.014946-5.2645302.022377-7.8969116.0078506-.6281204.8869171-1.1348686 1.9740295-1.1348343-.0067215 2.3690758-.015686 5.5278435-.0223922 7.8969116z" fill="#d6683d"/><path d="m84.1618195 57.3792572c.0074921-2.6323738.0150528-5.2645302.0223846-7.8969078.5472183-.0000458 1.0429916.1283264 1.4025192.3358994-.0073929 2.6320496-.0149155 5.2638893-.0223389 7.8959389.0074234-2.6319733.014946-5.2637253.022377-7.8956985l-.000061-.0002403c.3595276.2075615.5827866.4943237.5844803.8112755-.0000153.0001411-.0000153.0003014-.0000153.0004234v.0000191.0000381.0000534.0000572.0000534.0000763.0000725c.0000153-.0000153.0000153-.0000229.0000153-.0000229-.0046921 1.6604309-.0094604 3.3207817-.0141296 4.9812088l-.0028839 1.0146904-.0053787 1.9002457c-.0016861-.3169556-.2249527-.6037178-.5844574-.8112793-.35952-.2075731-.8552933-.3359453-1.4025116-.3359033z" fill="#d6683d"/><path d="m82.1878052 58.5140915c-.0000534.0041161-.0000687.0082359-.0000458.0123634l.0223846-7.8968925c-.0000153-.0041466 0-.0082664.0000458-.0123825-.0074386 2.6323814-.0022659 5.2645721-.0223846 7.8969116z" fill="#d6683d"/><path d="m85.5867004 49.8182411c.3595123.2075653.582756.4943237.5844727.8112907.0036392.6338158-.879837 1.1472359-1.9740601 1.1471977-.5472183.000042-1.0429993-.1283302-1.4025116-.3358955s-.582756-.4943199-.5844727-.8112869c-.0036392-.6338196.879837-1.1472359 1.9740601-1.1471977.5472184-.000042 1.0429993.1283302 1.4025116.3358917z" fill="#963e25"/><path d="m86.1711731 50.6295319-.0223999 7.8969269c.0036469.6338005-.8798218 1.1472206-1.9740448 1.1471825-.5472183.000042-1.0430069-.1283302-1.4025192-.3358955s-.5827484-.4943199-.584465-.8112869l.0223846-7.8968964c.0017166.3169518.2249603.6037064.5844727.8112717s.8552933.3359375 1.4025116.3358955c1.094223.000038 1.9776992-.5133821 1.97406-1.1471978z" fill="#963e25"/><g fill="#d6683d"><path d="m50.6358795 52.0551567c-.0065613 2.3245049-.0132103 4.6488266-.0197716 6.9733162.0033073-1.1810837.0066719-2.3621101.0099792-3.54319.0016632-.5928879.0033455-1.1857948.0050049-1.7786827.0007172-.2543144.0016708-.5933952.0023842-.8477097.000679-.2410202-.0430489-.5666771.0022545-.8034019 0 0 .0001488-.0002213.0001488-.0003319z"/><path d="m49.210701 59.6158524c-1.0868912-.0001602-1.9659805.5065994-1.9740143 1.1348305.0074272-2.6323586.014946-5.264534.0223732-7.8968925.0080452-.6282501.8871384-1.1350098 1.9740295-1.1348495-.007431 2.6321907-.0149345 5.2641449-.0223618 7.8963203.0074272-2.6321754.0149689-5.2641296.0223961-7.8963051.5474281-.0001755 1.0431786.1281929 1.4026756.3357468.3595276.2075729.5827637.4943237.5842667.8114166-.0046768 1.6606979-.0094643 3.3213081-.0141373 4.9819908l-.0028839 1.0146942-.0053748 1.9002418c-.0014915-.3171082-.2247314-.6038589-.584259-.8114319-.3595048-.2075577-.8552743-.3359299-1.40271-.335762zm1.4251785-7.5606957v.0000687l-.0000038.0000534-.0000038.000042-.0000038.0000343-.0000076.0000229-.0000114.0000153-.0000076.0000076-.0000114.0000076h-.0000076l-.0000114.0000038h-.0000114l-.0000114.0000038-.0000114.0000076-.0000114.0000114-.0000114.0000191-.0000114.0000267-.0011101.3953896-.0011482.4080162-.0011787.4190903-.0012054.4286156-.0012245.4365845-.0012474.4430122-.0012589.4478836-.0012703.4512024-.0012779.4529762-.0012741.4532013-.0012741.4518661-.0012665.4489899-.0012512.444561-.001236.4385757-.0012169.4310493-.0011902.4219666-.0001678.0594406-.0001678.0592194-.0001678.0589981-.0001678.058773-.000164.0585365-.0001678.0583-.000164.0580597-.000164.0578117-.000164.0575638-.0001602.0573044-.000164.057045-.0001602.056778-.0001602.0565071-.0001602.0562325-.0001564.055954-.0001564.0556679.0001564-.0556679.0001564-.055954.0001602-.0562325.0001602-.0565071.0001602-.056778.000164-.057045.0001602-.0573044.000164-.0575638.000164-.0578117.000164-.0580597.0001678-.0583.000164-.0585365.0001678-.058773.0001678-.0589981.0001678-.0592194.0001678-.0594406.001194-.4219666.0012245-.4310493.0012436-.4385872.0012589-.4445686.0012741-.4490051.0012817-.4518852.0012856-.4532166.0012817-.4529991.0012817-.4512291.0012665-.4479103.0012589-.4430351.001236-.4366188.0012169-.4286423.0011864-.4191208.0011559-.4080467z"/><path d="m47.2366867 60.7506828c-.0000496.0041199-.0000648.0082397-.0000458.0123672l.0223808-7.8969002c-.0000153-.0041389 0-.0082626.0000534-.0123787-.0074424 2.6323777-.0018806 5.2645913-.0223884 7.8969117z"/><path d="m77.4748993 54.0889549-.0223847 7.8969116-36.739849-21.2117614.0223884-7.8969116z"/></g><path d="m51.220047 52.8661232-.0223961 7.8969231c.0038567.6336861-.8796158 1.1471024-1.9740486 1.1471863-.5470085-.0000801-1.0427933-.1284485-1.4023094-.3360176-.3595085-.2075615-.5827484-.4943199-.5846748-.8111649l.0223885-7.8969002c.0019226.3168335.2251663.6035919.5846748.8111534.3595161.2075653.8552971.3359375 1.4023094.3360176 1.0944328-.0000839 1.9779052-.5135002 1.9740562-1.1471977z" fill="#963e25"/><path d="m50.6357841 52.0547104c.3595161.2075691.582756.4943237.5842628.8114128.003849.6336975-.8796234 1.1471138-1.9740562 1.1471977-.5470123-.0000801-1.0427933-.1284523-1.4023094-.3360176-.3595085-.2075615-.5827522-.4943199-.5846748-.8111687-.0034294-.633934.8800392-1.1473541 1.9740601-1.1471939.5474243-.000164 1.0432052.1282082 1.4027175.3357697z" fill="#963e25"/><g fill="#d6683d"><path d="m78.9379196 64.057991c.0021439-.7491112-.4933319-1.4993477-1.485405-2.0721245.006546-2.3249664.013382-4.6497498.0197601-6.9747162l.0026245-.9221764c.9920807.5727577 1.4875488 1.3229942 1.4854126 2.0721054-.006729 2.3690873-.0156859 5.5278436-.0223922 7.8969117z"/><path d="m58.4369583 56.5591125c-.0065651 2.3242912-.0132179 4.6484108-.0197792 6.9726982.0065231-2.3243217.0131035-4.6484413.0196266-6.9727631 0 0-.0000038-.000145 0-.000206l.0000534.0002975c.0000076.0000229.0000305.0000496.0000381.0000725v.0000381s.0000076.0000267.0000191.0000381h.0000153c.0000191-.0000379.0000191-.0001485.0000267-.0001753z"/><path d="m57.0117302 64.1197815c-1.0868912-.0001602-1.9659843.5065918-1.9740143 1.1348267.007412-2.6323738.0149536-5.2645302.0223808-7.8969078.0080376-.6282349.8871307-1.1349945 1.9740219-1.1348343-.0074425 2.6321754-.0149269 5.2641296-.0223541 7.8963051.0074272-2.6321754.0149651-5.2641296.0223923-7.8963051.5474205-.0001602 1.0431747.1282082 1.4026909.3357773.3595047.2075577.5827446.4943085.5842438.8114014-.0000115.0001372-.0000115.0003013-.0000115.0004233v.0000191.0000343.0000572.0000534.0000572.0000534.0000954c.0000114-.0000153.0000114-.0000229.0000114-.0000229-.0027466.97155-.0055351 1.9430428-.0082703 2.9145889l-.0087395 3.0813103-.0053787 1.9002609c-.0014992-.3171158-.2247353-.6038589-.58424-.8114243-.3595274-.2075728-.8552969-.3359374-1.4027327-.3357695zm1.4250908-7.5609512v.0002022l-.0011139.3953857-.001152.4080048-.0011787.4190788-.0012054.4286003-.0012283.436573-.0012474.4429932-.0012589.4478645-.0012703.4511871-.0012741.4529572-.0012741.4531822-.0012703.4518509-.0012627.4489746-.0012512.4445496-.001236.4385681-.0012169.4310417-.0011902.4219627-.0001678.0594406-.0001678.0592232-.0001678.0589981-.0001678.0587692-.000164.0585403-.000164.0583-.0001678.0580597-.0001606.057808-.000164.0575638-.000164.0573044-.0001602.057045-.0001602.056778-.0001602.0565109-.0001602.0562286-.0001602.055954-.0001564.0556717.0001564-.0556717.0001602-.055954.0001602-.0562286.0001602-.0565109.0001602-.056778.0001602-.057045.000164-.0573044.000164-.0575638.0001602-.0578079.0001678-.0580597.000164-.0583.000164-.0585403.0001678-.0587692.0001678-.0589981.0001678-.0592232.0001678-.0594406.0011978-.4219589.0012207-.4310379.0012436-.4385643.0012589-.4445419.0012741-.4489708.0012817-.4518471.0012856-.4531746.0012817-.4529533.0012817-.4511795.0012665-.4478607.0012589-.4429855.001236-.4365654.0012169-.4285965.0011864-.419075.0011559-.4080009.0011215-.3953819v.0000648l-.0000038.0000458-.0000076.0000305-.0000076.0000153h-.0000076l-.0000114-.0000114-.0000076-.0000229-.0000114-.0000305-.0000114-.0000381-.0000114-.0000458-.0000114-.0000458-.0000114-.0000534-.0000114-.0000496-.0000076-.0000496-.0000076-.0000496z"/><path d="m55.0377159 65.2546082c-.0000534.0041199-.0000687.0082397-.0000458.0123672l.0223885-7.8968964c-.0000229-.0041428-.0000076-.0082626.0000458-.0123825-.0074349 2.6323815-.0018921 5.264576-.0223885 7.8969117z"/></g><path d="m59.0210762 57.3700523-.0223885 7.8969231c.003849.6336823-.8796234 1.1471024-1.9740562 1.1471863-.5470085-.0000839-1.0427933-.1284561-1.4023056-.3360138-.3595085-.2075653-.5827522-.4943237-.5846786-.8111725l.0223732-7.8968964c.0019379.3168335.2251816.6035881.5846939.8111534s.8552933.3359375 1.4023056.3360138c1.0944328-.0000839 1.9779052-.5135002 1.9740562-1.1471939z" fill="#963e25"/><path d="m58.4368172 56.5586395c.3595123.2075653.5827522.4943199.584259.8114128.003849.6336937-.8796234 1.14711-1.9740562 1.1471939-.5470123-.0000763-1.0427933-.1284485-1.4023056-.3360138s-.582756-.4943199-.5846786-.8111687c-.0034294-.6339378.8800392-1.1473541 1.9740601-1.1471977.5474242-.000164 1.0432089.128212 1.4027213.3357735z" fill="#963e25"/><path d="m78.960289 56.1610489-.0223999 7.8969269c-.0020828.7395706-.4892197 1.4780579-1.4623871 2.0435944-1.958847 1.1383591-5.1334381 1.1381378-7.1049576-.0001221l.0223846-7.8969116c1.9715271 1.1382561 5.1461182 1.1384811 7.1049652.0001259.9731599-.5655404 1.4602967-1.3040314 1.4623948-2.0436135z" fill="#c95632"/><path d="m66.2379837 61.0630379c-.0065536 2.3243713-.0132065 4.6485405-.0197678 6.9729042.0065231-2.324379.0196228-4.648571.0196228-6.9729691v-.0002022s.0000381.0003319.0001144.0004272h.0000076l.0000076-.0000381z" fill="#d6683d"/><path d="m64.8127594 68.623703c-1.0868912-.0001602-1.9659843.5065994-1.9740143 1.1348343.0074196-2.63237.0149574-5.264534.0223846-7.8969078.0080338-.6282387.8871231-1.1349945 1.9740143-1.1348381-.0073776 2.6321793-.0148773 5.2641373-.0223083 7.8963089.007431-2.6321716.0149689-5.2641296.0223923-7.8963051.5474014-.0001564 1.0431442.128212 1.4026489.3357735s.5827637.4943199.5842438.8114052l-.0000076.0004044v.0001831c-.0037079 1.3160248-.0074768 2.6320457-.0111923 3.9480705l-.005806 2.0480118-.005394 1.9002457c-.0014648-.3170853-.2247238-.6038513-.5842285-.811409-.3595276-.2075731-.855301-.3359452-1.4027329-.3357774zm1.425087-7.5609474v.0002022l-.0011139.3953896-.0011444.4080124-.0011826.4190865-.0012054.4286156-.0012283.4365845-.0012512.4430122-.0012589.4478836-.0012665.4512024-.0012741.45298-.0012741.4532013-.0012741.4518661-.0012589.4489899-.0012512.4445648-.001236.4385757-.0012207.4310455-.0011902.4219666-.0001678.0594406-.0001678.0592117-.0001678.0589905-.0001602.0587616-.0001678.0585175-.0001678.0582886-.0001602.0580368-.0001678.0577927-.0001602.0575485-.0001678.0572815-.0001602.0570297-.0001602.0567627-.0001602.0564957-.0001602.056221-.0001526.0559464-.0001602.0556641.0001602-.0556641.0001526-.0559464.0001602-.056221.0001602-.0564957.0001602-.0567627.0001602-.0570297.0001678-.0572815.0001602-.0575485.0001678-.0577927.0001602-.0580368.0001678-.0582886.0001678-.0585175.0001602-.0587616.0001678-.0589905.0001678-.0592117.0001678-.0594406.0011978-.4219589.0012207-.4310379.0012436-.4385681.0012665-.4445419.0012665-.4489746.0012817-.4518509.0012894-.4531784.0012817-.4529648.0012817-.4511871.0012665-.4478722.0012589-.4430046.001236-.4365845.0012131-.4286194.0011902-.4191017.0011597-.4080353.0011139-.3954163v.0000648.0000496l-.0000076.0000267-.0000076.0000153h-.0000076l-.0000076-.0000114-.0000153-.0000229-.0000076-.0000305-.0000153-.0000381-.0000076-.0000458-.0000153-.0000458-.0000076-.0000496-.0000153-.0000534-.0000076-.0000496-.0000076-.0000496z" fill="#d6683d"/><path d="m62.8387451 69.7585373c-.0000534.0041122-.0000687.0082397-.0000458.0123672l.022377-7.8968964c-.0000114-.0041466.0000038-.0082664.0000572-.0123825-.007431 2.6323777-.0018882 5.2645722-.0223884 7.8969117z" fill="#d6683d"/><path d="m66.2378464 61.0625687c.3595123.2075653.582756.4943199.584259.811409.0038528.6336975-.8796234 1.1471138-1.9740524 1.1471977-.5470123-.0000763-1.0427933-.1284485-1.4023094-.3360176-.3595123-.2075615-.5827522-.4943199-.5846748-.8111649-.0034294-.6339378.8800392-1.1473579 1.9740601-1.1471977.5474242-.000164 1.0432051.1282082 1.4027175.3357735z" fill="#963e25"/><path d="m66.8221054 61.8739777-.0223999 7.8969269c.0038605.6336823-.8796082 1.1471024-1.9740448 1.1471863-.5470047-.0000839-1.0427895-.1284561-1.4023056-.3360214-.3595085-.2075653-.5827484-.4943161-.5846748-.8111649l.022377-7.8968964c.0019341.3168297.225174.6035881.5846863.8111496.3595161.2075691.8552971.3359413 1.4023094.3360176 1.094429-.0000839 1.9779053-.5135002 1.9740524-1.1471977z" fill="#963e25"/><path d="m13.6200256 37.4919586-.0300293 7.8701172c0 1.1201172.7000122 2.2299805 2.0900269 3.1098633 7.5200195 4.7202148 15.2000122 9.3398438 23.039978 13.8701172 7.8400269 4.5297852 15.8500366 8.9599609 24.0200195 13.2998047 2.8900146 1.5302734 7.2800293 1.590332 10.3300171.1801758 8-3.7099609 15.1900024-7.8901367 21.5700073-12.5400391 1.1599731-.8398438 1.7399902-1.8598633 1.7399902-2.8798828l.0299683-7.8999023z" fill="#963e25"/><path d="m94.6595688 55.3878708c-6.3778687 4.6468697-13.5673218 8.8249207-21.5690079 12.5345383-3.0513382 1.4149704-7.4365463 1.3569412-10.3271332-.1787109-8.1702614-4.338604-16.1767845-8.7723923-24.0203323-13.300869s-15.5241642-9.1516572-23.0409946-13.869999c-2.6605825-1.6693192-2.7750912-4.2092056-.3422689-5.9812775 6.3780909-4.6469955 13.5675421-8.8250484 21.5690079-12.5345364 3.0513344-1.4149723 7.4442444-1.3614216 10.3350487.1741047 8.1663055 4.3409081 16.1711655 8.7756634 24.0147133 13.3041382s15.5258255 9.150692 23.0466156 13.8667336c2.660363 1.6694412 2.7671746 4.2138062.3343514 5.985878zm-24.2666168 2.8166656c1.9715118 1.1382561 5.1461029 1.138485 7.1049652.0001221 1.9588318-1.1383514 1.9485016-2.9774475-.0230179-4.1157036l-36.7398453-21.2117614c-1.9637871-1.1337929-5.1465454-1.1382275-7.105381.0001221-1.9588547 1.1383629-1.9403591 2.9816666.0234299 4.1154594zm-44.5577622-17.7074585c1.0944328-.0000801 1.9779129-.513504 1.9740601-1.1471977-.0014992-.3170967-.2247601-.6038551-.5842648-.8114166s-.8552971-.3359451-1.4027309-.3357773c-1.094017-.0001602-1.9774971.5132637-1.9740601 1.1471977.001915.3168564.2251759.6036148.5846806.8111763s.8552971.3359452 1.4023151.3360176m7.8010292 4.5039254c1.0944328-.0000801 1.9779129-.513504 1.9740601-1.1471977-.0014992-.3170929-.2247391-.6038437-.5842667-.8114166-.3595047-.2075577-.8552742-.3359299-1.402729-.3357773-1.094017-.0001602-1.9774971.5132637-1.9740601 1.1472015.001936.316864.2251759.6036148.5846786.8111725.3595277.2075729.8552972.3359451 1.4023171.3360176m23.4108124 13.5162429c1.0944328-.0000839 1.9779129-.513504 1.9740601-1.1472015-.0014992-.3170929-.2247391-.6038437-.5842438-.8114014-.3595238-.2075729-.8552933-.3359451-1.402729-.3357773-1.094017-.0001602-1.9774971.5132637-1.9740601 1.1471977.001915.3168526.2251549.6036034.5846825.8111763.3595047.2075578.8552742.33593 1.4022903.3360062m-7.8010254-4.5039291c1.094429-.0000801 1.9779091-.513504 1.9740601-1.1471977-.001503-.3170929-.2247391-.6038437-.5842667-.8114166-.3595047-.2075577-.8552742-.3359299-1.40271-.335762-1.0940132-.0001602-1.9774971.5132637-1.9740601 1.1471977.001915.3168526.2251549.6036034.5846596.811161.3595277.2075729.8552972.3359451 1.4023171.3360176m-7.8010292-4.5039253c1.094429-.0000801 1.9779129-.513504 1.9740601-1.1471977-.0014992-.3170967-.2247391-.6038437-.5842667-.8114166-.3595047-.2075615-.8552742-.3359299-1.40271-.335762-1.0940132-.0001602-1.9774933.5132599-1.9740601 1.1471977.0019188.3168526.2251549.6035995.5846596.811161.3595276.2075729.8552971.3359451 1.4023171.3360176m23.4030838 13.5117798c1.094429-.0000839 1.9779129-.513504 1.9740601-1.1471977-.0014801-.3170853-.2247391-.6038437-.5842438-.8114052-.3595276-.2075729-.8552933-.3359451-1.4027328-.3357773-1.0940132-.0001602-1.9774933.5132637-1.9740562 1.1471977.001915.3168564.2251549.6036034.5846825.8111763.3595046.2075615.8552931.3359451 1.4022902.3360062m-19.6767425-36.0629311c-1.0942345-.0000324-1.9776955.5133762-1.9740601 1.1471977.0017166.3169689.2249794.6037292.5844841.8112888.3595047.2075615.8552933.3359451 1.4025116.3359051 1.0942345.0000324 1.9776917-.5133781 1.9740601-1.1471996-.0017204-.316967-.2249794-.6037292-.5844841-.8112888s-.8552971-.3359432-1.4025116-.3359032m7.8010292 4.5039253c-1.0942383-.0000324-1.9776955.5133781-1.9740601 1.1471977.0017395.3169823.2249794.6037292.5844841.8112907.3595238.2075729.8552933.3359451 1.4025116.3359032 1.0942345.0000343 1.9776917-.5133781 1.9740601-1.1471977-.0017204-.316967-.2249603-.6037178-.5844841-.8112888-.3595047-.2075615-.8552742-.3359318-1.4025116-.3359051m7.8087768 4.5084c-1.0942345-.0000305-1.9776917.5133781-1.9740601 1.1472015.0017204.316967.2249603.603714.5844612.8112755.3595276.2075729.8552971.3359451 1.4025154.3359032 1.0942345.0000343 1.9776917-.5133781 1.9740562-1.1471977-.0017166-.316967-.2249565-.6037178-.5844841-.8112907-.3595046-.2075578-.8552741-.33593-1.4024886-.3358918m7.8010292 4.5039291c-1.0942383-.0000343-1.9776917.5133743-1.9740601 1.1471977.0017166.316967.2249603.603714.584465.8112755.3595276.2075729.8552933.3359451 1.4025116.3359032 1.0942307.0000343 1.9776917-.5133781 1.9740601-1.1471977-.0017242-.316967-.2249603-.6037178-.5844879-.8112907-.3595047-.2075577-.8552704-.3359299-1.4024887-.335888m15.6020584 9.0078507c-1.0942383-.0000343-1.9776917.5133781-1.9740601 1.1471977.0017166.316967.2249603.6037178.5844803.8112907.3595047.2075577.8553009.3359451 1.4024887.3358917 1.0942383.0000305 1.9776993-.5133781 1.9740601-1.1472015-.0016937-.3169518-.2249527-.603714-.5844574-.8112755-.3595276-.2075729-.8553009-.3359451-1.4025116-.3359031m-7.801033-4.5039253c-1.0942307-.0000343-1.9776917.5133781-1.9740601 1.1471977.0017242.316967.2249603.6037178.5844879.8112907.3595047.2075577.8552704.3359299 1.4024887.3358879 1.0942383.0000343 1.9776917-.5133743 1.9740601-1.1471977-.0017166-.316967-.2249603-.603714-.584465-.8112755-.35952-.2075729-.8552933-.3359451-1.4025116-.3359031" fill="#d6683d"/><path d="m77.4748688 54.0889626c1.9715271 1.1382561 1.9818726 2.9773407.0230255 4.1156998-1.958847 1.1383553-5.1334381 1.1381302-7.1049652-.0001259l-36.7398377-21.2117577c-1.9637909-1.1337967-1.9822865-2.9771004-.0234375-4.1154594 1.958847-1.1383572 5.1415863-1.1339111 7.1053772-.0001144z" fill="#c95632"/></g></svg>