<svg enable-background="new 0 0 110 110" height="512" viewBox="0 0 110 110" width="512" xmlns="http://www.w3.org/2000/svg"><circle cx="55" cy="55" fill="#feda6f" r="43.726"/><g fill="#d6b24e"><path d="m66.5240936 50.2056885 1.4502106-7.2510643 11.8088837 3.625534-3.729126 8.4198418h-8.2869263z"/><path d="m62.4500046 34.0287857 2.7537231-8.2611656h-4.2115745l-6.6413269 3.4016552 5.4264488 4.8595104z"/><path d="m42.6880074 46.9874725 5.021492 3.2396736-2.510746 4.7728539h-7.0462876l1.6198349-6.0226898z"/><path d="m39.2863503 28.5213413 2.4297561 3.7256222-7.6132316 4.697525v-4.8595085z"/><path d="m56.7805786 64.6436844-2.4297523 6.3173599 5.4264488 4.8595123 1.862812-5.5884399z"/><path d="m38.9623833 68.0453415-6.4793434 4.0495911 6.4793434 4.697525 3.9685974-4.3735581z"/><path d="m26.165678 48.121357 3.5636406 5.2895355-7.4512462 3.2955971-1.4578534-3.2955971z"/><path d="m73.1536407 65.7775726 2.2550507 8.0991822 5.8314133-2.5917435-2.7537232-3.2396698z"/><path d="m76.5425797 29.898201-1.295868 4.7785187 7.9371949.9719009.9719009-5.7504196z"/><path d="m52.9560013 46.9874725 3.0146599-5.345459 3.8066139 4.6975251-3.9685974 4.6541977z"/><path d="m45.9276772 18.3163738-.971901 3.5636387h2.7537232l2.4297523-4.8595066z"/><path d="m86.9095306 57.3544235v3.5636406l2.1057892-.8099212 1.2958679-6.6972504z"/><path d="m57.9954567 84.0817184-2.9954567 2.1057892 1.3666382 2.4297486h3.977581z"/></g></svg>