<svg enable-background="new 0 0 110 110" height="512" viewBox="0 0 110 110" width="512" xmlns="http://www.w3.org/2000/svg"><ellipse cx="71.165" cy="68.341" fill="#293b44" rx="18.329" ry="21.23"/><ellipse cx="71.165" cy="52.858" fill="#19282f" rx="4.912" ry="2.573"/><path d="m59.7628517 79.4105072c-6.703373-10.3055191-.0747032-21.3705368-.0076599-21.4806786l.8370819.5114441c-.0651283.1053543-6.3681564 10.6560555-.0076637 20.434803z" fill="#ededed"/><ellipse cx="45.559" cy="76.661" fill="#344d5b" rx="18.329" ry="21.23"/><ellipse cx="45.559" cy="61.178" fill="#19282f" rx="4.912" ry="2.573"/><path d="m34.1565056 87.7303391c-6.703373-10.3055115-.0747032-21.3705368-.0076599-21.4806747l.8370819.5114441c-.0651283.1053543-6.3681564 10.6560516-.0076599 20.4347992z" fill="#ededed"/><path d="m71.1634598 54.3095703c-.7030029 0-1.3255463-.5076141-1.4481354-1.2240181-.2202911-1.2872353-5.7523193-31.5754871-36.8671188-36.3997345-.8035622-.1245079-1.3533192-.8763514-1.2288094-1.678956.1254673-.8026037.8820992-1.3533173 1.6789551-1.2288074 33.2410316 5.1546736 39.2605629 38.4790306 39.3170738 38.8142471.1360016.8006859-.4032211 1.5592346-1.2029495 1.6961937-.0833283.0134115-.1666489.0210752-.2490158.0210752z" fill="#41a38e"/><path d="m45.5567436 62.0023117c-.710659 0-1.3351212-.5152779-1.4510078-1.2393456-.0565109-.3534126-5.3366508-35.4170647 19.0891457-48.4790192.7135315-.3840628 1.6080818-.1149321 1.9902306.6033897.3840637.7164059.1130142 1.6071234-.6033936 1.9902287-22.5686951 12.0697107-17.6228142 45.0904579-17.570137 45.422802.1273842.8026047-.4204559 1.5563622-1.2221031 1.6837425-.0785371.0124532-.1561128.0182019-.2327348.0182019z" fill="#4abba4"/><path d="m47.598423 35.1941643s-12.2262268-3.661808-20.6889534 7.3265038c-5.0154133 6.5121956-5.0639229 9.8756065-6.4036961 17.0140762 0 0 11.91506 1.2351723 19.950922-6.0515175 3.9777909-3.6069451 6.1806031-9.9936028 7.1417275-18.2890625z" fill="#4abba4"/><path d="m47.598423 35.1941643s-13.0881424 4.3636055-22.6343613 20.484108c0-.0000001 14.0106354-12.8093415 22.6343613-20.484108z" fill="#41a38e"/><path d="m63.0908852 34.0731964s4.6074486-5.0257397 11.4971352-2.3000126c4.0831604 1.6153965 5.0258026 3.1452808 7.5939255 6.0538464 0 0-5.1287308 3.8272285-10.8096313 2.6830254-2.8120729-.5663872-5.5704271-2.8938447-8.2814294-6.4368592z" fill="#4abba4"/><path d="m63.0908852 34.0731964s7.1990318-1.5794754 15.9902458 3.2044487c0 0-9.9334336-2.0430641-15.9902458-3.2044487z" fill="#41a38e"/></svg>