<svg enable-background="new 0 0 110 110" height="512" viewBox="0 0 110 110" width="512" xmlns="http://www.w3.org/2000/svg"><g enable-background="new"><path d="m87.4299927 38.3607407c-5.4500122-6.4902344-11.3300171-11.550293-17.2200317-14.9501953-5.8800049-3.3999023-11.7699585-5.1298828-17.25-4.949707-2.7000122.0800781-5.3200073.6196289-7.5199585 1.8999023l-30.2700205 17.5898437 53.5499878 53.25 30.2700195-17.5898438c1.0700073-.6201172 1.7600098-2.1401367 1.7699585-5.090332.04004-11.2099609-6.3699942-21.8896484-13.3299551-30.1596679z" fill="#bb9b45"/><path d="m57.1577415 55.9491577c6.9590187 8.2724762 13.37286 18.9510727 13.3301048 30.1629791-.029213 7.3657455-4.2870407 5.8154068-8.0800438 3.6255112-1.2372742-.7143402-2.4253998-1.4970551-3.4007454-2.060173l-19.1691474-11.0673142-19.1690922-11.067276c-.9742546-.5624847-2.1616783-1.1512985-3.3989506-1.8656349-3.7916794-2.1891289-8.0467091-5.5542068-8.029952-12.9266243.0208349-11.2245598 6.4686594-14.4774704 13.4517984-14.7004395 5.472229-.1769295 11.3620358 1.555481 17.2471409 4.9532509 5.8851624 3.3978005 11.7655449 8.4609108 17.2188873 14.9457207zm5.2574921 30.987999c4.3000298 2.4826202 5.6200142 1.9631348 5.631916-2.2341614.034584-8.3380356-4.016037-17.3996506-12.0373039-26.9356079-5.0755501-6.0363693-10.4844894-10.7310562-16.0789375-13.9610138-5.5943756-3.2299156-11.012249-4.7860909-16.0999165-4.6174583-8.0490141.2577782-12.1376905 4.620163-12.1558819 12.9676704-.0063953 4.20047 1.3008299 6.2367783 5.6063461 8.7225723.6252613.3609924 1.2341042.6871681 1.8100777.9945259.5650043.3008652 1.1025696.5924034 1.5852165.8710632l38.3382378 22.134594c.4881516.2818298 1.0200882.6077728 1.590435.9624023.5757905.3576127 1.1845475.7344132 1.8098107 1.0954133" fill="#d6b24e"/><path d="m39.930912 43.8063812c5.5944519 3.2299576 11.0033875 7.9246407 16.0789452 13.9610138 8.0212708 9.5359802 12.0718918 18.5975876 12.0373001 26.9356232-.0118942 4.1973038-1.3318787 4.7167892-5.6319199 2.2341537-.6252594-.3609924-1.234005-.737793-1.8097992-1.0953979-.5703583-.3546448-1.1022797-.6805878-1.590435-.9624252l-38.3382378-22.1345902c-.4826508-.2786598-1.0202179-.5701866-1.5852184-.8710442-.5759716-.3073654-1.184824-.6335449-1.8100834-.9945374-4.3055086-2.4857864-5.612731-4.5220909-5.6063366-8.7225723.0181885-8.3474998 4.1068687-12.7098808 12.1558704-12.9676857 5.0876713-.1686248 10.505539 1.3875466 16.0999146 4.6174622z" fill="#fed35b"/></g><g fill="#bb9b45"><path d="m27.5485268 46.7005539c-.8174267-.4117661-1.740818-.2279892-2.0624657.4105415-.3215923.6384163.0802917 1.4899178.8977203 1.9016838.817461.4117813 1.7409077.2278938 2.0625-.4105225.3216477-.6385268-.0802917-1.4899215-.8977546-1.9017028z"/><path d="m36.3650703 55.9526939c-.6878128-.3464737-1.4647865-.1918373-1.7354317.3454437-.2705994.5371857.0675621 1.2536697.7553711 1.6001434.6878433.346489 1.4648628.1917572 1.7354622-.3454285.2706452-.5372809-.067562-1.2536734-.7554016-1.6001586z"/><path d="m59.5049934 73.5565948c-.687809-.3464737-1.4647827-.1918335-1.7354279.3454437-.2705994.5371933.0675583 1.2536697.7553711 1.6001434.6878395.346489 1.464859.1917648 1.7354584-.3454285.2706452-.5372771-.0675582-1.2536696-.7554016-1.6001586z"/><path d="m46.3134232 54.9763718c-.687809-.3464737-1.4647827-.1918373-1.7354279.3454437-.2705994.5371857.0675621 1.2536697.7553711 1.6001434.6878433.346489 1.464859.1917572 1.7354584-.3454285.2706451-.537281-.0675583-1.2536697-.7554016-1.6001586z"/><path d="m24.282608 55.8298378c-.5531139-.2786255-1.1779289-.1542702-1.3955727.2777939-.2176075.4319839.0543308 1.0081558.6074448 1.2867775.5531387.2786369 1.17799.1542091 1.3955975-.2777786.2176437-.4320641-.0543308-1.0081597-.6074696-1.2867928z"/><path d="m37.389946 46.5695686c-1.4070892-.7087975-2.9965782-.3924484-3.550251.7066879-.5535774 1.0989494.1382141 2.5646935 1.5452995 3.2734909 1.4071503.708828 2.9967346.3922882 3.550312-.7066612.553669-1.0991363-.1382141-2.5646896-1.5453605-3.2735176z"/><path d="m49.5644989 63.4170227c-1.4070892-.7087975-2.9965782-.3924484-3.550251.7066879-.5535774 1.0989456.1382141 2.5646896 1.5452995 3.2734909 1.4071503.7088242 2.9967346.3922882 3.550312-.706665.553669-1.0991364-.138214-2.5646896-1.5453605-3.2735138z"/></g></svg>