<svg enable-background="new 0 0 110 110" height="512" viewBox="0 0 110 110" width="512" xmlns="http://www.w3.org/2000/svg"><path d="m67.9678497 35.9020576c3.6178894-5.1413937 2.4007339-12.1491051 3.9187775-18.2498131.1443176-.5799675.3343658-1.1863327.7830505-1.581131.9736786-.8567286 2.4912415-.2673206 3.5991669.4068699 2.7197495 1.6550121 5.4137115 3.9326229 5.9932785 7.0631542.3541412 1.9129047-.0369568 4.1829147 1.3458328 5.5513134 1.7753677 1.7568874 4.8018646.5014324 7.225914 1.1035423 1.6710968.4150829 3.0506516 1.8328075 3.4199829 3.5146046s-.2892532 3.5471077-1.6326599 4.6241875c-1.2160873.9750023-2.8233109 1.2745323-4.3587646 1.5426598-1.5350723.2680664-3.070137.536129-4.6052094.8041954-1.9241104.3360023-3.8876953.6854668-5.6017303 1.6220474-4.1534424 2.2695198-5.9686813 7.4479294-9.9658279 9.9826088" fill="#cd5248"/><path d="m35.9020576 67.9678497c-5.1413937 3.6178894-12.1491051 2.4007339-18.2498131 3.9187775-.5799675.1443176-1.1863327.3343658-1.581131.7830505-.8567286.9736786-.2673206 2.4912415.4068699 3.5991669 1.6550121 2.7197495 3.9326229 5.4137115 7.0631542 5.9932785 1.9129047.3541412 4.1829147-.0369568 5.5513134 1.3458328 1.7568874 1.7753677.5014324 4.8018646 1.1035423 7.225914.4150829 1.6710968 1.8328075 3.0506516 3.5146046 3.4199829s3.5471077-.2892532 4.6241875-1.6326599c.9750023-1.2160873 1.2745323-2.8233109 1.5426598-4.3587646.2680664-1.5350723.536129-3.070137.8041954-4.6052094.3360023-1.9241104.6854668-3.8876953 1.6220474-5.6017303 2.2695198-4.1534424 7.4479294-5.9686813 9.9826088-9.9658279" fill="#cd5248"/><path d="m73.9535217 39.2781906c-.6135941.2010422-1.2401352.4089699-1.7523193.8021774-.0625839.0482635-.1157379.1041718-.1737747.1561508.1412125-.3406029.2841415-.6807251.417305-1.0248375.4616394-1.1909103.8775635-2.4060555 1.1054611-3.6628532.2668686-1.4742279.2709961-2.9815063.2738876-4.4798317.0035782-1.7138271.0009613-3.4666252-.568428-5.0833759.1484375 1.7457752-.2557144 3.48563-.6568375 5.1910591-.5155487 2.1910992-1.0308304 4.3824787-1.5464478 6.5736485-.4627457 1.9675407-1.0325546 4.1027336-2.6612854 5.299633l1.2600327 2.1340256c.1702728-.3079681.3318634-.6204834.4953842-.9321709-.3437729.9474564-.7904739 1.7956924-1.6517258 2.2746887l2.4592056-1.3195915c2.5323181-2.5857544 5.1288147-5.2191505 8.3667908-6.8361053 1.7585068-.8777771 3.6766891-1.4343643 5.6319733-1.6336861-3.7710113.1775665-7.412178 1.3643417-10.9992218 2.541069z" fill="#a64139"/><path d="m37.484726 75.7469864c.2010422-.6135941.4089699-1.2401352.8021774-1.7523193.0482635-.0625839.1041718-.1157379.1561508-.1737747-.3406029.1412125-.6807251.2841415-1.0248413.417305-1.1909065.4616394-2.4060516.8775635-3.6628494 1.1054611-1.4742279.2668686-2.9815044.2709961-4.4798317.2738876-1.713829.0035782-3.4666271.0009613-5.0833759-.568428 1.7457752.1484375 3.48563-.2557144 5.1910591-.6568375 2.1911011-.5155487 4.3824749-1.0308304 6.5736446-1.5464478 1.9675446-.4627457 4.1027374-1.0325546 5.2996368-2.6612854l2.1340256 1.2600327c-.307972.1702728-.6204834.3318634-.9321709.4953842.9474525-.3437729 1.7956924-.7904739 2.2746887-1.6517258l-1.3195915 2.4592056c-2.5857544 2.5323257-5.2191505 5.1288147-6.8361053 8.3667908-.8777771 1.7585144-1.4343643 3.6766891-1.6336861 5.6319733.1775665-3.7710114 1.3643418-7.412178 2.5410691-10.9992218z" fill="#a64139"/><path d="m58.6586838 34.0497894-26.2549973 26.2549973c-2.2152672 2.2152672-2.2152672 5.8070602.0000687 8.0223999l11.5239334 11.5239334c2.2153397 2.2153397 5.8071365 2.2153397 8.0224037.0000687l26.2549934-26.2549973c2.2153397-2.2153358 2.215271-5.8070641-.0000687-8.0223999l-11.5239333-11.5239334c-2.2153321-2.2153378-5.8070641-2.2154064-8.0223999-.0000687z" fill="#dd584d"/><g fill="#ededed"><ellipse cx="61.446" cy="40.353" rx="2.768" ry="2.768" transform="matrix(.707 -.707 .707 .707 -10.537 55.268)"/><ellipse cx="72.391" cy="48.391" rx="2.274" ry="2.274" transform="matrix(.707 -.707 .707 .707 -13.015 65.361)"/><ellipse cx="50.988" cy="51.371" rx="1.779" ry="1.779" transform="matrix(.707 -.707 .707 .707 -21.391 51.1)"/><ellipse cx="54.182" cy="61.536" rx="1.779" ry="1.779" transform="matrix(.707 -.707 .707 .707 -27.643 56.336)"/><ellipse cx="63.295" cy="62.426" rx="1.219" ry="1.219" transform="matrix(.707 -.707 .707 .707 -25.603 63.04)"/><ellipse cx="52.041" cy="73.137" rx="1.219" ry="1.219" transform="matrix(.707 -.707 .707 .707 -36.473 58.22)"/><ellipse cx="44.162" cy="73.404" rx="1.219" ry="1.219" transform="matrix(.707 -.707 .707 .707 -38.97 52.727)"/><ellipse cx="62.48" cy="52.011" rx="3.954" ry="3.954" transform="matrix(.707 -.707 .707 .707 -18.477 59.414)"/><ellipse cx="41.74" cy="63.134" rx="3.954" ry="3.954" transform="matrix(.707 -.707 .707 .707 -32.417 48.006)"/></g></svg>