<svg enable-background="new 0 0 110 110" height="512" viewBox="0 0 110 110" width="512" xmlns="http://www.w3.org/2000/svg"><path d="m70.5447311 93.40448v-35.6936684c0-.8116875-.191452-1.6039734-.5266724-2.3432617-3.0141068-6.6481171-4.4784775-15.0138588-5.6188889-19.8039207-1.2050323-5.0610828-2.8920593-21.9313545-2.8920593-21.9313545l-6.5070724-3.9366398-6.5071449 3.9366398s-1.687027 16.8702698-2.8919868 21.9313545c-1.1404877 4.790062-2.6048546 13.1558037-5.6189613 19.8039207-.3352203.7392883-.5266685 1.5315742-.5266685 2.3432617v35.6936684s-.4819984 6.8685913 2.1690254 8.5556183c2.6510925 1.687027 13.3757362 1.9279938 13.3757362 1.9279938s10.7246399-.2409668 13.3756638-1.9279938 2.1690291-8.5556183 2.1690291-8.5556183z" fill="#dd584d"/><path d="m70.5447235 93.4044952v-35.6936683c0-.6081467-.1075745-1.2056427-.3025055-1.777729h-30.4844436c-.1949272.5720863-.3025017 1.1695824-.3025017 1.777729v35.6936684s-.4819984 6.8685913 2.1690254 8.5556183c2.6510887 1.687027 13.3757324 1.9279938 13.3757324 1.9279938s10.7246475-.2409668 13.3756638-1.9279938c2.6510238-1.6870271 2.1690292-8.5556184 2.1690292-8.5556184z" fill="#cd5248"/><path d="m61.1110306 6.7016859c-3.8946419-.7958398-7.9583282-.7862778-12.1911964.028686-1.0592041.2038093-1.8393364 1.1111159-1.8393364 2.1897206v3.8843966c0 .4570684.370533.8278046.8276672.8278046h14.1836624c.4571381 0 .8277359-.3707361.8277359-.8278046v-3.9155416c0-1.067677-.7624397-1.9736171-1.8085327-2.1872616z" fill="#ededed"/><path d="m66.5408707 61.5241928h-23.0817452c-1.0084572 0-1.8260193.8176956-1.8260193 1.826088v31.4120331c0 1.0083923.8175621 1.8258133 1.8260193 1.8258133h23.0817451c1.0084534 0 1.8260193-.817421 1.8260193-1.8258133v-31.4120331c.0000001-1.0083924-.8175659-1.826088-1.8260192-1.826088z" fill="#ededed"/><path d="m62.2397156 79.7878876c-.6793518 1.421669-4.8086128 5.2039108-9.1497383 6.3760605-4.2715073 1.4926453-8.7548676.3752518-8.5333748-.600441-.0012016-.9719391 3.6147957-2.0064545 6.282074-4.1300735 2.8404808-1.9460297 4.7322197-4.9812546 5.2840042-5.8514481 1.2049103-1.698288 3.2722893-2.8397751 5.0835114-1.8648071 1.9283713 1.0380401 2.9672164 3.2574691 1.0335235 6.0707092z" fill="#de594e"/><path d="m62.8857574 78.5847778c-.6798248 1.4213943-4.8084145 5.2034225-9.1490211 6.3757858-3.7714157 1.3182449-7.7062569.6014481-8.4249229-.2546463-.4685135.3056183-.7542496.583847-.754612.8564453-.2216454.976387 4.2600861 2.0936737 8.5320587.6006622 4.3412323-1.1701279 8.4720612-4.9527893 9.151268-6.3764191.3061066-.445549.5372353-.8748016.7029381-1.2880249-.0182724.0292817-.0394173.0569383-.0577088.086197z" fill="#a64139"/><path d="m65.4327011 72.8222885v-.000061c-.0454025-.1611023-.1687317-.2893753-.3292618-.3369675-.6877365-.2040939-2.6145973-.5812759-4.1954842.9490662-.3728867-.1606674-.9992256-.3404236-1.7067184-.1680832-.5870514.1430054-2.0156708.7198639-2.6524315 1.2815247-.0509491.0449371-.0125084.128952.0550842.1220016.4774208-.0491104 1.695446-.1869583 2.2968407-.3709412.6827087-.2088547.9455185-.0954437 1.3995895.0924072-.3326454.3494492-.7467346.9900208-1.1065865 2.1670914-.1988602.6504593-.8072548 1.3009186-1.2069054 1.6750717-.093647.0877228-.012352.2428284.1121941.2120972.7861137-.1939926 2.3184319-.6412277 2.891552-1.2937241.3616791-.4117737.6933632-.756958.9471092-1.0108414.2967377.7300262.7797012 1.1660767.5233307 1.9975891-.2335281.7574234.2646027 1.7325821.2646027 1.7325821.6039314-.5316696.612175-1.3945618.7686462-2.0308151.2796707-1.137291-.3520088-2.0675735-.3520088-2.0675735l-.2057953-.2968826c.01614-.2444305.1650887-1.7929306 1.3571358-1.9414062l.7263336-.0904617c.2988664-.0372163.4944535-.3317796.4127732-.6216737z" fill="#4abba4"/><path d="m45.072731 50.4510117-1.048008-.3934135c3.696434-9.8407631 5.7017441-31.2445602 5.7214127-31.4598446l1.1146698.1027241c-.0196724.2163772-2.0391846 21.7687987-5.7880745 31.750534z" fill="#ededed"/></svg>