<svg enable-background="new 0 0 110 110" height="512" viewBox="0 0 110 110" width="512" xmlns="http://www.w3.org/2000/svg"><path d="m22.5068264 92.9882278h64.9863434c-3.1115341-25.3258133-3.1169586-50.6508293-.017189-75.9763794h-64.9519616c3.0995007 25.3258133 3.0940781 50.6508332-.0171928 75.9763794z" fill="#fed35b"/><path d="m86.6406784 24.6827602c.2496948-2.5569954.5223999-5.1139908.8353119-7.6709862h-64.9519615c.3129139 2.5569954.5856209 5.1139908.8352489 7.6709862z" fill="#dbd8dd"/><path d="m86.6406784 85.3172379c.2496948 2.5569992.5223999 5.1139908.8353119 7.67099h-64.9519615c.3129139-2.5569992.5856209-5.1139908.8352489-7.67099z" fill="#dbd8dd"/><circle cx="55" cy="55" fill="#ededed" r="18.086"/><path d="m41.5222435 53.101902-.4369736 10.9619408 10.92622-7.7481766z" fill="#feda6f"/><path d="m63.8152008 57.3363304-.3148842 7.8991966 7.8734551-5.5833511z" fill="#feda6f"/><path d="m47.7470665 52.2001724 2.8570175 10.5921021 8.1133156-10.6578942z" fill="#fed35b"/><path d="m51.2200623 61.9817734-.6174927.8125648-2.8602524-10.5959091h.8449707z" fill="#d6b24e"/><path d="m63.1482658 60.1188354-9.5099678-5.469532 1.7992897 13.2732506z" fill="#fed35b"/><path d="m53.7758484 55.6579781-.1379395-1.0112038 9.514946 5.4699364-.5974846.5974846z" fill="#d6b24e"/><path d="m47.1092224 63.8512764 1.7966347 6.6608391 5.1020546-6.7022133z" fill="#fed35b"/><path d="m49.2932167 70.0024338-.3883133.5109787-1.7986679-6.6632309h.5313606z" fill="#d6b24e"/><path d="m42.3945236 45.9762001 1.7966347 6.6608391 5.1020584-6.7022133z" fill="#fed35b"/><path d="m44.5785179 52.1273537-.3883095.5109825-1.7986717-6.6632309h.5313606z" fill="#d6b24e"/><path d="m59.0726395 39.848938-1.717968 6.6815643 7.7417869-3.318943z" fill="#fed35b"/><path d="m57.9428596 46.2777901-.5896568.2533722 1.7173767-6.6846505.4624062.261776z" fill="#d6b24e"/><path d="m68.9801102 54.9041138-3.2645188-10.4736862-7.6950645 10.9636955z" fill="#fed35b"/><path d="m65.1314163 45.2641449.5856018-.8358383 3.2679062 10.4773636-.8443374.0326805z" fill="#d6b24e"/><path d="m52.6803703 41.3437233-4.9812469 9.7745781 13.165184-2.468708z" fill="#fed35b"/><path d="m48.699543 50.929882-1.0029297.1889344 4.9814034-9.7795716.6269531.5664826z" fill="#d6b24e"/></svg>