<svg enable-background="new 0 0 110 110" height="512" viewBox="0 0 110 110" width="512" xmlns="http://www.w3.org/2000/svg"><ellipse cx="63.55" cy="68.238" fill="#d6683d" rx="10.024" ry="10.024" transform="matrix(.707 -.707 .707 .707 -29.638 64.923)"/><path d="m59.4254723 75.2712479s3.9347229-2.264595 2.8731155-5.7146454c-3.4500465-1.0616074-5.7146683 2.8730927-5.7146683 2.8730927.7812386-4.3111115-2.5576439-8.7380791-2.5576439-8.7380791-.1906662 1.5960579-.5877304 3.4899483-.9860916 5.1563606-.6350327 2.656456-1.8681679 5.1298447-3.6058083 7.2371216l-12.8631439 15.5994568c-.782196 1.001152-.6949234 2.4283524.2034111 3.326683.899231.899231 2.3282585.9856339 3.3293228.2013321l15.5450211-12.8463745c2.1988945-1.8171692 4.796032-3.0819931 7.58218-3.6940384 1.4933586-.3280563 3.2136116-.6479568 4.9323769-.8432693 0-.0000001-4.4269638-3.3388825-8.7380714-2.5576401z" fill="#304551"/><ellipse cx="40.708" cy="55.04" fill="#d6683d" rx="10.024" ry="10.024" transform="matrix(.843 -.538 .538 .843 -23.229 30.575)"/><path d="m46.2495728 49.0589409s-4.3298378 1.3649101-4.03545 4.9625702c3.1408043 1.7790947 6.1990204-1.5761528 6.1990204-1.5761528-1.6905708 4.0420227.6175423 9.0837288.6175423 9.0837288.5296249-1.5176468 1.3249054-3.2817345 2.0724983-4.8234024 1.1917534-2.4575882 2.9282074-4.6077003 5.0785713-6.291729l15.9184113-12.4662704c.9792862-.809391 1.2011566-2.2219391.5171585-3.2925262-.6846771-1.0716591-2.0616455-1.4635239-3.2080154-.9129944l-17.9450798 9.2006149c-2.5383911 1.3014565-5.3468475 1.9778252-8.1994286 1.9760361-1.5289688-.0009613-3.2777596-.0586967-4.9982948-.2377968-.0000001-.0000001 3.6048392 4.2132339 7.9830665 4.377922z" fill="#304551"/><ellipse cx="85.602" cy="76.064" fill="#d6683d" rx="10.024" ry="10.024" transform="matrix(.975 -.224 .224 .975 -14.872 21.123)"/><path d="m81.8294983 68.8364868s-.1683273 4.5367508 3.3192825 5.4675674c2.7304764-2.3609924.597023-6.3683319.597023-6.3683319 3.2396164 2.9497299 8.7636337 2.4686737 8.7636337 2.4686737-1.2516708-1.0084991-2.6462631-2.3499908-3.8473663-3.5718689-1.9146881-1.9478226-3.3568344-4.3054581-4.2209702-6.8964615l-6.396904-19.1802788c-.4335403-1.1942253-1.6895599-1.8775444-2.9276733-1.5927773-1.2393494.2850533-2.0708466 1.45047-1.9372406 2.7151489l2.6403122 19.9926416c.3734818 2.8280296.067482 5.7005272-.8921127 8.3868599-.5143356 1.4398651-1.1559753 3.0677185-1.9024353 4.6282043 0 .0000001 5.1790924-1.9806899 6.804451-6.0493774z" fill="#304551"/><ellipse cx="24.948" cy="76.064" fill="#d6683d" rx="10.024" ry="10.024" transform="matrix(.975 -.224 .224 .975 -16.415 7.528)"/><path d="m21.1756001 68.8364868s-.1683292 4.5367508 3.3192787 5.4675674c2.7304821-2.3609924.5970287-6.3683319.5970287-6.3683319 3.2396126 2.9497299 8.7636299 2.4686737 8.7636299 2.4686737-1.2516708-1.0084991-2.6462631-2.3499908-3.8473625-3.5718689-1.9146862-1.9478226-3.3568363-4.3054581-4.220974-6.8964615l-6.3969021-19.1802788c-.4335423-1.1942253-1.6895618-1.8775444-2.9276714-1.5927773-1.2393484.2850533-2.0708475 1.45047-1.9372444 2.7151489l2.640316 19.9926416c.3734798 2.8280296.0674782 5.7005272-.8921165 8.3868599-.5143366 1.4398651-1.1559734 3.0677185-1.9024343 4.6282043-.0000001.0000001 5.1790971-1.9806899 6.8044519-6.0493774z" fill="#304551"/><ellipse cx="53.927" cy="24.279" fill="#d6683d" rx="10.024" ry="10.024" transform="matrix(.96 -.279 .279 .96 -4.631 16)"/><path d="m46.9234543 28.4542122s4.5390167-.0882435 5.2713165-3.6228676c-2.5114822-2.5927372-6.3918915-.2362976-6.3918915-.2362976 2.7619972-3.4010811 1.9696312-8.8890982 1.9696312-8.8890982-.9361801 1.3066435-2.1967392 2.7747984-3.3488121 4.0430079-1.8365364 2.0216713-4.1089363 3.5947132-6.6469803 4.6038475l-18.7882557 7.4702721c-1.1678238.5003185-1.7790947 1.7929363-1.4248333 3.0129795.3546143 1.2212677 1.5651436 1.9855957 2.8202553 1.7807579l19.8115463-3.7655792c2.8024101-.5326538 5.6876144-.3894196 8.4238701.4168777 1.4666176.4321709 3.1281204.9808159 4.7282829 1.637928.0000001 0-2.2701148-5.0589275-6.4241294-6.451828z" fill="#304551"/></svg>