<svg enable-background="new 0 0 110 110" height="512" viewBox="0 0 110 110" width="512" xmlns="http://www.w3.org/2000/svg"><ellipse cx="54.883" cy="46.311" fill="#d6683d" rx="35.39" ry="28.617"/><path d="m87.519989 36.032032c-3.9899902 0-7.3699951 2.9399414-7.9199829 6.8999023l-.3099976 2.2099609c.6699829-4.8198242-3.0700073-9.1098633-7.9299927-9.1098633h-.2000122c-4.2799683 0-7.7999878 3.3598633-7.9899902 7.6298828l-.0441284.0390625c-.171814-4.2421875-3.6622314-7.6689453-7.9859009-7.6689453h-.2799683c-4.4299927 0-8 3.6000977-8 7.9897461l-.0200195-.3598633c-.2000122-4.2700195-3.7199707-7.6298828-8-7.6298828h-.2000122c-4.8599854 0-8.5999756 4.2900391-7.9299927 9.1098633l-.3099976-2.2099609c-.5499878-3.9599609-3.9299927-6.8999023-7.9199829-6.8999023-5.1500244 0-8.960022 4.7998047-7.7999878 9.8100586l9.6499634 41.5297813c.6700439 2.8901367 3.2399902 4.9301758 6.210022 4.9301758h30.3699951 18.5499878c2.9700317 0 5.5400391-2.0400391 6.210022-4.9301758l9.6499634-41.5297813c1.1600342-5.0102539-2.6499634-9.8100586-7.7999878-9.8100586z" fill="#ededed"/><path d="m49.0952797 92.3051453h-11.8100929l-6.5735722-47.1664925c-.6706867-4.812294 3.0669384-9.1069565 7.925745-9.1069565h.2044334c4.2751884 0 7.7953339 3.3604088 7.9937286 7.6309891z" fill="#feda6f"/><path d="m72.7154694 92.3051453h-11.810093l2.259758-48.6424599c.1983986-4.2705803 3.7185402-7.6309891 7.9937325-7.6309891h.2044296c4.8588104 0 8.5964355 4.2946625 7.9257431 9.1069565z" fill="#feda6f"/><g fill="#963e25"><path d="m60.0735588 20.3977547c-1.8700638-.3110714-3.5501671.4237823-3.752655 1.6410923-.2025337 1.2175636 1.1492043 2.4567394 3.019268 2.7678108 1.8700676.3110695 3.5502319-.4237728 3.7527618-1.6413364.2024918-1.21731-1.1493072-2.4564953-3.0193748-2.7675667z"/><path d="m51.3884544 26.8143921c-1.8458328-.4322319-3.5702324.1916161-3.851593 1.3931484-.2814178 1.2017841.9867249 2.5263844 2.8325539 2.9586143 1.8458328.4322319 3.5702972-.1916008 3.8517113-1.3933849.2813606-1.2015323-.9868432-2.5261459-2.8326722-2.9583778z"/><path d="m45.6627159 21.029314c-1.3343086 0-2.4159317.7042446-2.4159317 1.5728054 0 .8687439 1.0816231 1.5729885 2.4159317 1.5729885 1.3343124 0 2.4159775-.7042446 2.4159775-1.5729885 0-.8685607-1.081665-1.5728054-2.4159775-1.5728054z"/><path d="m34.3170662 27.517477c-1.2494011.4683819-2.0149841 1.5074921-1.7100945 2.3207836.3049583.8134594 1.5649605 1.0932083 2.8143616.6248264 1.2494011-.4683838 2.0150223-1.5075092 1.7100677-2.3209705-.3048896-.8132896-1.5649337-1.0930233-2.8143348-.6246395z"/><path d="m72.083313 25.2684307c-1.1035919-.3371105-2.1761093-.0279102-2.395546.690464-.2194901.7185249.4971771 1.5742645 1.600769 1.9113731 1.1035843.3371105 2.1761398.0279217 2.3956299-.6906033.2194367-.7183741-.4972686-1.5741233-1.6008529-1.9112338z"/></g></svg>