<svg enable-background="new 0 0 110 110" height="512" viewBox="0 0 110 110" width="512" xmlns="http://www.w3.org/2000/svg"><path d="m78.604187 36.1170006c-.9278412-2.6995125-3.5092239-4.5400448-6.3599777-4.39254-3.327095.1721401-6.4223785 1.8329582-6.4223785 1.8329582-5.8344765-3.375349-10.0576019-.6600876-10.8217812-.102375-.7641792-.5577126-4.9874039-3.272974-10.8218803.102375 0 0-3.0951843-1.6608181-6.4223747-1.8329582-2.8506546-.1475048-5.4320412 1.6930275-6.3598804 4.39254l-9.3687382 32.0716896 32.8366776 5.1382828.2722931-1.3910217 32.8366776-3.747261z" fill="#feda6f"/><g fill="#fed35b"><path d="m65.8218307 33.5574188 9.0544739 35.9194641h-6.1508865z"/><path d="m44.2527504 33.5574188-9.0544701 35.9194641h6.1508828z"/><path d="m55.0000496 33.4550438-2.9353104 34.7336464h6.3024636z"/></g><path d="m102.717598 68.1886902h-95.4353104c-1.16818 0-1.5798545 1.5483856-.5659761 2.1285095l12.1236029 6.9382095c1.1774502.6739273 2.5105438 1.0283966 3.867178 1.0283966h64.585701c1.3567581 0 2.6898499-.3544693 3.867424-1.0283966l12.1234818-6.9380875c1.0138777-.5802459.6022032-2.1286315-.5661012-2.1286315z" fill="#ededed"/></svg>