<svg enable-background="new 0 0 110 110" height="512" viewBox="0 0 110 110" width="512" xmlns="http://www.w3.org/2000/svg"><path d="m45.1941833 43.5691528h21.7570343l-1.2735825 17.0242844s-17.1933632-.6367912-17.1933632-1.3797112c.0000001-.7429237-3.2900886-15.6445732-3.2900886-15.6445732z" fill="#cd5248"/><path d="m40.253338 11.140714h7.537269v60.15073h-7.537269z" fill="#fed35b"/><path d="m51.52805 9.210104h7.537269v60.15073h-7.537269z" fill="#fed35b" transform="matrix(.984 .179 -.179 .984 7.903 -9.242)"/><path d="m61.199684 14.274438h7.537269v60.15073h-7.537269z" fill="#d6b24e" transform="matrix(1 .027 -.027 1 1.222 -1.739)"/><path d="m50.475933 16.104612h7.537269v60.15073h-7.537269z" fill="#d6b24e" transform="matrix(.992 -.127 .127 .992 -5.416 7.248)"/><path d="m69.93486 19.662405h7.537269v43.107349h-7.537269z" fill="#fed35b" transform="matrix(.984 .179 -.179 .984 8.544 -12.498)"/><path d="m57.170738 22.015478h7.537269v43.107349h-7.537269z" fill="#bb9b45" transform="matrix(.984 .179 -.179 .984 8.759 -10.181)"/><path d="m45.529732 27.605028h7.537269v43.107349h-7.537269z" fill="#bb9b45" transform="matrix(.952 -.306 .306 .952 -12.69 17.467)"/><path d="m32.675228 20.253256h7.537269v43.107349h-7.537269z" fill="#d6b24e" transform="matrix(.983 -.186 .186 .983 -7.127 7.491)"/><path d="m79.1304855 43.5691528h-15.277111c0 4.7235413-3.8331146 8.5567207-8.5567207 8.5567207-4.7235413 0-8.5567207-3.8331795-8.5567207-8.5567207h-15.2770482c-1.1400261 0-2.030653.984539-1.9167233 2.1187973l5.118351 53.1244965c.1236076 1.2303619 1.1591148 2.1670456 2.3956375 2.1670456h36.4730682c1.2365265 0 2.271965-.9366837 2.3955688-2.1669769l5.1184235-53.1245651c.1139298-1.1342583-.7766952-2.1187974-1.9167251-2.1187974z" fill="#de594e"/><ellipse cx="55" cy="73.777" fill="#ededed" rx="11.465" ry="8.177"/></svg>