<svg enable-background="new 0 0 110 110" height="512" viewBox="0 0 110 110" width="512" xmlns="http://www.w3.org/2000/svg"><path d="m73.375267 11.431551h-14.079113c-1.1524696 0-2.0866928.9343548-2.0866928 2.0866089v10.0192032h18.2525063v-10.0192032c0-1.1522541-.9342728-2.0866089-2.0867005-2.0866089z" fill="#4288b9"/><path d="m78.1536789 20.812397h-46.3074036c-3.0166473 0-5.4620934 2.4457073-5.4620934 5.4621372v66.8321228c0 3.0164337 2.445446 5.461792 5.4620934 5.461792h46.3074036c3.0166473 0 5.4621353-2.4453583 5.4621353-5.461792v-66.8321228c0-3.0164299-2.445488-5.4621372-5.4621353-5.4621372z" fill="#dbd8dd"/><path d="m26.384182 42.972351h57.231636v37.117741h-57.231636z" fill="#304551"/><path d="m54.3331146 56.1035461c-.0134315-.273941-.2878685-6.7214813 3.0002403-7.517765l.2397804.9902954c-2.0568695.4981346-2.3016243 4.845356-2.2225266 6.4783859z" fill="#4abba4"/><path d="m55.361702 70.0982895c-1.645874 0-2.9801178 1.4386902-2.9801178 3.2133331s1.3342438 3.2132568 2.9801178 3.2132568c1.6458931 0 2.9801369-1.4386139 2.9801369-3.2132568s-1.3342438-3.2133331-2.9801369-3.2133331z" fill="#ededed"/><path d="m57.8219299 75.1238861c-.5378151.8470306-1.4386444 1.4009933-2.4604912 1.4009933-1.64571 0-2.979496-1.4386749-2.979496-3.2134247 0-1.2154617.6265602-2.2750092 1.5516014-2.8208313-.3280754.5162811-.5190048 1.1401596-.5190048 1.8124313 0 1.7747498 1.333786 3.2134247 2.979496 3.2134247.5162964.0000001 1.0030175-.1425246 1.4278946-.3925933z" fill="#dbd8dd"/><path d="m48.852169 57.4990654c-1.645874 0-2.9801216 1.4386864-2.9801216 3.2133331 0 1.7746429 1.3342476 3.2132607 2.9801216 3.2132607 1.6458893 0 2.9801369-1.4386177 2.9801369-3.2132607 0-1.7746467-1.3342476-3.2133331-2.9801369-3.2133331z" fill="#ededed"/><path d="m51.312397 62.524662c-.5378151.8470306-1.4386482 1.4009972-2.4604912 1.4009972-1.64571 0-2.979496-1.4386787-2.979496-3.2134285 0-1.2154655.6265564-2.2750092 1.5515976-2.8208313-.3280754.5162811-.5190048 1.1401634-.5190048 1.8124313 0 1.7747459 1.333786 3.2134247 2.979496 3.2134247.5162964 0 1.0030212-.1425285 1.4278984-.3925934z" fill="#dbd8dd"/><path d="m52.3815727 57.4990654c-1.645874 0-2.9801178 1.4386864-2.9801178 3.2133331 0 1.7746429 1.3342438 3.2132607 2.9801178 3.2132607 1.6458931 0 2.9801369-1.4386177 2.9801369-3.2132607 0-1.7746467-1.3342438-3.2133331-2.9801369-3.2133331z" fill="#ededed"/><path d="m54.8418045 62.524662c-.5378151.8470306-1.4386482 1.4009972-2.4604912 1.4009972-1.6457138 0-2.979496-1.4386787-2.979496-3.2134285 0-1.2154655.6265564-2.2750092 1.5515976-2.8208313-.3280754.5162811-.5190048 1.1401634-.5190048 1.8124313 0 1.7747459 1.333786 3.2134247 2.979496 3.2134247.5162964 0 1.0030174-.1425285 1.4278984-.3925934z" fill="#dbd8dd"/><path d="m50.4249916 62.8414726c-1.645874 0-2.9801216 1.4386864-2.9801216 3.2133293s1.3342476 3.2132645 2.9801216 3.2132645c1.6458893 0 2.9801369-1.4386215 2.9801369-3.2132645s-1.3342476-3.2133293-2.9801369-3.2133293z" fill="#ededed"/><path d="m52.8852196 67.8670654c-.5378151.8470383-1.4386482 1.401001-2.4604912 1.401001-1.64571 0-2.979496-1.4386826-2.979496-3.2134323 0-1.2154617.6265602-2.2750053 1.5516014-2.8208313-.3280754.5162811-.5190048 1.1401672-.5190048 1.8124313 0 1.7747498 1.3337822 3.2134323 2.979496 3.2134323.5162964 0 1.0030174-.1425323 1.4278946-.392601z" fill="#dbd8dd"/><path d="m52.3815727 54.6781006c-1.645874 0-2.9801178 1.4386864-2.9801178 3.2133331 0 1.7746429 1.3342438 3.2132607 2.9801178 3.2132607 1.6458931 0 2.9801369-1.4386177 2.9801369-3.2132607 0-1.7746467-1.3342438-3.2133331-2.9801369-3.2133331z" fill="#ededed"/><path d="m54.8418045 59.7036972c-.5378151.8470306-1.4386482 1.4009972-2.4604912 1.4009972-1.6457138 0-2.979496-1.4386787-2.979496-3.2134285 0-1.2154655.6265564-2.2750092 1.5515976-2.8208313-.3280754.5162811-.5190048 1.1401634-.5190048 1.8124313 0 1.7747459 1.333786 3.2134247 2.979496 3.2134247.5162964 0 1.0030174-.1425285 1.4278984-.3925934z" fill="#dbd8dd"/><path d="m55.9109802 57.4990654c-1.645874 0-2.9801178 1.4386864-2.9801178 3.2133331 0 1.7746429 1.3342438 3.2132607 2.9801178 3.2132607 1.6458931 0 2.9801369-1.4386177 2.9801369-3.2132607 0-1.7746467-1.3342438-3.2133331-2.9801369-3.2133331z" fill="#ededed"/><path d="m58.3712082 62.524662c-.5378151.8470306-1.4386444 1.4009972-2.4604912 1.4009972-1.64571 0-2.979496-1.4386787-2.979496-3.2134285 0-1.2154655.6265602-2.2750092 1.5516014-2.8208313-.3280754.5162811-.5190048 1.1401634-.5190048 1.8124313 0 1.7747459 1.333786 3.2134247 2.979496 3.2134247.5162964 0 1.0030174-.1425285 1.4278946-.3925934z" fill="#dbd8dd"/><path d="m55.9109802 64.7103195c-1.645874 0-2.9801178 1.4386902-2.9801178 3.2133331s1.3342438 3.2132645 2.9801178 3.2132645c1.6458931 0 2.9801369-1.4386215 2.9801369-3.2132645s-1.3342438-3.2133331-2.9801369-3.2133331z" fill="#ededed"/><path d="m58.3712082 69.7359161c-.5378151.8470306-1.4386444 1.401001-2.4604912 1.401001-1.64571 0-2.979496-1.4386826-2.979496-3.2134323 0-1.2154617.6265602-2.2750092 1.5516014-2.8208313-.3280754.5162811-.5190048 1.1401596-.5190048 1.8124313 0 1.7747498 1.333786 3.2134247 2.979496 3.2134247.5162964 0 1.0030174-.1425247 1.4278946-.3925934z" fill="#dbd8dd"/><path d="m60.433342 62.4491425c-1.645874 0-2.9801178 1.4386864-2.9801178 3.2133331 0 1.7746429 1.3342438 3.2132568 2.9801178 3.2132568 1.6458931 0 2.9801369-1.4386139 2.9801369-3.2132568 0-1.7746468-1.3342438-3.2133331-2.9801369-3.2133331z" fill="#ededed"/><path d="m62.8935699 67.4747391c-.5378151.8470306-1.4386444 1.4009933-2.4604912 1.4009933-1.64571 0-2.979496-1.4386826-2.979496-3.2134247 0-1.2154694.6265602-2.275013 1.5516014-2.8208351-.3280754.5162811-.5190048 1.1401634-.5190048 1.8124275 0 1.7747498 1.333786 3.2134323 2.979496 3.2134323.5162964.0000001 1.0030175-.1425323 1.4278946-.3925933z" fill="#dbd8dd"/><path d="m55.9109802 52.9924316c-1.645874 0-2.9801178 1.4386864-2.9801178 3.2133331 0 1.7746429 1.3342438 3.2132607 2.9801178 3.2132607 1.6458931 0 2.9801369-1.4386177 2.9801369-3.2132607 0-1.7746467-1.3342438-3.2133331-2.9801369-3.2133331z" fill="#ededed"/><path d="m58.3712082 58.0180283c-.5378151.8470306-1.4386444 1.4009972-2.4604912 1.4009972-1.64571 0-2.979496-1.4386826-2.979496-3.2134285 0-1.2154655.6265602-2.2750092 1.5516014-2.8208351-.3280754.5162811-.5190048 1.1401634-.5190048 1.8124313 0 1.7747498 1.333786 3.2134285 2.979496 3.2134285.5162964-.0000001 1.0030174-.1425286 1.4278946-.3925934z" fill="#dbd8dd"/><path d="m59.4403877 57.4990654c-1.645874 0-2.9801216 1.4386864-2.9801216 3.2133331 0 1.7746429 1.3342476 3.2132607 2.9801216 3.2132607 1.6458893 0 2.9801369-1.4386177 2.9801369-3.2132607 0-1.7746467-1.3342476-3.2133331-2.9801369-3.2133331z" fill="#ededed"/><path d="m61.9006157 62.524662c-.5378151.8470306-1.4386482 1.4009972-2.4604912 1.4009972-1.64571 0-2.979496-1.4386787-2.979496-3.2134285 0-1.2154655.6265602-2.2750092 1.5516014-2.8208313-.3280754.5162811-.5190048 1.1401634-.5190048 1.8124313 0 1.7747459 1.3337822 3.2134247 2.979496 3.2134247.5162964 0 1.0030174-.1425285 1.4278946-.3925934z" fill="#dbd8dd"/><path d="m59.4403877 54.6781006c-1.645874 0-2.9801216 1.4386864-2.9801216 3.2133331 0 1.7746429 1.3342476 3.2132607 2.9801216 3.2132607 1.6458893 0 2.9801369-1.4386177 2.9801369-3.2132607 0-1.7746467-1.3342476-3.2133331-2.9801369-3.2133331z" fill="#ededed"/><path d="m61.9006157 59.7036972c-.5378151.8470306-1.4386482 1.4009972-2.4604912 1.4009972-1.64571 0-2.979496-1.4386787-2.979496-3.2134285 0-1.2154655.6265602-2.2750092 1.5516014-2.8208313-.3280754.5162811-.5190048 1.1401634-.5190048 1.8124313 0 1.7747459 1.3337822 3.2134247 2.979496 3.2134247.5162964 0 1.0030174-.1425285 1.4278946-.3925934z" fill="#dbd8dd"/><path d="m62.9697952 57.4990654c-1.645874 0-2.9801216 1.4386864-2.9801216 3.2133331 0 1.7746429 1.3342476 3.2132607 2.9801216 3.2132607 1.6458893 0 2.9801331-1.4386177 2.9801331-3.2132607 0-1.7746467-1.3342438-3.2133331-2.9801331-3.2133331z" fill="#ededed"/><path d="m65.4300232 62.524662c-.5378189.8470306-1.4386482 1.4009972-2.4604912 1.4009972-1.64571 0-2.979496-1.4386787-2.979496-3.2134285 0-1.2154655.6265564-2.2750092 1.5515976-2.8208313-.3280754.5162811-.5190048 1.1401634-.5190048 1.8124313 0 1.7747459 1.333786 3.2134247 2.9794998 3.2134247.5162964 0 1.0030136-.1425285 1.4278946-.3925934z" fill="#dbd8dd"/><path d="m56.2004852 59.0268555c-1.645874 0-2.9801178 1.4386864-2.9801178 3.2133293 0 1.7746468 1.3342438 3.2132607 2.9801178 3.2132607 1.6458931 0 2.9801369-1.4386139 2.9801369-3.2132607 0-1.774643-1.3342438-3.2133293-2.9801369-3.2133293z" fill="#ededed"/><path d="m58.6607132 64.0524521c-.5378113.8470306-1.4386444 1.4009933-2.4604912 1.4009933-1.64571 0-2.979496-1.4386826-2.979496-3.2134285 0-1.2154655.6265602-2.2750092 1.5516014-2.8208313-.3280754.5162811-.5190048 1.1401634-.5190048 1.8124313 0 1.7747459 1.333786 3.2134285 2.979496 3.2134285.5162964.0000001 1.0030174-.1425323 1.4278946-.3925933z" fill="#dbd8dd"/><path d="m52.3815727 61.1046944c-1.645874 0-2.9801178 1.4386864-2.9801178 3.2133293 0 1.7746506 1.3342438 3.2132645 2.9801178 3.2132645 1.6458931 0 2.9801369-1.4386139 2.9801369-3.2132645 0-1.774643-1.3342438-3.2133293-2.9801369-3.2133293z" fill="#ededed"/><path d="m54.8418045 66.1302872c-.5378151.8470383-1.4386482 1.401001-2.4604912 1.401001-1.6457138 0-2.979496-1.4386826-2.979496-3.2134323 0-1.2154617.6265564-2.2750053 1.5515976-2.8208313-.3280754.5162811-.5190048 1.1401634-.5190048 1.8124313 0 1.7747498 1.333786 3.2134323 2.979496 3.2134323.5162964 0 1.0030174-.1425324 1.4278984-.392601z" fill="#dbd8dd"/><path d="m52.3815727 66.6888275c-1.645874 0-2.9801178 1.4386902-2.9801178 3.2133331s1.3342438 3.2132568 2.9801178 3.2132568c1.6458931 0 2.9801369-1.4386139 2.9801369-3.2132568s-1.3342438-3.2133331-2.9801369-3.2133331z" fill="#ededed"/><path d="m54.8418045 71.7144241c-.5378151.8470306-1.4386482 1.4009933-2.4604912 1.4009933-1.6457138 0-2.979496-1.4386749-2.979496-3.2134247 0-1.2154617.6265564-2.2750092 1.5515976-2.8208313-.3280754.5162811-.5190048 1.1401596-.5190048 1.8124313 0 1.7747498 1.333786 3.2134247 2.979496 3.2134247.5162964.0000001 1.0030174-.1425246 1.4278984-.3925933z" fill="#dbd8dd"/><path d="m58.6607056 66.8849945c-1.645874 0-2.9801178 1.4386826-2.9801178 3.2133331 0 1.7746429 1.3342438 3.2132568 2.9801178 3.2132568 1.6458931 0 2.9801369-1.4386139 2.9801369-3.2132568-.0000001-1.7746505-1.3342438-3.2133331-2.9801369-3.2133331z" fill="#ededed"/><path d="m61.1209335 71.9105911c-.5378151.8470306-1.4386444 1.4009933-2.4604912 1.4009933-1.64571 0-2.979496-1.4386749-2.979496-3.2134247 0-1.2154694.6265602-2.2750092 1.5516014-2.8208313-.3280754.5162811-.5190048 1.1401596-.5190048 1.8124313 0 1.7747421 1.333786 3.2134247 2.979496 3.2134247.5162964.0000001 1.0030175-.1425322 1.4278946-.3925933z" fill="#dbd8dd"/><g fill="#4abba4"><path d="m48.852177 48.585781h13.397126v1.1719h-13.397126z"/><path d="m56.5766907 57.9624023.4599304-.5212746s-.4599304-.5825615-.5519104-.8278542c-.0919876-.2452927-1.41045-.9505157-1.41045-.9505157l.9811783-.6745644-.643898-.3066406v-.6439056l-.4599266-.3066063v-.4292717l-.6439018-.2146378-.1226463-.551899-.7358856.0306549v-.2452927l-.6132393.0306587v-.4292717s-1.4717674.2452927-2.0543442 1.0731773c-.2025299.2878036-.2962265.6158638-.3340645.9220734-.0632706-.3062096-.17659-.6342697-.3791237-.9220734-.5825729-.8278847-2.054348-1.0731773-2.054348-1.0731773v.4292717l-.6132431-.0306587v.2452927l-.735878-.0306549-.122654.551899-.643898.2146378v.4292717l-.4599304.3066063v.6439056l-.643898.3066406.9811821.6745644s-1.3184662.7052231-1.4104462.9505157c-.0919876.2452927-.551918.8278542-.551918.8278542l.4599304.5212746-.4599304.5825577.2452927.3372993-.2452927.8278542.4905968.2452927-.3372841.8869209h.3066177l-.0919876 1.1674271h.3066216l.2452927 1.2264671.7358894-.7665367.5519104.4599304.490593-1.0425224.3066177.2146683.9505234-1.2594337.5519066-.3043289-.8278656 1.2877808.275959.1839752-.5212517 1.0425224.8278656.1839447.0919914.7052536h.3372803l.0306587.8585129h.6132393l.0306587.8891983h.4292717l.1226463.6745605.3372803-.1532898.3565903.6745377.3565979-.6745377.3372803.1532898.1226463-.6745605h.4292641l.0306664-.8891983h.6132317l.0306664-.8585129h.3372841l.09198-.7052536.827877-.1839447-.5212517-1.0425224.275959-.1839752-.827877-1.2877808.551918.3043289.9505157 1.2594337.3066216-.2146683.4905891 1.0425224.5519142-.4599304.7358818.7665367.2453003-1.2264671h.3066177l-.0919914-1.1674271h.3066254l-.3372803-.8869209.4905853-.2452927-.2452927-.8278542.2452927-.3372993z"/><path d="m50.230526 54.1765556s-.270153-3.7221298 1.6509438-4.9828529h.3602066s-1.8010292 1.3507729-1.4408226 4.9828529c.3602065 3.6320763-.5703278 0-.5703278 0z"/></g></svg>