<svg enable-background="new 0 0 110 110" height="512" viewBox="0 0 110 110" width="512" xmlns="http://www.w3.org/2000/svg"><path d="m53.3847809 36.0021477c-.0395508-.8066406-.8476562-19.7919922 8.8344727-22.1367188l.7060547 2.9160166c-6.0566406 1.4667969-6.7773438 14.2675781-6.5444336 19.0761719z" fill="#4abba4"/><path d="m56.4135437 77.210907c-4.8464241 0-8.7752266 4.2363358-8.7752266 9.461937 0 5.2255936 3.9288025 9.461731 8.7752266 9.461731 4.8464699 0 8.7752762-4.2361374 8.7752762-9.461731 0-5.2256013-3.9288063-9.461937-8.7752762-9.461937z" fill="#ededed"/><path d="m63.6579018 92.0092163c-1.5836411 2.4941559-4.2362213 4.1253586-7.2451324 4.1253586-4.8459396 0-8.7733879-4.2363205-8.7733879-9.4622269 0-3.5790405 1.8449554-6.6989594 4.568821-8.3061905-.9660454 1.5202332-1.5282555 3.3573151-1.5282555 5.3368683 0 5.2258987 3.9274483 9.4622192 8.7733879 9.4622192 1.5202827.0000001 2.9534759-.4196929 4.2045669-1.1560287z" fill="#dbd8dd"/><path d="m37.2456474 40.1113815c-4.8464241 0-8.7752247 4.2363396-8.7752247 9.4619408s3.9288006 9.4617271 8.7752247 9.4617271c4.8464699 0 8.7752724-4.2361298 8.7752724-9.4617271s-3.9288025-9.4619408-8.7752724-9.4619408z" fill="#ededed"/><path d="m44.4900055 54.9096947c-1.5836411 2.4941559-4.2362213 4.1253548-7.2451324 4.1253548-4.8459396 0-8.7733879-4.2363167-8.7733879-9.4622192 0-3.5790443 1.8449554-6.698967 4.568821-8.3061943-.9660454 1.520237-1.5282555 3.3573151-1.5282555 5.3368645 0 5.2259026 3.9274483 9.4622231 8.7733879 9.4622231 1.5202827-.0000002 2.9534759-.4196894 4.2045669-1.1560289z" fill="#dbd8dd"/><path d="m47.6382942 40.1113815c-4.8464241 0-8.7752228 4.2363396-8.7752228 9.4619408s3.9287987 9.4617271 8.7752228 9.4617271c4.8464699 0 8.7752724-4.2361298 8.7752724-9.4617271s-3.9288025-9.4619408-8.7752724-9.4619408z" fill="#ededed"/><path d="m54.8826523 54.9096947c-1.5836411 2.4941559-4.2362213 4.1253548-7.2451324 4.1253548-4.8459396 0-8.7733879-4.2363167-8.7733879-9.4622192 0-3.5790443 1.8449554-6.698967 4.568821-8.3061943-.9660454 1.520237-1.5282555 3.3573151-1.5282555 5.3368645 0 5.2259026 3.9274483 9.4622231 8.7733879 9.4622231 1.5202827-.0000002 2.9534759-.4196894 4.2045669-1.1560289z" fill="#dbd8dd"/><path d="m41.8769646 55.8425674c-4.8464241 0-8.7752266 4.2363396-8.7752266 9.461937s3.9288025 9.461731 8.7752266 9.461731c4.8464699 0 8.7752724-4.2361374 8.7752724-9.461731s-3.9288026-9.461937-8.7752724-9.461937z" fill="#ededed"/><path d="m49.1213226 70.6408768c-1.5836411 2.4941559-4.2362213 4.1253586-7.2451324 4.1253586-4.8459396 0-8.7733879-4.2363205-8.7733879-9.4622192 0-3.5790482 1.8449554-6.6989708 4.568821-8.3061943-.9660454 1.5202332-1.5282555 3.3573112-1.5282555 5.3368645 0 5.2258987 3.9274483 9.4622192 8.7733879 9.4622192 1.5202827-.0000001 2.9534759-.4196854 4.2045669-1.1560288z" fill="#dbd8dd"/><path d="m47.6382942 31.8048038c-4.8464241 0-8.7752228 4.2363415-8.7752228 9.4619389s3.9287987 9.4617271 8.7752228 9.4617271c4.8464699 0 8.7752724-4.2361298 8.7752724-9.4617271s-3.9288025-9.4619389-8.7752724-9.4619389z" fill="#ededed"/><path d="m54.8826523 46.6031151c-1.5836411 2.4941597-4.2362213 4.1253548-7.2451324 4.1253548-4.8459396 0-8.7733879-4.2363167-8.7733879-9.4622192 0-3.5790443 1.8449554-6.698967 4.568821-8.3061943-.9660454 1.520237-1.5282555 3.3573151-1.5282555 5.3368645 0 5.2259026 3.9274483 9.4622231 8.7733879 9.4622231 1.5202827-.0000002 2.9534759-.4196893 4.2045669-1.1560289z" fill="#dbd8dd"/><path d="m58.030941 40.1113815c-4.8464203 0-8.7752228 4.2363396-8.7752228 9.4619408s3.9288025 9.4617271 8.7752228 9.4617271c4.8464737 0 8.7752724-4.2361298 8.7752724-9.4617271s-3.9287987-9.4619408-8.7752724-9.4619408z" fill="#ededed"/><path d="m65.2752991 54.9096947c-1.5836411 2.4941559-4.2362213 4.1253548-7.2451286 4.1253548-4.8459396 0-8.7733879-4.2363167-8.7733879-9.4622192 0-3.5790443 1.8449554-6.698967 4.568821-8.3061943-.9660454 1.520237-1.5282555 3.3573151-1.5282555 5.3368645 0 5.2259026 3.9274483 9.4622231 8.7733879 9.4622231 1.5202827-.0000002 2.9534721-.4196894 4.2045631-1.1560289z" fill="#dbd8dd"/><path d="m58.030941 61.3455582c-4.8464203 0-8.7752228 4.2363434-8.7752228 9.461937 0 5.2256012 3.9288025 9.461731 8.7752228 9.461731 4.8464737 0 8.7752724-4.2361298 8.7752724-9.461731 0-5.2255936-3.9287987-9.461937-8.7752724-9.461937z" fill="#ededed"/><path d="m65.2752991 76.1438675c-1.5836411 2.4941635-4.2362213 4.1253586-7.2451286 4.1253586-4.8459396 0-8.7733879-4.2363205-8.7733879-9.4622192 0-3.5790482 1.8449554-6.698967 4.568821-8.3061943-.9660454 1.520237-1.5282555 3.3573112-1.5282555 5.3368645 0 5.2258987 3.9274483 9.4622192 8.7733879 9.4622192 1.5202827-.0000001 2.9534721-.4196854 4.2045631-1.1560288z" fill="#dbd8dd"/><path d="m71.347435 54.6873131c-4.8464203 0-8.7752266 4.2363396-8.7752266 9.4619331 0 5.2256012 3.9288063 9.461731 8.7752266 9.461731 4.8464737 0 8.7752762-4.2361298 8.7752762-9.461731 0-5.2255936-3.9288025-9.4619331-8.7752762-9.4619331z" fill="#ededed"/><path d="m78.5917892 69.4856262c-1.5836411 2.4941559-4.2362213 4.125351-7.2451248 4.125351-4.8459396 0-8.7733917-4.2363205-8.7733917-9.4622192 0-3.5790443 1.8449554-6.698967 4.5688248-8.3061905-.9660492 1.5202332-1.5282593 3.3573112-1.5282593 5.3368645 0 5.2259026 3.9274521 9.4622154 8.7733917 9.4622154 1.520279-.0000001 2.953476-.4196854 4.2045593-1.1560212z" fill="#dbd8dd"/><path d="m58.030941 26.8411999c-4.8464203 0-8.7752228 4.2363396-8.7752228 9.461935s3.9288025 9.461731 8.7752228 9.461731c4.8464737 0 8.7752724-4.2361336 8.7752724-9.461731s-3.9287987-9.461935-8.7752724-9.461935z" fill="#ededed"/><path d="m65.2752991 41.6395111c-1.5836411 2.4941559-4.2362213 4.1253548-7.2451286 4.1253548-4.8459396 0-8.7733879-4.2363205-8.7733879-9.4622192 0-3.5790482 1.8449554-6.698967 4.568821-8.3061943-.9660454 1.5202351-1.5282555 3.3573132-1.5282555 5.3368645 0 5.2259026 3.9274483 9.4622192 8.7733879 9.4622192 1.5202827-.0000001 2.9534721-.4196854 4.2045631-1.156025z" fill="#dbd8dd"/><path d="m68.4235916 40.1113815c-4.8464241 0-8.7752266 4.2363396-8.7752266 9.4619408s3.9288025 9.4617271 8.7752266 9.4617271c4.8464737 0 8.7752686-4.2361298 8.7752686-9.4617271s-3.9287949-9.4619408-8.7752686-9.4619408z" fill="#ededed"/><path d="m75.6679459 54.9096947c-1.5836411 2.4941559-4.2362213 4.1253548-7.2451248 4.1253548-4.8459435 0-8.7733917-4.2363167-8.7733917-9.4622192 0-3.5790443 1.8449554-6.698967 4.5688248-8.3061943-.9660492 1.520237-1.5282593 3.3573151-1.5282593 5.3368645 0 5.2259026 3.9274445 9.4622231 8.7733841 9.4622231 1.5202865-.0000002 2.9534759-.4196894 4.2045669-1.1560289z" fill="#dbd8dd"/><path d="m68.4235916 31.8048038c-4.8464241 0-8.7752266 4.2363415-8.7752266 9.4619389s3.9288025 9.4617271 8.7752266 9.4617271c4.8464737 0 8.7752686-4.2361298 8.7752686-9.4617271s-3.9287949-9.4619389-8.7752686-9.4619389z" fill="#ededed"/><path d="m75.6679459 46.6031151c-1.5836411 2.4941597-4.2362213 4.1253548-7.2451248 4.1253548-4.8459435 0-8.7733917-4.2363167-8.7733917-9.4622192 0-3.5790443 1.8449554-6.698967 4.5688248-8.3061943-.9660492 1.520237-1.5282593 3.3573151-1.5282593 5.3368645 0 5.2259026 3.9274445 9.4622231 8.7733841 9.4622231 1.5202865-.0000002 2.9534759-.4196893 4.2045669-1.1560289z" fill="#dbd8dd"/><path d="m78.8162384 40.1113815c-4.8464203 0-8.7752228 4.2363396-8.7752228 9.4619408s3.9288025 9.4617271 8.7752228 9.4617271c4.8464737 0 8.7752762-4.2361298 8.7752762-9.4617271s-3.9288025-9.4619408-8.7752762-9.4619408z" fill="#ededed"/><path d="m86.0606003 54.9096947c-1.5836411 2.4941559-4.2362213 4.1253548-7.2451324 4.1253548-4.8459396 0-8.7733917-4.2363167-8.7733917-9.4622192 0-3.5790443 1.8449554-6.698967 4.5688248-8.3061943-.9660492 1.520237-1.5282593 3.3573151-1.5282593 5.3368645 0 5.2259026 3.9274521 9.4622231 8.7733917 9.4622231 1.5202789-.0000002 2.9534759-.4196894 4.2045669-1.1560289z" fill="#dbd8dd"/><path d="m58.8834152 44.6100883c-4.8464203 0-8.7752228 4.2363396-8.7752228 9.461937s3.9288025 9.4617271 8.7752228 9.4617271c4.8464737 0 8.7752762-4.2361298 8.7752762-9.4617271s-3.9288025-9.461937-8.7752762-9.461937z" fill="#ededed"/><path d="m66.1277771 59.4083977c-1.5836411 2.4941597-4.2362251 4.1253548-7.2451324 4.1253548-4.8459396 0-8.7733879-4.2363167-8.7733879-9.4622192 0-3.5790443 1.8449554-6.698967 4.568821-8.3061905-.9660492 1.5202332-1.5282593 3.3573112-1.5282593 5.3368645 0 5.2258987 3.9274483 9.4622192 8.7733879 9.4622192 1.5202827-.0000001 2.9534797-.4196893 4.2045707-1.1560288z" fill="#dbd8dd"/><path d="m47.6382942 50.7284698c-4.8464241 0-8.7752228 4.2363396-8.7752228 9.461937s3.9287987 9.461731 8.7752228 9.461731c4.8464699 0 8.7752724-4.2361298 8.7752724-9.461731s-3.9288025-9.461937-8.7752724-9.461937z" fill="#ededed"/><path d="m54.8826523 65.5267792c-1.5836411 2.4941635-4.2362213 4.1253586-7.2451324 4.1253586-4.8459396 0-8.7733879-4.2363205-8.7733879-9.4622192 0-3.5790482 1.8449554-6.698967 4.568821-8.3061943-.9660454 1.5202332-1.5282555 3.3573112-1.5282555 5.3368645 0 5.2259026 3.9274483 9.4622192 8.7733879 9.4622192 1.5202827-.0000001 2.9534759-.4196854 4.2045669-1.1560288z" fill="#dbd8dd"/><path d="m47.6382942 67.1714478c-4.8464241 0-8.7752228 4.2363358-8.7752228 9.461937 0 5.2255936 3.9287987 9.4617233 8.7752228 9.4617233 4.8464699 0 8.7752724-4.2361298 8.7752724-9.4617233 0-5.2256013-3.9288025-9.461937-8.7752724-9.461937z" fill="#ededed"/><path d="m54.8826523 81.9697571c-1.5836411 2.4941559-4.2362213 4.125351-7.2451324 4.125351-4.8459396 0-8.7733879-4.2363129-8.7733879-9.4622192 0-3.5790405 1.8449554-6.698967 4.568821-8.3061905-.9660454 1.5202332-1.5282555 3.3573151-1.5282555 5.3368683 0 5.2258987 3.9274483 9.4622192 8.7733879 9.4622192 1.5202827-.0000001 2.9534759-.4196931 4.2045669-1.1560288z" fill="#dbd8dd"/><path d="m66.1277466 67.7490692c-4.8464203 0-8.775219 4.2363434-8.775219 9.461937 0 5.2256012 3.9287987 9.461731 8.775219 9.461731 4.8464737 0 8.7752762-4.2361298 8.7752762-9.461731 0-5.2255936-3.9288025-9.461937-8.7752762-9.461937z" fill="#ededed"/><path d="m73.3721085 82.5473862c-1.5836411 2.4941559-4.2362213 4.125351-7.2451324 4.125351-4.8459396 0-8.7733879-4.2363205-8.7733879-9.4622192 0-3.5790482 1.8449554-6.698967 4.568821-8.3061905-.9660454 1.5202332-1.5282555 3.3573074-1.5282555 5.3368607 0 5.2259064 3.9274483 9.4622192 8.7733879 9.4622192 1.5202865-.0000001 2.9534759-.4196855 4.2045669-1.1560212z" fill="#dbd8dd"/><g fill="#4abba4"><path d="m37.24567 13.865428h39.449017v3.450763h-39.449017z"/><path d="m59.991188 41.4757156 1.3543015-1.5349426s-1.3543015-1.7153969-1.6251488-2.4376869c-.2708702-.7222862-4.1531982-2.7988739-4.1531982-2.7988739l2.8891716-1.9863129-1.8960152-.9029293v-1.896038l-1.3543015-.9028358v-1.2640266l-1.8960152-.6320133-.361145-1.625124-2.1668854.0902748v-.7222881l-1.8057404.0902748v-1.2640268s-4.3337479.7222881-6.0491905 3.1600647c-.5963707.8474579-.8722725 1.8134689-.9836845 2.7151279-.186306-.901659-.519989-1.8676701-1.1163559-2.7151279-1.7154465-2.4377766-6.0492172-3.1600647-6.0492172-3.1600647v1.2640266l-1.8057404-.0902748v.7222881l-2.1668625-.0902748-.361166 1.625124-1.8960171.6320133v1.2640266l-1.3542995.9028358v1.8960382l-1.8960171.9029293 2.8891735 1.9863129s-3.8823299 2.0765877-4.1531773 2.7988739c-.2708683.72229-1.6251698 2.4376869-1.6251698 2.4376869l1.3543015 1.5349426-1.3543015 1.7153969.7222881.9932022-.7222881 2.4376869 1.4445992.7222862-.9931583 2.6116219h.9028606l-.2708702 3.4375954h.9028835l.7222862 3.6114388 2.1668854-2.2571373 1.6251469 1.3542976 1.4445992-3.0697899.9028587.632103 2.7988987-3.7085075 1.625145-.8961296-2.4377289 3.7919846.8125839.5417404-1.534874 3.0697899 2.4377327.5416489.2708702 2.0766754h.9931564l.0902748 2.5279617h1.8057404l.0902748 2.6183243h1.2640266l.361145 1.9863129.9931564-.4513702 1.0500069 1.9862213 1.0500336-1.9862213.9931564.4513702.3611412-1.9863129h1.2640038l.0902977-2.6183243h1.8057213l.0902939-2.5279617h.9931602l.2708435-2.0766754 2.4377556-.5416489-1.534874-3.0697899.8125877-.5417404-2.4377556-3.7919846 1.6251678.8961296 2.7988777 3.7085075.9028816-.632103 1.4445763 3.0697899 1.6251678-1.3542976 2.1668625 2.2571373.7223129-3.6114388h.9028587l-.2708702-3.4375954h.9028816l-.9931564-2.6116219 1.4445763-.7222862-.72229-2.4376869.72229-.9932022z"/><path d="m41.3043442 30.3279533s-.7954941-10.9601402 4.861351-14.6724453h1.0606613s-5.3032951 3.9774704-4.2426376 14.6724453c1.0606613 10.6949768-1.6793747 0-1.6793747 0z"/></g></svg>