<svg enable-background="new 0 0 110 110" height="512" viewBox="0 0 110 110" width="512" xmlns="http://www.w3.org/2000/svg"><path d="m37.703938 23.876099h34.656097v9.241626h-34.656097z" fill="#dbd8dd"/><path d="m84.3646851 39.4742317c-2.3285522-2.3308105-4.2166748-4.2229004-6.5501709-6.5537109-1.5310059-1.5292988-3.6104126-2.3918476-5.774353-2.3918476h-34.074524c-2.1668701 0-4.2487183.8647461-5.7802124 2.397707-2.3261108 2.328125-4.2128906 4.2189941-6.5440674 6.5476074-1.5334473 1.5317383-2.3990479 3.6140137-2.3990479 5.7814941v34.0661583c0 2.1660156.8640747 4.246582 2.3955078 5.7780762 2.333252 2.333252 4.2210083 4.2209473 6.5488281 6.5488281 1.5314331 1.53125 3.6121216 2.3952637 5.777832 2.3952637h34.0769043c2.1627197 0 4.2410278-.8615723 5.7718506-2.3894043 2.3353271-2.3305664 4.2243652-4.2194824 6.5549927-6.5549316 1.527771-1.5310059 2.3894653-3.6091309 2.3894653-5.7719727v-34.077877c.0000001-2.1645508-.8631591-4.2441407-2.3930052-5.7753907z" fill="#ededed"/><path d="m73.1222916 15.9561901h-36.9506684c-1.0632019 0-1.9251022.8619003-1.9251022 1.9251003v6.5296764c0 1.0632.8619003 1.9251003 1.9251022 1.9251003h36.9506683c1.0632019 0 1.9251022-.8619003 1.9251022-1.9251003v-6.5296764c.0000001-1.0632-.8619002-1.9251003-1.9251021-1.9251003z" fill="#dd584d"/><circle cx="55" cy="62.286" fill="#4288b9" r="17.748"/><g fill="#feda6f"><path d="m51.9856491 57.211998h-5.8592911l-2.9296455 5.0742493 2.9296455 5.0743026h5.8592911l2.9296455-5.0743026z"/><path d="m61.601593 62.7361107h-5.8592872l-2.9296456 5.0742531 2.9296456 5.0743026h5.8592872l2.9296494-5.0743026z"/><path d="m61.601593 51.6878853h-5.8592872l-2.9296456 5.0742493 2.9296456 5.0743026h5.8592872l2.9296494-5.0743026z"/></g><path d="m37.2515297 37.3197556-5.8430042 5.8430824c-1.1861515 1.1861496-1.8665867 2.8275642-1.8665867 4.5046616v24.4575768h2.5199547v-24.4575769c0-1.0138893.4109688-2.0056267 1.1283188-2.7229767l5.9015999-5.90168z" fill="#ededed"/></svg>