<svg enable-background="new 0 0 110 110" height="512" viewBox="0 0 110 110" width="512" xmlns="http://www.w3.org/2000/svg"><path d="m90.2686081 31.3955917c6.157196 6.1572037 5.813858 16.4833145-.7668762 23.0640488l-35.0420647 35.0420609c-6.5807343 6.5807343-16.9068947 6.9241257-23.0640984.766922l-2.3368893-2.3368835 58.8730392-58.8730392z" fill="#feda6f"/><path d="m78.6044083 19.7313957c-6.1572037-6.1572018-16.4833145-5.8138609-23.0640488.7668743l-35.0420647 35.0420628c-6.5807343 6.5807343-6.9241228 16.9068947-.766922 23.0640984l2.3368912 2.3368912 58.8730354-58.8730374z" fill="#feda6f"/><path d="m90.3472595 19.6527939-.0000534-.0000496c-3.7708664-3.7708693-9.8846283-3.7708187-13.6555023.0000496l-57.0389824 57.0389862c-3.7709198 3.7709198-3.7708693 9.8845825 0 13.6554489l.0000515.0000534c3.7708168 3.770813 9.8845272 3.7709198 13.655447 0l57.0389862-57.03899c3.7708664-3.7708664 3.7708664-9.8846798.0000534-13.6554985z" fill="#963e25"/><path d="m25.5915527 81.6512375c-.2139187-.213913-.3461895-.5094833-.3461895-.8360748 0-.653183.5290813-1.1822662 1.1822662-1.1822662l4.6123028.0008163c.8181152 0 1.5872421-.318428 2.1661263-.8973083.5788841-.5788879.8973122-1.3480148.8973122-2.1661301l.0008163-4.0097351c0-1.4500732.5641899-2.8127823 1.5896912-3.8382797 1.0254974-1.0255051 2.3882065-1.5896912 3.8382797-1.5896912h5.4491959c.8181152 0 1.5872383-.318428 2.1661263-.897316.5788841-.5788803.8973122-1.3480072.8973122-2.1661224v-6.0925827c0-1.4500732.5641899-2.8127823 1.5896873-3.8382797 1.0255013-1.0255013 2.3882103-1.5896912 3.8382797-1.5896912l4.9029732-.0008163c.8181114 0 1.5872383-.318428 2.1661224-.8973122.5780716-.5780678.8964996-1.3471947.8964996-2.1653099l.0008163-4.6057701c-.0008163-1.4492569.5641861-2.8127785 1.588871-3.8374634 1.0255013-1.0255013 2.3890266-1.5905075 3.8382835-1.5896912l4.1060791-.0008163c.9438553 0 1.820755-.4245682 2.4053574-1.1659355.5846024-.7413635.7936172-1.6933823.5731659-2.6111069-.4213028-1.7587013.0555267-3.6023178 1.2777939-4.9339981 1.2206421-1.3316803 3.0160828-1.96772 4.8025436-1.699913l6.0240021.8997631c.6491013.0955276 1.0916367.6980915.9944763 1.3439274-.0955276.6458378-.6980896 1.0916367-1.3439255.9944763l-6.0240021-.899765c-1.023056-.1526814-2.010994.1967735-2.7098999.9593658-.6997299.7634125-.9626389 1.7774811-.7217712 2.7842026.390274 1.6264305.0195923 3.313282-1.0165176 4.6269989-1.0353012 1.3129044-2.5890656 2.0665169-4.2612228 2.0665169l-4.1060791.0008163c-.8181152 0-1.5872421.318428-2.1661301.8973122-.578064.5780678-.8964958 1.3471947-.8964958 2.1653099l-.0008163 4.6057701c.0008163 1.4492531-.5633736 2.8119621-1.588871 3.8374634-1.0255013 1.0255013-2.3882103 1.5896873-3.8382797 1.5896873l-4.9029732.0008202c-1.6884842 0-3.0634384 1.3749542-3.0634384 3.0634384v6.0925827c0 1.4500732-.5641861 2.8127823-1.5896873 3.8382797s-2.3882103 1.5896912-3.8382797 1.5896912h-5.4491959c-1.6884842 0-3.0634384 1.3749542-3.0634384 3.0634384l-.0008202 4.0097351c0 2.9932251-2.4347458 5.4279709-5.4279671 5.4279709l-4.6123028-.0008163c-.3265934-.0000001-.62216-.1322709-.8360768-.3461915z" fill="#ededed"/></svg>