<svg enable-background="new 0 0 110 110" height="512" viewBox="0 0 110 110" width="512" xmlns="http://www.w3.org/2000/svg"><path d="m77.7829742 57.9177017c-1.7381134 1.445385-4.0372925 2.2565231-6.2755356 2.2137909-.2744522-.0060692-.5488663-.0243835-.8172073-.0609741-1.0306778-.1158752-2.0308762-.4330215-2.9456787-.9697075l-2.1345444-2.6955757-.4268723-.5488968-17.5459861-22.1687622c.3049698-3.293272 3.6897392-6.6170673 7.3611259-8.1783295 1.8052254-.7806129 3.6897354-1.1282444 5.2936935-.8294144 2.5004501-4.2446651 8.6052475-5.8730431 12.8926468-3.4396706.7622986.4330215 1.4758301.9757767 2.3113861 1.2380161.0670776.0183125.1280518.0427322.1890564.054903.0731812.0244198.1402588.0426579.2073364.0609722 1.9698639.5427933 2.2565231.0000381 4.4093399-.823307 4.3727951-1.6527233 9.6969376-.3781166 12.8377762 3.0798683-3.4701538 1.2502232-3.8848648 5.9095955-3.6836319 9.5871258.1951599 3.6835938-.2134399 8.3490715-3.6835938 9.5992966-.5122681.182991-1.0733795.2805901-1.5917892.4574394-.3110046.1036644-.5976181.2439232-.8537598.4512978-.2622757.225647-.4696426.4939919-.6160049.7989235-.01828.0426979-.0426636.0914955-.0609741.1341553-.3232117.7623749-.3659058 1.6954536-.4208145 2.5553513-.2500304 3.5799675-1.6893462 7.1903839-4.4459686 9.4834976z" fill="#ededed"/><path d="m77.7829742 57.9177017c-1.7381134 1.445385-4.0372925 2.2565231-6.2755356 2.2137909-.2744522-.0060692-.5488663-.0243835-.8172073-.0609741l-5.0802231-3.6652832-.225647-.1646767-.2012253-.3842201-12.0083655-22.3395081 3.4065132-4.2682514c1.8052254-.7806149 2.1067276-4.8675766 3.7106857-4.5687466 2.5004501-4.2446651 8.6052475-5.8730431 12.8926468-3.4396706.7622986.4330215 1.4758301.9757767 2.3113861 1.2380161.0670776.0183125.1280518.0427322.1890564.054903 1.0306854 6.3121681 3.0615616 14.8686142 7.0256729 23.2116165-.01828.0426979-.0426636.0914955-.0609741.1341553-.3232117.7623749-.3659058 1.6954536-.4208145 2.5553513-.2500305 3.5799676-1.6893463 7.190384-4.4459687 9.4834977z" fill="#dd584d"/><path d="m71.5074387 60.1314926c-1.3173065-.0243835-2.61026-.3536987-3.762886-1.0306816l-20.1074029-25.4132347c.4574394-4.9216499 7.7941437-9.9042702 12.6548195-9.0077438 0 0 .0487633 15.5638732 11.2154694 35.4516601z" fill="#ededed"/><path d="m70.6963348 61.6135063-4.9887619 2.8053856-1.3050919.7318497-4.6715775 2.6224289-.0061073.0061035-.2378578.1280518c-.0061035.0061035-.0244179.012207-.0305214.0183105l-2.1345444 1.2075272-1.8235016 1.0185089-1.9576912 1.1038666-.6891212.3841782-4.5374641 2.5492859-.0060654.0060654-1.1831474.6586761-1.689312.9574966-1.7808456 1.0001907-7.0195999 3.9458389-1.5551605.8721085-1.561264.878212-1.6588249.9270096-.0061035.0061111-6.9891148 3.9275589-.0061035.0061035-1.7259407.9697037-1.6100636.9025955-.5000591.2805176c-.0975628.0487976-.1951637.0975647-.2866592.1402969-.1951618.08535-.3842201.1402588-.5793819.1768494-.0975628.0243759-.1890583.0304794-.2865829.0426941 0 0-.0061054.0061035-.0122108 0-.1707802.012207-.3415623.012207-.5062389-.0061035-.0426579-.0061111-.0975628-.0121765-.1463242-.0243835-.0792866-.0061035-.1464005-.0243835-.2134762-.0426941-.0731831-.0244217-.1402969-.0426941-.2134399-.0670776-.0670776-.0183182-.1341915-.0487976-.2012672-.0793228-.1280499-.0548706-.2561722-.1219482-.3842201-.2012329-.3598022-.225647-.6769466-.5427933-.9025955-.9025955-.0487995-.0610046-.0793228-.1280823-.1097717-.1951599-.0365906-.0610123-.0610085-.1219788-.0914955-.1890945-.0243816-.060936-.0487614-.1219482-.0731812-.1829147-.1280861-.3476334-.1768475-.7257462-.1463623-1.1100082.0121727-.0975571.0182762-.1890564.0426579-.2866211.0366287-.1951218.0914955-.3842163.1768856-.5793457.042696-.0915298.0914955-.1890945.140295-.2866516l.2622032-.4696121.9209442-1.6283417.9757767-1.7442169 3.9336624-6.9952164.9208717-1.6405487.8843174-1.5795822.8721085-1.5551605 3.9458733-7.019558 1.0001945-1.7808456.9513931-1.6954155.6647377-1.1770821c.0060654-.0060654 0-.0121346 0-.0121346l2.5553513-4.5435333.3720512-.664772 1.1038246-1.9698677 1.0306778-1.8235397 1.2075653-2.1467133c.0061073-.0061035.0061073-.0061035.0061073-.0183144l.1341515-.2439613.0061073-.0061035 2.6224289-4.6715813.7318497-1.3050919 2.8053818-4.9887619z" fill="#feda6f"/><path d="m70.6963348 61.6135063-4.9887619 2.8053856-1.3050919.7318497-4.6715775 2.6224289-.0061073.0061035-.2378578.1280518c-.0061035.0061035-.0244179.012207-.0305214.0183105l-2.1345444 1.2075272-1.8235016 1.0185089-1.9576912 1.1038666-.6891212.3841782-4.5374641 2.5492859-.0060654.0060654-1.1831474.6586761-1.689312.9574966-1.7808456 1.0001907-7.0195999 3.9458389-1.5551605.8721085-1.561264.878212-1.6588249.9270096-.0061035.0061111-6.9891148 3.9275589-.0061035.0061035-1.7259407.9697037-1.6100636.9025955-.5000591.2805176c-.0975628.0487976-.1951637.0975647-.2866592.1402969-.1951618.08535-.3842201.1402588-.5793819.1768494-.0975628.0243759-.1890583.0304794-.2865829.0426941 0 0-.0061054.0061035-.0122108 0-.1707802.012207-.3415623.012207-.5062389-.0061035-.0426579-.0061111-.0975628-.0121765-.1463242-.0243835-.0792866-.0061035-.1464005-.0243835-.2134762-.0426941-.0731831-.0244217-.1402969-.0426941-.2134399-.0670776-.0670776-.0183182-.1341915-.0487976-.2012672-.0793228-.1402588-.0548706-.2683449-.1219864-.3842201-.2012329-.1803474-.113121-.3483372-.247757-.5003204-.3999634-.1529522-.1527328-.2891521-.3222809-.4022751-.5026321-.0487995-.0610046-.0793228-.1280823-.1097717-.1951599-.0365906-.0610123-.0610085-.1219788-.0914955-.1890945-.0243816-.060936-.0487614-.1219482-.0731812-.1829147-.1280861-.3476334-.1768475-.7257462-.1463623-1.1100082.0121727-.0975571.0182762-.1890564.0426579-.2866211.0366287-.1951218.0914955-.3842163.1768856-.5793457.042696-.0915298.0914955-.1890945.140295-.2866516l.2622032-.4696121.9209442-1.6283417.9757767-1.7442169 3.9336624-6.9952164.9208717-1.6405487.8843174-1.5795822.8721085-1.5551605 3.9458733-7.019558 1.0001945-1.7808456.9513931-1.6954155.6647377-1.1770821c.0060654-.0060654 0-.0121346 0-.0121346l2.5553513-4.5435333.3720512-.664772 1.1038246-1.9698677 1.0306778-1.8235397 1.2075653-2.1467133c.0061073-.0061035.0061073-.0061035.0061073-.0183144l.1341515-.2439613.0061073-.0061035 2.6224289-4.6715813.7318497-1.3050919 2.8053818-4.9887619z" fill="#feda6f"/><g fill="#fed35b"><path d="m74.7802353 59.6692886-27.6963387-27.6963386c-1.4922523-1.4922504-3.9116631-1.4922886-5.4039154-.0000362-1.4922523 1.4922504-1.4922523 3.9116993 0 5.4039516l27.6963387 27.6963386c1.4922485 1.4922485 3.9116974 1.4922485 5.4039536 0 1.4922485-1.4922523 1.4922103-3.9116668-.0000382-5.4039154z"/><path d="m43.3375778 42.7929153c-.4085999.4086037-1.0672684.4086418-1.475872.0000381-.1280861-.1280861-.2195816-.2805519-.2622375-.4452286l.7318497-1.3050919c.3536987-.097599.7379189-.0061073 1.0123672.2683411.4085998.4086038.4024963 1.0733415-.0061074 1.4819413z"/><path d="m46.1066208 44.0773048c-.4092979-.4092979-1.0728912-.4092712-1.482193.0000305-.4092674.4092674-.4092979 1.0728645 0 1.4821625.4093018.4092979 1.0729256.4092979 1.482193.0000267.4092979-.4092979.4092979-1.0729217 0-1.4822197z"/><path d="m48.8718262 46.8425102c-.4093018-.4093018-1.0728951-.4092712-1.482193.0000267-.4092712.4092712-.4092979 1.0728645 0 1.4821625.4092979.4093018 1.0729218.4093018 1.482193.0000305.4092979-.4092979.4092979-1.0729217 0-1.4822197z"/><path d="m51.6370277 49.6077118c-.4092979-.4092979-1.0728912-.4092712-1.482193.0000305-.4092674.4092674-.4092979 1.0728645 0 1.4821625.4093018.4092979 1.0729256.4092979 1.482193.0000267.409298-.409298.409298-1.0729218 0-1.4822197z"/><path d="m54.4022331 52.3729172c-.4093018-.4093018-1.0728951-.4092712-1.482193.0000267-.4092712.4092712-.4092979 1.0728645 0 1.4821625.4092979.4093018 1.0729218.4093018 1.482193.0000305.409298-.409298.409298-1.0729218 0-1.4822197z"/><path d="m57.1674347 55.1381187c-.4092979-.4092979-1.0728912-.4092712-1.482193.0000305-.4092674.4092674-.4092979 1.0728645 0 1.4821625.4093018.4092979 1.0729256.4092979 1.482193.0000267.4092979-.4092979.4092979-1.0729217 0-1.4822197z"/><path d="m59.9106483 57.8813286c-.4093018-.4092979-1.0728951-.4092674-1.482193.0000305-.4092712.4092712-.4092979 1.0728645 0 1.4821625s1.0729218.4092979 1.482193.0000305c.409298-.4092979.409298-1.0729218 0-1.4822235z"/><path d="m62.6758499 60.646534c-.4092979-.4092979-1.0728912-.4092712-1.482193.0000305-.4092674.4092674-.4092979 1.0728607 0 1.4821625.4093018.4092979 1.0729256.4092979 1.482193.0000267.409298-.409298.409298-1.0729218 0-1.4822197z"/><path d="m65.7075729 64.4188919-1.3050919.7318497c-.1646729-.0426636-.3110352-.1280518-.4391212-.256134-.4147072-.414711-.4147072-1.0734138-.0061073-1.4820175s1.0733795-.414669 1.4880829.0000381c.2744522.2744484.3659439.6586685.2622375 1.0062637z"/><path d="m42.4370117 44.9817123c-.4093018-.4092979-1.0728951-.4092712-1.482193.0000305-.4092712.4092674-.4092979 1.0728645 0 1.4821625s1.0729218.4092979 1.482193.0000267c.409298-.4092979.409298-1.0729217 0-1.4822197z"/><path d="m45.2022133 47.7469177c-.4092979-.4093018-1.0728912-.4092712-1.482193.0000267-.4092674.4092712-.4092979 1.0728645 0 1.4821625.4093018.4093018 1.0729256.4093018 1.482193.0000305.4092979-.4092979.4092979-1.0729217 0-1.4822197z"/><path d="m47.9674187 50.5121193c-.4093018-.4092979-1.0728951-.4092712-1.482193.0000305-.4092712.4092674-.4092979 1.0728645 0 1.4821625s1.0729218.4092979 1.482193.0000267c.4092979-.409298.4092979-1.0729218 0-1.4822197z"/><path d="m50.7326202 53.2773247c-.4092979-.4093018-1.0728912-.4092712-1.482193.0000267-.4092674.4092712-.4092979 1.0728645 0 1.4821625.4093018.4093018 1.0729256.4093018 1.482193.0000305.409298-.409298.409298-1.0729218 0-1.4822197z"/><path d="m53.4978256 56.0425262c-.4093018-.4092979-1.0728951-.4092712-1.482193.0000305-.4092712.4092674-.4092979 1.0728645 0 1.4821625s1.0729218.4092979 1.482193.0000267c.409298-.4092979.409298-1.0729217 0-1.4822197z"/><path d="m56.2630272 58.8077316c-.4092979-.4093018-1.0728912-.4092712-1.482193.0000267-.4092674.4092712-.4092979 1.0728645 0 1.4821625.4093018.4093018 1.0729256.4093018 1.482193.0000305.4092979-.4092979.4092979-1.0729217 0-1.4822197z"/><path d="m59.0062408 61.5509415c-.4093018-.4092979-1.0728951-.4092712-1.482193.0000305-.4092712.4092674-.4092979 1.0728607 0 1.4821625.4092979.4092979 1.0729218.4092979 1.482193.0000267.409298-.409298.409298-1.0729218 0-1.4822197z"/><path d="m61.7714424 64.3161469c-.4092979-.4093018-1.0728912-.4092712-1.482193.0000305-.4092674.4092636-.4092979 1.0728607 0 1.4821625.4093018.4092941 1.0729256.4092941 1.482193.0000229.409298-.4092942.409298-1.0729218 0-1.4822159z"/><path d="m41.4974365 48.6864891c-.4092979-.4092979-1.0728912-.4092712-1.4821892.0000267-.4092712.4092712-.4093018 1.0728645 0 1.4821663.4092979.4092979 1.0729218.4092979 1.4821892.0000267.4093018-.4092979.4093018-1.0729218 0-1.4822197z"/><path d="m44.2626419 51.4516907c-.4092979-.4092979-1.0728951-.4092674-1.482193.0000305-.4092674.4092712-.4092979 1.0728645 0 1.4821625s1.0729218.4092979 1.482193.0000305c.4092979-.4093018.4092979-1.0729218 0-1.4822235z"/><path d="m47.0278435 54.2168961c-.4092979-.4092979-1.0728912-.4092712-1.4821892.0000267-.4092712.4092712-.4093018 1.0728645 0 1.4821663.4092979.4092979 1.0729218.4092979 1.4821892.0000267.4093017-.409298.4093017-1.0729218 0-1.4822197z"/><path d="m49.7930489 56.9820976c-.4092979-.4092979-1.0728951-.4092674-1.482193.0000305-.4092674.4092712-.4092979 1.0728645 0 1.4821625s1.0729218.4092979 1.482193.0000305c.4092979-.4093017.4092979-1.0729217 0-1.4822235z"/><path d="m52.5582504 59.747303c-.4092979-.4092979-1.0728912-.4092712-1.4821892.0000267-.4092712.4092712-.4093018 1.0728645 0 1.4821663.4092979.4092979 1.0729218.4092979 1.4821892.0000267.4093018-.4092979.4093018-1.0729217 0-1.4822197z"/><path d="m55.3014641 62.4905128c-.4092979-.4092979-1.0728951-.4092674-1.482193.0000305-.4092674.4092674-.4092979 1.0728645 0 1.4821625s1.0729218.4092979 1.482193.0000305c.4092979-.4093017.4092979-1.0729255 0-1.4822235z"/><path d="m58.0666656 65.2557144c-.4092979-.4092941-1.0728912-.4092636-1.4821892.0000305-.4092712.4092712-.4093018 1.0728683 0 1.4821625.4092979.4093018 1.0729218.4093018 1.4821892.0000305.4093018-.4093017.4093018-1.0729217 0-1.4822235z"/><path d="m37.8243752 51.0749512c-.3354187.3354187-.8355179.3964272-1.231945.1829872l1.0306778-1.8235397c.0793228.0426979.1463623.0976028.2073364.1585732.4086379.4086379.4086379 1.0672721-.0060692 1.4819793z"/><path d="m40.593029 52.3560982c-.4092979-.4092979-1.0728912-.4092674-1.4821892.0000305-.4092712.4092712-.4093018 1.0728645 0 1.4821625.4092979.4092979 1.0729218.4092979 1.4821892.0000305.4093018-.4093018.4093018-1.0729218 0-1.4822235z"/><path d="m43.3582344 55.1213036c-.4092979-.4092979-1.0728951-.4092712-1.482193.0000267-.4092674.4092712-.4092979 1.0728645 0 1.4821663.4092979.4092979 1.0729218.4092979 1.482193.0000267.4092979-.409298.4092979-1.0729218 0-1.4822197z"/><path d="m46.123436 57.8865051c-.4092979-.4092979-1.0728912-.4092674-1.4821892.0000305-.4092712.4092712-.4093018 1.0728645 0 1.4821625.4092979.4092979 1.0729218.4092979 1.4821892.0000305.4093017-.4093017.4093017-1.0729217 0-1.4822235z"/><path d="m48.8886414 60.6517105c-.4092979-.4092979-1.0728951-.4092712-1.482193.0000267-.4092674.4092712-.4092979 1.0728645 0 1.4821663.4092979.4092979 1.0729218.4092979 1.482193.0000267.4092979-.4092979.4092979-1.0729217 0-1.4822197z"/><path d="m51.6538429 63.4169121c-.4092979-.4092979-1.0728912-.4092674-1.4821892.0000305-.4092712.4092712-.4093018 1.0728645 0 1.4821663.4092979.4092941 1.0729218.4092941 1.4821892.0000229.4093018-.4092942.4093018-1.072918 0-1.4822197z"/><path d="m54.3970566 66.1601257c-.4092979-.4093018-1.0728951-.4092712-1.482193.0000305-.4092674.4092636-.4092979 1.0728607 0 1.4821625.4092979.4092941 1.0729218.4092941 1.482193.0000305.4092979-.4093017.4092979-1.0729293 0-1.4822235z"/><path d="m57.3218727 69.1331635-1.8235016 1.0185089c-.2134399-.396431-.1524315-.8965225.1768875-1.2258453.4147034-.4147034 1.0794411-.4085999 1.4880447 0 .0610085.0610122.1159135.1280517.1585694.2073364z"/><path d="m36.8882561 53.2956734c-.4093018-.4093018-1.0728951-.4092712-1.482193.0000267-.4092712.4092712-.4092979 1.0728645 0 1.4821625.4092979.4093018 1.0729218.4093018 1.482193.0000305.4092979-.409298.4092979-1.0729218 0-1.4822197z"/><path d="m39.6534576 56.0608749c-.4092979-.4092979-1.0728912-.4092712-1.482193.0000305-.4092674.4092674-.4092979 1.0728645 0 1.4821625.4093018.4092979 1.0729256.4092979 1.482193.0000267.409298-.4092979.409298-1.0729217 0-1.4822197z"/><path d="m42.418663 58.8260803c-.4093018-.4093018-1.0728951-.4092712-1.482193.0000267-.4092712.4092712-.4092979 1.0728645 0 1.4821625.4092979.4093018 1.0729218.4093018 1.482193.0000305.409298-.4092979.409298-1.0729217 0-1.4822197z"/><path d="m45.1838646 61.5912819c-.4092979-.4092979-1.0728912-.4092712-1.482193.0000305-.4092674.4092674-.4092979 1.0728645 0 1.4821625.4093018.4092979 1.0729256.4092979 1.482193.0000267.4092979-.409298.4092979-1.0729218 0-1.4822197z"/><path d="m47.94907 64.3564835c-.4093018-.4092979-1.0728951-.4092674-1.482193.0000305-.4092712.4092712-.4092979 1.0728683 0 1.4821625.4092979.4093018 1.0729218.4093018 1.482193.0000305.4092979-.4093018.4092979-1.0729218 0-1.4822235z"/><path d="m50.6922798 67.0996933c-.4092979-.4092941-1.0728912-.4092636-1.482193.0000305-.4092674.4092712-.4092979 1.0728683 0 1.4821625.4093018.4093018 1.0729256.4093018 1.482193.0000305.409298-.4092941.409298-1.0729217 0-1.4822235z"/><path d="m53.4574852 69.8648987c-.4093018-.4092941-1.0728951-.4092712-1.482193.0000305-.4092712.4092712-.4092979 1.0728683 0 1.4821625.4092979.4093018 1.0729218.4093018 1.482193.0000305.4092979-.4093018.4092979-1.0729218 0-1.4822235z"/><path d="m35.9838486 56.9652824c-.4093018-.4092979-1.0728951-.4092712-1.482193.0000305-.4092712.4092674-.4092979 1.0728645 0 1.4821625s1.0729218.4092979 1.482193.0000267c.4092979-.4092979.4092979-1.0729217 0-1.4822197z"/><path d="m38.7490501 59.7304878c-.4092979-.4093018-1.0728912-.4092712-1.482193.0000267-.4092674.4092712-.4092979 1.0728645 0 1.4821625.4093018.4093018 1.0729256.4093018 1.482193.0000305.409298-.4092979.409298-1.0729217 0-1.4822197z"/><path d="m41.5142555 62.4956894c-.4093018-.4092979-1.0728951-.4092712-1.482193.0000305-.4092712.4092674-.4092979 1.0728645 0 1.4821625.4092979.4093018 1.0729218.4093018 1.482193.0000267.409298-.409298.409298-1.0729218 0-1.4822197z"/><path d="m44.2794571 65.2608948c-.4092979-.4093018-1.0728912-.4092712-1.482193.0000305-.4092674.4092636-.4092979 1.0728607 0 1.4821625.4093018.4092941 1.0729256.4092941 1.482193.0000229.4092979-.4092942.4092979-1.0729218 0-1.4822159z"/><path d="m47.0446625 68.0261002c-.4093018-.4093018-1.0728951-.4092712-1.482193.0000229-.4092712.4092712-.4092979 1.0728683 0 1.4821625.4092979.4093018 1.0729218.4093018 1.482193.0000305.4092979-.4092942.4092979-1.0729218 0-1.4822159z"/><path d="m49.7878723 70.76931c-.4092979-.4093018-1.0728912-.4092712-1.482193.0000305-.4092674.4092636-.4092979 1.0728607 0 1.4821625.4093018.4092941 1.0729256.4092941 1.482193.0000229.409298-.4092941.409298-1.0729218 0-1.4822159z"/><path d="m32.2806854 59.3874702c-.1097717.1097717-.2439995.1951599-.3842201.2378578l.6647377-1.1770821c.0731812.3293534-.0243835.6830865-.2805176.9392243z"/><path d="m35.0442734 60.6700592c-.4092979-.4092979-1.0728912-.4092712-1.4821892.0000267-.4092712.4092712-.4093018 1.0728645 0 1.4821663.4092979.4092979 1.0729218.4092979 1.4821892.0000267.4093017-.4092979.4093017-1.0729218 0-1.4822197z"/><path d="m37.8094788 63.4352608c-.4092979-.4092979-1.0728951-.4092674-1.482193.0000305-.4092674.4092712-.4092979 1.0728645 0 1.4821663.4092979.4092941 1.0729218.4092941 1.482193.0000229.4092979-.4092942.4092979-1.072918 0-1.4822197z"/><path d="m40.5746803 66.2004623c-.4092979-.4092941-1.0728912-.4092636-1.4821892.0000305-.4092712.4092712-.4093018 1.0728683 0 1.4821625.4092979.4093018 1.0729218.4093018 1.4821892.0000305.4093018-.4092941.4093018-1.0729217 0-1.4822235z"/><path d="m43.3398857 68.9656677c-.4092979-.4092941-1.0728951-.4092712-1.482193.0000305-.4092674.4092712-.4092979 1.0728607 0 1.4821625s1.0729218.4093018 1.482193.0000305c.409298-.4093017.409298-1.0729217 0-1.4822235z"/><path d="m46.0830956 71.7088776c-.4092979-.4092941-1.0728912-.4092636-1.4821892.0000305-.4092712.4092712-.4093018 1.0728683 0 1.4821625.4092979.4093018 1.0729218.4093018 1.4821892.0000305.4093017-.4093018.4093017-1.0729218 0-1.4822235z"/><path d="m48.3080292 74.1950684-1.1831474.6586761c.0487595-.1341553.1341896-.2683487.2439613-.3781204.256134-.256134.6098671-.3536987.9391861-.2805557z"/><path d="m31.3780556 63.058857c-.3903255.3903236-1.0245762.4025688-1.4331779.0427322l1.0001945-1.7808456c.158535.0488014.3048973.1341896.426878.2561722.4086017.4085998.4147071 1.0733375.0061054 1.4819412z"/><path d="m34.1398659 64.3396683c-.4092979-.4092979-1.0728912-.4092674-1.4821892.0000305-.4092712.4092712-.4093018 1.0728607 0 1.4821625.4092979.4093018 1.0729218.4093018 1.4821892.0000305.4093017-.4093018.4093017-1.0729218 0-1.4822235z"/><path d="m36.9050713 67.1048737c-.4092979-.4093018-1.0728951-.4092712-1.482193.0000305-.4092674.4092712-.4092979 1.0728607 0 1.4821625.4092979.4092941 1.0729218.4092941 1.482193.0000305.4092979-.4093018.4092979-1.0729218 0-1.4822235z"/><path d="m39.6702728 69.870079c-.4092979-.4093018-1.0728912-.4092712-1.4821892.0000229-.4092712.4092712-.4093018 1.0728683 0 1.4821701.4092979.4092941 1.0729218.4092941 1.4821892.0000229.4093018-.4092941.4093018-1.0729217 0-1.4822159z"/><path d="m42.4354782 72.6352768c-.4092979-.4092941-1.0728951-.4092636-1.482193.0000305-.4092674.4092712-.4092979 1.0728683 0 1.4821625.4092979.4093018 1.0729218.4093018 1.482193.0000305.409298-.4093018.409298-1.0729217 0-1.4822235z"/><path d="m45.4355698 75.8112411-1.7808456 1.0001907c-.3720131-.408638-.3537369-1.0367813.0426941-1.4332123.4086037-.4085999 1.0672722-.4085617 1.475872.0000381.128086.1280824.213478.2744447.2622795.4329835z"/><path d="m30.435091 65.2792435c-.4092979-.4093018-1.0728931-.4092712-1.4821911.0000305-.4092693.4092636-.4092999 1.0728607 0 1.4821625.4092979.4092941 1.0729218.4092941 1.4821911.0000305.4092999-.4093018.4092999-1.0729294 0-1.4822235z"/><path d="m33.2002945 68.0444489c-.4092979-.4093018-1.0728912-.4092712-1.4821911.0000229-.4092693.4092712-.4092999 1.0728683 0 1.4821625.4092999.4093018 1.0729237.4093018 1.4821911.0000305.4092979-.4092942.4092979-1.0729218 0-1.4822159z"/><path d="m35.9654999 70.8096466c-.4093018-.4092941-1.0728951-.4092712-1.482193.0000305-.4092712.4092712-.4092979 1.0728683 0 1.4821625.4092979.4093018 1.0729218.4093018 1.482193.0000305.4092979-.4093017.4092979-1.0729217 0-1.4822235z"/><path d="m38.7307014 73.574852c-.4092979-.4093018-1.0728912-.4092712-1.482193.0000305-.4092674.4092712-.4092979 1.0728607 0 1.4821625.4093018.4093018 1.0729256.4093018 1.482193.0000305.409298-.4093018.409298-1.0729218 0-1.4822235z"/><path d="m41.4739151 76.3180618c-.4093018-.4092941-1.0728951-.4092712-1.482193.0000305-.4092712.4092712-.4092979 1.0728683 0 1.4821625.4092979.4093018 1.0729218.4093018 1.482193.0000305.4092979-.4093017.4092979-1.0729217 0-1.4822235z"/><path d="m29.5306835 68.9488525c-.4092979-.4093018-1.0728931-.4092712-1.4821911.0000305-.4092693.4092712-.4092999 1.0728607 0 1.4821625.4092979.4093018 1.0729218.4093018 1.4821911.0000305.4092999-.4093017.4092999-1.0729217 0-1.4822235z"/><path d="m32.295887 71.7140579c-.4092979-.4093018-1.0728931-.4092712-1.4821911.0000305-.4092693.4092636-.4092999 1.0728607 0 1.4821625.4092979.4092941 1.0729218.4092941 1.4821911.0000305.4092979-.4093017.4092979-1.0729293 0-1.4822235z"/><path d="m35.0610924 74.4792633c-.4093018-.4093018-1.0728951-.4092712-1.482193.0000229-.4092712.4092712-.4092979 1.0728683 0 1.4821625.4092979.4093018 1.0729218.4093018 1.482193.0000305.4092979-.4092941.4092979-1.0729218 0-1.4822159z"/><path d="m37.8262939 77.2444611c-.4092979-.4092941-1.0728912-.4092712-1.482193.0000305-.4092674.4092712-.4092979 1.0728683 0 1.4821625.4093018.4093018 1.0729256.4093018 1.482193.0000305.409298-.4093018.409298-1.0729218 0-1.4822235z"/><path d="m25.8221569 71.371376c-.1951637.1951599-.4391251.2927628-.695261.3049316l.8721085-1.5551605c.2256488.396431.1646766.9086991-.1768475 1.2502289z"/><path d="m28.5911121 72.6536255c-.4092999-.4092941-1.0728931-.4092636-1.482193.0000305-.4092693.4092712-.4092979 1.0728683 0 1.4821625.4092999.4093018 1.0729237.4093018 1.482193.0000305.409298-.4092941.409298-1.0729218 0-1.4822235z"/><path d="m31.3563156 75.4188309c-.4092999-.4092941-1.0728931-.4092712-1.482193.0000305-.4092693.4092712-.4092979 1.0728607 0 1.4821625.4092999.4093018 1.0729237.4093018 1.482193.0000305.409298-.4093018.409298-1.0729218 0-1.4822235z"/><path d="m34.1215172 78.1840363c-.4092979-.4093018-1.0728912-.4092712-1.4821892.0000305-.4092712.4092712-.4093018 1.0728607 0 1.4821625.4092979.4092941 1.0729218.4092941 1.4821892.0000305.4093017-.4093018.4093017-1.0729218 0-1.4822235z"/><path d="m36.6351242 80.7572708-1.5551605.8721085c.0061073-.262207.1037064-.5061646.2988701-.7013321.3415222-.3415222.8598976-.3963928 1.2562904-.1707764z"/><path d="m24.9195614 75.0428009c-.408638.408638-1.0672703.408638-1.4819775-.006073-.0426941-.0426941-.0853901-.0975952-.1158772-.1402893l.9208717-1.6405487c.2439632.012207.4878883.1097717.6769829.2988663.4147073.4147033.4086018 1.0794372.0000001 1.4880447z"/><path d="m27.6867046 76.3232422c-.4092999-.4093018-1.0728931-.4092712-1.482193.0000229-.4092693.4092712-.4092979 1.0728683 0 1.4821701.4092999.4092941 1.0729237.4092941 1.482193.0000229.409298-.4092942.409298-1.0729218 0-1.4822159z"/><path d="m30.4519081 79.0884399c-.4092999-.4092941-1.0728931-.4092636-1.482193.0000305-.4092693.4092712-.4092979 1.0728683 0 1.4821625.4092999.4093018 1.0729237.4093018 1.482193.0000305.409298-.4092941.409298-1.0729217 0-1.4822235z"/><path d="m33.5186996 82.5075912-1.6588249.9270096-.0061035.0061111c-.042696-.0304871-.0792866-.0670776-.1158772-.1036682-.4086399-.408638-.4147434-1.0733795-.0061054-1.4820175.4086037-.4085999 1.0794449-.4085999 1.4880829.0000381.1829529.182953.2805519.4147035.2988281.6525269z"/><path d="m23.9819279 77.2628098c-.4092979-.4092941-1.0728931-.4092712-1.4821911.0000305-.4092693.4092712-.4092999 1.0728683 0 1.4821625.4092979.4093018 1.0729218.4093018 1.4821911.0000305.4092998-.4093018.4092998-1.0729218 0-1.4822235z"/><path d="m26.7471313 80.0280151c-.4092979-.4093018-1.0728931-.4092712-1.4821911.0000305-.4092693.4092712-.4092999 1.0728607 0 1.4821625.4092979.4093018 1.0729218.4093018 1.4821911.0000305.4092999-.4093017.4092999-1.0729217 0-1.4822235z"/><path d="m29.5123348 82.7932205c-.4092979-.4093018-1.0728931-.4092712-1.4821911.0000305-.4092693.4092636-.4092999 1.0728607 0 1.4821625.4092979.4092941 1.0729218.4092941 1.4821911.0000305.4092999-.4093017.4092999-1.0729294 0-1.4822235z"/><path d="m23.0775204 80.9324265c-.4092979-.4093018-1.0728931-.4092712-1.4821911.0000229-.4092693.4092712-.4092999 1.0728683 0 1.4821625.4092979.4093018 1.0729218.4093018 1.4821911.0000305.4092998-.4092942.4092998-1.0729218 0-1.4822159z"/><path d="m25.8427238 83.6976242c-.4092979-.4092941-1.0728931-.4092712-1.4821911.0000305-.4092693.4092712-.4092999 1.0728683 0 1.4821625.4092979.4093018 1.0729218.4093018 1.4821911.0000305.4092999-.4093017.4092999-1.0729217 0-1.4822235z"/><path d="m19.3758354 83.3553543c-.2622395.2622375-.6220779.3536987-.9635677.2805176l.9757767-1.7442169c.3902874.4147033.3903255 1.0611648-.012209 1.4636993z"/><path d="m22.137949 84.6371994c-.4092999-.4093018-1.0728931-.4092712-1.482193.0000305-.4092693.4092712-.4092979 1.0728607 0 1.4821625.4092999.4092941 1.0729237.4092941 1.482193.0000305.4092979-.4093017.4092979-1.0729217 0-1.4822235z"/><path d="m24.8585529 87.3743744-1.7259407.9697037c-.0670757-.3354568.0305233-.6891556.2866573-.9452896.396431-.396431 1.0367489-.4025345 1.4392834-.0244141z"/><path d="m18.4671364 87.0206757c-.4086018.4085999-1.0733757.4146652-1.4819775.0060654-.042696-.0426941-.085392-.0975952-.1158772-.1402969.0304852-.3841782.1463623-.7684402.3598385-1.1526184l.2622032-.4696121c.3354568-.0792847.7135735.0183105.9758129.2805481.4086018.4086073.4086381 1.0672759.0000001 1.4759139z"/><path d="m21.5225487 89.2466736-.5000591.2805176c-.3842201.2134399-.7684422.3293533-1.1526241.3598404 0 0-.0061054.0061035-.0122108 0-.0366268-.0244217-.0732174-.0610123-.109808-.0976028-.4086018-.4085999-.4024982-1.0733337.0061035-1.4819412.4086399-.408638 1.0672722-.408638 1.4758739-.0000381.2561721.256172.3537349.6099089.2927246.9392241z"/></g></svg>