<svg enable-background="new 0 0 110 110" height="512" viewBox="0 0 110 110" width="512" xmlns="http://www.w3.org/2000/svg"><ellipse cx="78.947" cy="68.493" fill="#feda6f" rx="19.224" ry="19.224" transform="matrix(.999 -.046 .046 .999 -3.038 3.668)"/><circle cx="78.947" cy="68.493" fill="#ededed" r="16.778"/><circle cx="78.947" cy="68.493" fill="#fed35b" r="14.958"/><path d="m94.8232956 67.9870911h-14.6548386l10.3625489-10.362545-.7157288-.715725-10.3625488 10.3625488v-14.6548423h-1.0122223v14.6549568l-10.3626633-10.3626633-.7157287.715725 10.3625488 10.362545h-14.6548424v1.0122299h14.6549568l-10.3626632 10.3626633.7157287.7157287 10.3626633-10.3626633v14.654953h1.0122223v-14.6548385l10.3625488 10.3625488.7157288-.7157287-10.3626633-10.3626633h14.654953z" fill="#ededed"/><path d="m45.5112228 22.2828541s-15.1873455 5.164938-20.0423317 28.673975h20.0423317 20.0423584c-4.8549842-23.509037-20.0423584-28.673975-20.0423584-28.673975z" fill="#ededed"/><path d="m45.5112267 22.2828541s-9.4044304 5.164938-12.4107742 28.673975h12.4107742 12.4107933c-3.0063439-23.509037-12.4107933-28.673975-12.4107933-28.673975z" fill="#dbd8dd"/><path d="m45.5112343 22.2828541s-2.179039 5.164938-2.875618 28.673975h2.875618 2.8756256c-.6965828-23.509037-2.8756256-28.673975-2.8756256-28.673975z" fill="#ededed"/><path d="m69.6099701 51.9926682c-.1312714-.9560051-.9861221-1.6711006-1.9978485-1.6711006h-43.4687023c-1.0117283 0-1.8665752.7150955-1.9978523 1.6711006l-4.6638203 33.9674454h56.7920494z" fill="#dd584d"/><path d="m76.6413498 81.1476974h-61.5271225c-1.8141155 0-3.2847233 1.4707489-3.2847233 3.2847214 0 1.8141174 1.4706078 3.284729 3.2847233 3.284729h61.5271225c1.8140793 0 3.2846832-1.4706116 3.2846832-3.284729 0-1.8139724-1.4706039-3.2847214-3.2846832-3.2847214z" fill="#cd5248"/></svg>