<svg enable-background="new 0 0 110 110" height="512" viewBox="0 0 110 110" width="512" xmlns="http://www.w3.org/2000/svg"><path d="m76.2587662 43.842041c-1.0780792-9.3792343-3.6331177-24.3536301-24.6232834-26.854847h-2.2537613l-4.1236839-1.5496244-4.7052155 1.5496244h-.2892799c-.9876671 0-1.8447227.6861687-2.0538368 1.6515961-.992012 4.5786743-3.6476631 18.6942444-4.6644173 42.5388412-1.2613335 29.5716362 1.983696 36.6115227 3.9673882 37.6896019 1.9836311 1.0888672 17.1306229 1.4447174 17.1306229 1.4447174s12.6782188-.1834488 16.8719597-1.6063232c4.1937408-1.4231415 4.7435074-18.0254517 4.7435074-18.0254517s1.0780791-27.4481086-.0000001-36.8381347zm-10.8561936.9380531c-2.7922554-1.0672874-8.8187447-14.7588348-8.8187447-14.7588348s-1.7248993-4.8192444 0-5.7786179c1.7357597-.9593735 5.1532516 1.1859932 7.06147 4.0535851 1.9189491 2.8678589 4.4200935 5.8754768 4.5602531 13.7562981.0000001 0-.0107878 3.8056488-2.8029784 2.7275695z" fill="#ededed"/><path d="m35.8795471 57.4950371c-.0640259 1.2331085-.1255493 2.4835815-.1806259 3.7748566-1.3718109 32.1665535 2.7036209 35.5934486 2.7899513 35.6766243 1.325489.5421982 9.4131851 1.0496521 16.1638145 1.2096786 3.4669075-.0526428 13.0085373-.4200745 16.1480179-1.4834137 1.4728851-.7811813 3.0478897-8.4382782 3.3037262-16.0764236.0070343-.18293.4761963-12.3323746.4757996-23.1013222z" fill="#feda6f"/><path d="m49.3410797 9.6880522h-8.8591461c-.7382164 0-1.3366737.5985222-1.3366737 1.336544v4.6257896c0 .7382822.5984573 1.3368082 1.3366737 1.3368082h8.8591461c.7382164 0 1.3366737-.598526 1.3366737-1.3368082v-4.6257896c0-.7380218-.5984573-1.336544-1.3366737-1.336544z" fill="#293b44"/><path d="m39.584713 56.2206078s.2671318-12.8143349 5.2481384-13.1629219c4.3396225-.3036995 6.6292343 2.117672 12.337738 8.6548309s10.4042092 12.4298172 10.4042092 12.4298172 1.3810959 1.3810883 1.749382 7.4578857c.3682938 6.0767899-.4603653 13.258461-.4603653 13.258461s.0920792 3.9591217-4.2353363 4.6957092c-4.3274193.7365799-14.5474854 1.5652313-20.8084259-.6445084 0 0-4.1432686-.9207306-4.6036339-4.3274155-.4603615-3.4066924.3682938-28.3618582.3682938-28.3618582z" fill="#dd584d"/><path d="m60.8960953 75.2772522c-.3196259-.7716217-.7814713-1.4411926-1.3423042-1.9914017.7286453-.2936478 1.4115791-.7352448 2.00214-1.3258209-.5905457-.5905151-1.2734795-1.0320435-2.002121-1.3257599.5608292-.550209 1.0226593-1.21978 1.3422852-1.9914017-.7715225-.3195953-1.5714226-.4664459-2.3569336-.4589767.3075066-.7228851.4778938-1.5181351.4778938-2.3531723-.8351021 0-1.6303177.1703568-2.3531837.4778442.0074692-.7854614-.1394348-1.5854111-.4590111-2.3568993-.7716522.3195915-1.4412117.7814064-1.9914055 1.3422432-.2936935-.7286148-.7352448-1.4115181-1.3257866-2.0021019-.5905457.5905838-1.0320969 1.2734871-1.3257904 2.0021019-.5501938-.5608368-1.2197495-1.0226517-1.9914017-1.3422432-.3195801.7714882-.4664841 1.5714378-.4590149 2.3568993-.7228661-.3074875-1.5180817-.4778442-2.3531799-.4778442 0 .8350372.1703873 1.6302872.47789 2.3531723-.785511-.0074692-1.5854111.1393814-2.3569336.4589767.3196259.7716217.781456 1.4411926 1.342289 1.9914017-.7286453.2937164-1.4115791.7352448-2.0021248 1.3257599.5905457.5905762 1.2734947 1.0321121 2.00214 1.3258209-.560833.550209-1.0226784 1.21978-1.3423042 1.9914017.7715225.3195953 1.5714226.4665146 2.3569336.4590454-.3075027.7228165-.47789 1.5180664-.47789 2.3531647.8350983 0 1.6303139-.1704178 2.3531799-.4779053-.0074692.7855225.1394348 1.5854111.4590149 2.3569641.7716522-.3196564 1.4412079-.7814713 1.9914017-1.3423004.2936935.7286072.7352448 1.4115753 1.3257904 2.0020905.5905418-.5905151 1.032093-1.2734833 1.3257866-2.0020905.5501938.5608292 1.2197533 1.022644 1.9914055 1.3423004.3195763-.771553.4664803-1.5714417.4590111-2.3569641.7228661.3074875 1.5180817.4779053 2.3531837.4779053 0-.8350983-.1703873-1.6303482-.4778938-2.3531647.785511.0074692 1.5854111-.1394501 2.3569336-.4590454zm-8.0084267-3.157753c-.0140533.0141068-.0256271.0295563-.0395164.0437164-.0074844-.0185394-.0138245-.0372772-.0215034-.0558167-.0180283.0074692-.0352821.0159683-.053196.0236282.0001945-.0195084.0014648-.0386963.0014648-.0582047-.0195236 0-.0387268.0012894-.0582008.0014877.0076294-.0179672.0161591-.0352173.0236282-.0532455-.0185432-.0076599-.0372925-.0139694-.0558662-.0215073.014164-.0138397.0296783-.0254288.0437317-.0395279-.0140533-.0140381-.0295677-.0256271-.0437164-.0394669.0185738-.0075302.0373077-.0138397.055851-.0215073-.0074692-.0180206-.0159988-.0352783-.0236282-.0532379.019474.0002518.0386772.0014801.0582008.0014801 0-.0195084-.0012703-.0386963-.0014648-.058136.0179138.0075912.0351677.0160904.053196.0235596.007679-.0185394.014019-.0372086.0215034-.0558167.0138893.0141602.0254631.0296783.0395164.0437164.0140495-.0140381.0256233-.0295563.0395126-.0437164.0074844.0186081.0138283.0372772.0215034.0558167.0180283-.0074692.0352821-.0159683.053196-.0235596-.0001907.0194397-.0014648.0386276-.0014648.058136.0195236 0 .0387268-.0012283.0582008-.0014801-.0076294.0179596-.0161591.0352173-.0236282.0532379.0185432.0076675.0372772.0139771.055851.0215073-.0141449.0138397-.0296631.0254288-.0437126.0394669.0140495.0140991.0295677.0256882.0437317.0395279-.0185738.0075378-.0373268.0138474-.0558701.0215073.0074692.0180283.0159988.0352783.0236282.0532455-.019474-.0001984-.0386772-.0014877-.0582008-.0014877 0 .0195084.0012741.0386963.0014648.0582047-.0179138-.0076599-.0351677-.0161591-.053196-.0236282-.0076752.0185394-.014019.0372772-.0215034.0558167-.0138894-.0141601-.0254632-.0296096-.0395127-.0437164z" fill="#feda6f"/><path d="m52.8876686 69.1943588c-1.5274467 0-2.765686 1.2383118-2.765686 2.7657394s1.2382393 2.7656708 2.765686 2.7656708 2.765686-1.2382431 2.765686-2.7656708-1.2382392-2.7657394-2.765686-2.7657394z" fill="#d6683d"/></svg>