<svg enable-background="new 0 0 110 110" height="512" viewBox="0 0 110 110" width="512" xmlns="http://www.w3.org/2000/svg"><path d="m45.7410355 43.1113319 11.7209244.7349739c-1.9941902-2.7328339 8.2756729-7.5602074 7.3671265-10.2857819-1.0627861-3.1883068-.0790405-6.6816883.7248154-8.7099514.4439392-1.1203098.2739334-2.3875999-.4727249-3.3331547l-1.7720566-2.2448902v-3.267355l-8.1484032-4.0413094-8.4698372 4.0413094v3.267355l-1.7720566 2.2448902c-.7466621.9455547-.9166603 2.2128448-.4727249 3.3331547.8038597 2.0282631 1.7876015 5.5216446.7248154 8.7099514-.9085427 2.7255746 2.5643081 6.8179704.5701217 9.550808z" fill="#dbd8dd"/><path d="m71.9222412 89.7990112v-17.5980453-20.5022888s1.1146469-1.4185448 1.1146469-4.2560616c0-2.8370934-6.5865173-9.0184441-8.2078018-13.8820915-.4734192-1.4202538-.5284271-2.8951988-.3865204-4.2799892h-18.8851318c.1419067 1.3847904.086895 2.8597355-.3865204 4.2799892-1.6212883 4.8636475-8.2078018 11.0449982-8.2078018 13.8820915 0 2.8375168 1.1146469 4.2560616 1.1146469 4.2560616v19.5351944 18.5651398l-.1149368.1046829c-.6794701.6174088-1.0575523 1.4924622-1.0572853 2.4110947.0005341 1.9863968.2931633 5.3263855 2.1855011 6.0976105 2.7359313 1.1147536 15.9089622 1.2160186 15.9089622 1.2160186s13.173027-.101265 15.9089661-1.2160187c1.892334-.771225 2.184967-4.1112137 2.1855011-6.0976105.000267-.9186325-.3778229-1.7936859-1.0572891-2.4110947z" fill="#dd584d"/><path d="m63.5679398 10.371582h-8.7174301-8.7174339c-.3708725 0-.671566.3008003-.671566.6716728v4.2902451c0 .3708725.3006935.6716728.671566.6716728h8.7174339 8.7174301c.3708725 0 .6715622-.3008003.6715622-.6716728v-4.2902451c0-.3708724-.3006897-.6716728-.6715622-.6716728z" fill="#ededed"/><path d="m38.077759 51.698677h33.959419v38.205013h-33.959419z" fill="#ededed"/><ellipse cx="55" cy="73.059" fill="#dd584d" rx="10.278" ry="9.239"/><path d="m64.6767044 76.174614c-1.4186974 3.57164-5.2133102 6.1245422-9.6769867 6.1245422-5.6746979 0-10.2767296-4.1368408-10.2767296-9.2386932 0-1.8723907.61903-3.6139755 1.6840057-5.0672684-.3844643.9650116-.5920906 2.0069427-.5920906 3.0949173 0 5.1056976 4.6020279 9.2425385 10.2805748 9.2425385 3.583191-.0000001 6.7435227-1.6493684 8.5812264-4.1560364z" fill="#cd5248"/><path d="m55.7739029 63.5994492c-.3634834-1.9674225.7935219-2.4796333.7935219-2.4796333l-.2081871-.2544174c-1.4425888.3733406-1.912468 1.9639511-2.0611954 2.7862396-.9544487.0560379-4.1965866.4246864-7.6026077 2.8458443 0 0 .160881.3094254 2.3239632-.5362854 2.0005112-.7821655 2.336216-1.40448 3.9871788-1.5430222-.8012657.3670044-1.7428093 1.0464859-2.4776649 2.3203049-1.5867157 2.7503815-1.5867157 2.7503815-1.5867157 2.7503815s2.1459541-2.4434509 3.2970009-3.2927246c.9935417-.733078 2.1391945-1.4719696 2.4346733-1.66082-.207859.7792511-.4144516 2.1053543.0176964 3.5254135.6797562 2.2333908.5035744 2.7189407.5035744 2.7189407s.8235588-1.7479248.6941223-3.7871017c-.0648613-1.0215683-.194767-1.815506-.3081551-2.3536758.4626999.2590179 1.4621124.8283005 2.3503418 1.4004898 1.2025299.7746582 3.4989433 3.0772171 3.4989433 3.0772171s0 0-1.7577782-2.6443634c-.6989059-1.0514145-1.5221825-1.6546707-2.262249-2.0051575 1.308033.2032089 1.7498932.7824402 3.5702362 1.4941177 2.1630821.8457108 2.3239632.5362854 2.3239632.5362854-3.2357522-2.3001252-6.3858109-2.7926713-7.5306626-2.8980332z" fill="#4abba4"/></svg>