<svg enable-background="new 0 0 110 110" height="512" viewBox="0 0 110 110" width="512" xmlns="http://www.w3.org/2000/svg"><path d="m57.6547699 7.4089956s5.9016991 18.9927368 0 35.4101868l-1.8522835-.5365181c0 .000001 5.5006066-18.2416124 1.8522835-34.8736687z" fill="#cd5248"/><path d="m52.3452301 7.4089956s-5.9016991 18.9927368 0 35.4101868l1.8522835-.5365181c0 .000001-5.5006066-18.2416124-1.8522835-34.8736687z" fill="#cd5248"/><g fill="#de594e"><path d="m69.9188919 9.3692579c-.6917877-.4305477-1.5017319.3182011-1.1296158 1.0431023 2.4018936 4.6791477 1.449173 10.6552057 1.449173 10.6552057-2.4760818-1.1692543-3.6899643-3.24617-4.2842255-4.94664-.253746-.7261534-1.2986984-.6933908-1.5151596.0445614-4.1916771 14.291378 5.7993851 17.4111462 5.7993851 17.4111462-5.212059.5211754-6.7373009 7.1665268-6.7373009 7.1665268-3.8706818 1.9545326-2.8421402 3.8225746-2.8421402 3.8225746s-6.1870956 11.9439621.4583206 8.4259071c6.6453819-3.5181808 5.8635902-10.6848297 5.8635902-10.6848297 5.9630051-3.0419426 6.2544708-7.5575333 6.2544708-7.5575333 3.1272659-1.5635262 5.8635864-5.8635921 5.9938812-13.5514202.0867082-5.1147156-5.536537-9.4796762-9.3103789-11.8286009z"/><path d="m62.1561127 53.6400299s5.8186035-.7906303 10.492569-8.2308121c0 0 5.3416672-1.5261917 6.9632416-9.9202423l1.240036 1.9325981 1.9077377-1.9325981s-.2861633 6.295536-8.2986679 12.0187531c0 0-3.0523834 7.4401855-12.3049164 9.3479233"/><path d="m60.778595 63.0100861s12.0241394-9.7554321 15.7675018-8.2807732 9.868866 6.4658089 9.868866 6.4658089l-3.6552658-1.442131.8193817 3.2570953s-4.6508408-5.8986359-9.3016891-4.9911499c-4.6508484.9074783-9.415123 7.9404678-13.4987946 9.415123s0-4.4239731 0-4.4239731z"/><path d="m58.3263016 72.693512s9.804512-7.9546127 12.8568649-6.7521667c3.0523529 1.2024384 8.0471039 5.2722397 8.0471039 5.2722397l-2.9805145-1.1759186.668129 2.6558456s-3.7923126-4.809761-7.5846252-4.0698013c-3.7923126.7399673-7.677124 6.474678-11.006958 7.677124-3.3298379 1.2024383-.0000001-3.6073227-.0000001-3.6073227z"/><path d="m63.5011482 91.1575089-3.9630051-3.9144592c-.9650269-.9532242-2.4015808-1.2473297-3.6635361-.75l-.8745842.3446884-.8746185-.3446884c-1.2619514-.4973297-2.6985092-.2032242-3.6635361.75l-3.9630051 3.9144592s-6.8696594.4569092-7.0219536 3.3504791c-.1522903 2.8935699 2.7413139 4.5688095 5.0257187 4.8734589 0 0 3.9262886 4.2114487 10.4973946 2.9859619 6.571106 1.2254868 10.4973602-2.9859619 10.4973602-2.9859619 2.2844086-.3046494 5.178009-1.9798889 5.0257187-4.8734589s-7.0219535-3.3504791-7.0219535-3.3504791z"/><path d="m40.0811043 9.3692579c.6917953-.4305477 1.5017357.3182011 1.1296196 1.0431023-2.4018936 4.6791477-1.4491692 10.6552057-1.4491692 10.6552057 2.476078-1.1692543 3.6899567-3.24617 4.2842178-4.94664.253746-.7261534 1.2986984-.6933908 1.5151672.0445614 4.1916733 14.291378-5.7993851 17.4111462-5.7993851 17.4111462 5.212059.5211754 6.7372971 7.1665268 6.7372971 7.1665268 3.8706818 1.9545326 2.8421402 3.8225746 2.8421402 3.8225746s6.1870956 11.9439621-.4583206 8.4259071c-6.6453819-3.5181808-5.8635902-10.6848297-5.8635902-10.6848297-5.9630051-3.0419426-6.2544708-7.5575333-6.2544708-7.5575333-3.1272659-1.5635262-5.8635883-5.8635921-5.9938831-13.5514202-.0867043-5.1147156 5.536539-9.4796762 9.3103771-11.8286009z"/><path d="m47.8438873 53.6400299s-5.8186073-.7906303-10.4925652-8.2308121c0 0-5.341671-1.5261917-6.9632492-9.9202423l-1.2400303 1.9325981-1.9077377-1.9325981s.2861595 6.295536 8.2986622 12.0187531c0 0 3.0523834 7.4401855 12.3049202 9.3479233"/><path d="m49.221405 63.0100861s-12.0241356-9.7554321-15.767498-8.2807732-9.868866 6.4658089-9.868866 6.4658089l3.6552639-1.442131-.8193836 3.2570953s4.6508446-5.8986359 9.3016891-4.9911499c4.6508446.9074783 9.415123 7.9404678 13.4987946 9.415123s0-4.4239731 0-4.4239731z"/><path d="m51.6736984 72.693512s-9.8045158-7.9546127-12.8568649-6.7521667c-3.0523491 1.2024384-8.047102 5.2722397-8.047102 5.2722397l2.9805126-1.1759186-.668129 2.6558456s3.7923126-4.809761 7.5846291-4.0698013c3.7923126.7399673 7.6771202 6.474678 11.0069542 7.677124 3.3298378 1.2024383 0-3.6073227 0-3.6073227z"/></g><path d="m63.4707718 57.5393677c.5803299-11.2195625-7.3507309-20.1178169-7.3507309-20.1178169h-1.1093178-.0214348-1.109314s-7.9310608 8.8982544-7.3507309 20.1178169c.5803261 11.2195587 2.3212776 12.5735855 2.3212776 12.5735855s-2.396595 2.3131485.0064011 4.8051758c0 0-1.9580116 1.1569519-.1779938 4.093956 0 0-1.2460098 1.6020584.2669907 3.6491013 0 0-.1830139 3.4709778 1.2434998 4.3609467h4.7998695.0214348 4.7998695c1.4265175-.8899689 1.2435036-4.3609467 1.2435036-4.3609467 1.5130005-2.0470428.2669868-3.6491013.2669868-3.6491013 1.7800217-2.9370041-.1779938-4.093956-.1779938-4.093956 2.4029961-2.4920273.0064049-4.8051758.0064049-4.8051758s1.7409516-1.3540268 2.3212777-12.5735855z" fill="#cd5248"/><path d="m61.3656883 57.5393677c.4361076-11.2195625-5.5239906-20.1178169-5.5239906-20.1178169h-.8336372-.0161057-.8336411s-5.9600945 8.8982544-5.5239868 20.1178169 1.7444153 12.5735855 1.7444153 12.5735855-1.8010139 2.3131485.0048103 4.8051758c0 0-1.4714241 1.1569519-.1337624 4.093956 0 0-.9363594 1.6020584.2006416 3.6491013 0 0-.1375351 3.4709778.9344749 4.3609467h3.607048.0161057 3.6070442c1.07201-.8899689.9344788-4.3609467.9344788-4.3609467 1.137001-2.0470428.2006378-3.6491013.2006378-3.6491013 1.3376656-2.9370041-.1337585-4.093956-.1337585-4.093956 1.8058205-2.4920273.0048103-4.8051758.0048103-4.8051758s1.308304-1.3540268 1.7444154-12.5735855z" fill="#de594e"/></svg>