<svg enable-background="new 0 0 110 110" height="512" viewBox="0 0 110 110" width="512" xmlns="http://www.w3.org/2000/svg"><path d="m52.209572 68.944038h5.469443v30.40552h-5.469443z" fill="#ededed"/><path d="m74.7346649 52.063736c0-6.1457481-2.4279709-11.6782036-6.3101425-15.5604935-3.5281372-3.5406761-8.263916-5.7031822-13.4802284-5.7031822s-9.9520912 2.1625061-13.4802246 5.7031822c-3.8822136 3.8822899-6.3101463 9.4147453-6.3101463 15.5604935 0 4.3858261 1.2355766 10.4596825 3.3518105 13.8444519-1.0979233 1.1106567-1.7769394 2.6365585-1.7769394 4.3217697 0 3.396347 2.7532234 6.1496048 6.1495323 6.1496048 2.0201797 0 3.8073044-.9785233 4.9283447-2.482811 2.2147942.9204788 4.6199608 1.4305038 7.1376228 1.4305038 2.5176201 0 4.9227104-.510025 7.1374702-1.4303513 1.1210365 1.5041351 2.908165 2.4826584 4.9283447 2.4826584 3.3962708 0 6.1494904-2.7532578 6.1494904-6.1496048 0-1.6852112-.678978-3.2109528-1.776825-4.3217697 2.1163102-3.384613 3.3518906-9.4586257 3.3518906-13.8444518z" fill="#d6683d"/><path d="m72.1313782 73.6422043c-1.1000366 1.6499023-2.9800415 2.7399902-5.1200562 2.7399902-2.0199585 0-3.8100014-.9799805-4.9299965-2.4899902-2.2099609.9199219-4.6199951 1.4301758-7.1399536 1.4301758-2.5100098 0-4.9200439-.5102539-7.1300049-1.4301758-1.1300049 1.5100098-2.9100342 2.4899902-4.9299927 2.4899902-3.4000244 0-6.1500244-2.7600098-6.1500244-6.1499023 0-1.6901855.6799927-3.2099609 1.7700195-4.3200684-2.1100464-3.3898926-3.3500366-9.4599609-3.3500366-13.8500977 0-6.1398926 2.4299927-11.6799316 6.3099976-15.5598145.2200317-.2199707.4500122-.4401855.6799927-.6501465-3.3499756 3.8100586-5.4099731 8.9501953-5.4099731 14.6000977 0 4.3901367 1.2299805 10.4599609 3.3499756 13.8500977-1.0999756 1.1098633-1.7799683 2.6298828-1.7799683 4.3198242 0 3.4001465 2.7600098 6.1501465 6.1499634 6.1501465 2.0200195 0 3.8099976-.9802246 4.9300537-2.4802246 2.2099609.920166 4.6199951 1.4301758 7.1399536 1.4301758 2.5200195 0 4.9200439-.5100098 7.1400146-1.4301758 1.1199989 1.5 2.9000282 2.4802246 4.9199867 2.4802246 1.3200074 0 2.5500489-.420166 3.5500489-1.1301269z" fill="#963e25"/><ellipse cx="54.944" cy="27.286" fill="#d6683d" rx="15.402" ry="15.402" transform="matrix(.383 -.924 .924 .383 8.709 67.606)"/><path d="m68.42453 36.5032692c-2.6303101 4.735775-7.6822243 7.9414825-13.4802246 7.9414825-5.7980423 0-10.8499565-3.2057076-13.4802284-7.9414825 3.5281372-3.5406761 8.2639122-5.7031803 13.4802284-5.7031803s9.9520874 2.1625042 13.4802246 5.7031803z" fill="#963e25"/><path d="m73.1595993 16.8000488c0-3.396347-2.7532196-6.1496077-6.1494904-6.1496077-2.1832657 0-4.0959702 1.1410685-5.1872177 2.8560677-2.0708504-1.0357914-4.4057426-1.6219168-6.8787117-1.6219168-2.4729729 0-4.807827.5861254-6.8786774 1.6219168-1.0912094-1.7149992-3.0039101-2.8560677-5.1871758-2.8560677-3.3963089 0-6.1495323 2.7532606-6.1495323 6.1496077 0 2.4900665 1.4827194 4.6294174 3.6109543 5.5965157-.5143852 1.5368614-.7972183 3.1797714-.7972183 4.889677 0 8.5061474 6.8955383 15.4016514 15.4016495 15.4016514s15.4016838-6.895504 15.4016838-15.4016514c0-1.7099056-.2828293-3.3528156-.7972183-4.889677 2.1281967-.9670983 3.6109543-3.1064491 3.6109543-5.5965157z" fill="#d6683d"/><g fill="#c65938"><circle cx="54.943" cy="34.712" r="4.322"/><path d="m61.356205 20.4808292c-.9140625 0-1.6550293.7409668-1.6550293 1.6550293s.7409668 1.6550293 1.6550293 1.6550293c.9140015 0 1.6549683-.7409668 1.6549683-1.6550293s-.7409668-1.6550293-1.6549683-1.6550293z"/><path d="m48.5298576 20.4808292c-.9140625 0-1.6550293.7409668-1.6550293 1.6550293s.7409668 1.6550293 1.6550293 1.6550293c.9140015 0 1.6549683-.7409668 1.6549683-1.6550293s-.7409668-1.6550293-1.6549683-1.6550293z"/></g><path d="m71.1358185 39.7921677c-3.3865662 0-6.1320419 2.7453918-6.1320419 6.1322098 0 3.3864861 2.7454758 6.1318779 6.1320419 6.1318779 3.3866577 0 6.1320496-2.7453918 6.1320496-6.1318779-.0000001-3.386818-2.7453919-6.1322098-6.1320496-6.1322098z" fill="#d6683d"/><path d="m38.8641777 39.7921677c-3.3865662 0-6.1320419 2.7453918-6.1320419 6.1322098 0 3.3864861 2.7454758 6.1318779 6.1320419 6.1318779 3.3866539 0 6.1320457-2.7453918 6.1320457-6.1318779 0-3.386818-2.7453918-6.1322098-6.1320457-6.1322098z" fill="#963e25"/><path d="m40.3819046 39.7921677c-3.3865662 0-6.1320419 2.7453918-6.1320419 6.1322098 0 3.3864861 2.7454758 6.1318779 6.1320419 6.1318779 3.3866539 0 6.1320457-2.7453918 6.1320457-6.1318779 0-3.386818-2.7453918-6.1322098-6.1320457-6.1322098z" fill="#d6683d"/></svg>