<svg enable-background="new 0 0 110 110" height="512" viewBox="0 0 110 110" width="512" xmlns="http://www.w3.org/2000/svg"><path d="m28.634672 53.595905h4.462322v15.992371h-4.462322z" fill="#293b44"/><path d="m80.5654221 17.5887547h-38.3555642c-2.1745377 0-4.2815475.754179-5.9619904 2.1341248l-12.7751483 10.4900588c-2.1732349 1.7844772-3.4328499 4.448679-3.4328499 7.2607136v20.5081901c0 2.1102676 1.7108192 3.8210869 3.8212147 3.8210869h56.7043381c5.1886444 0 9.3947067-4.2061958 9.3947067-9.3947105v-25.4247551c0-5.1886463-4.2060623-9.3947086-9.3947067-9.3947086zm.4236984 12.1963157c-.6833878.6833897-1.6340332 1.1107368-2.6806259 1.1107368h-28.1730461c-2.0933189 0-3.7913628-1.6981735-3.7913628-3.7913628 0-1.0465946.4270859-1.9971066 1.1107368-2.6806259.6833878-.6835194 1.6340332-1.1107349 2.6806259-1.1107349h28.1730461c2.0933151 0 3.7913589 1.6981716 3.7913589 3.7913609.0000001 1.0465946-.4270858 1.9971066-1.1107329 2.6806259z" fill="#dd584d"/><path d="m35.3525772 68.3307114h-8.9724464c-2.6115322 0-4.7360077 2.1244812-4.7360077 4.7360077v14.6085205c0 2.6115265 2.1244755 4.7360077 4.7360077 4.7360077h8.9724464c2.6104889 0 4.7349663-2.1244812 4.7349663-4.7360077v-14.6085205c0-2.6115265-2.1244774-4.7360077-4.7349663-4.7360077zm-10.5045319 19.3445282v-14.6085205c0-.84478.6873016-1.5320816 1.5320854-1.5320816h2.8837395v17.6726837h-2.8837395c-.8447837 0-1.5320854-.6873017-1.5320854-1.5320816zm12.0355721 0c0 .84478-.6872978 1.5320816-1.5310402 1.5320816h-2.8847847v-17.6726837h2.8847847c.8437424 0 1.5310402.6873016 1.5310402 1.5320816z" fill="#ededed"/><path d="m49.794289 40.517258h28.855368v11.59044h-28.855368z" fill="#ededed"/><path d="m56.8157806 44.0083542c-1.2726517 0-2.3041229 1.0317307-2.3041229 2.3041229 0 1.272522 1.0314713 2.3041229 2.3041229 2.3041229 1.2723923 0 2.3039932-1.031601 2.3039932-2.3041229.0000001-1.2723923-1.0316009-2.3041229-2.3039932-2.3041229z" fill="#4abba4"/><path d="m64.2220383 44.0083542c-1.2726555 0-2.3041267 1.0317307-2.3041267 2.3041229 0 1.272522 1.0314713 2.3041229 2.3041267 2.3041229 1.2723923 0 2.3039932-1.031601 2.3039932-2.3041229 0-1.2723923-1.031601-2.3041229-2.3039932-2.3041229z" fill="#4288b9"/><path d="m71.6282883 44.0083542c-1.2726517 0-2.3041229 1.0317307-2.3041229 2.3041229 0 1.272522 1.0314713 2.3041229 2.3041229 2.3041229 1.2723923 0 2.3039932-1.031601 2.3039932-2.3041229 0-1.2723923-1.031601-2.3041229-2.3039932-2.3041229z" fill="#feda6f"/></svg>