<svg enable-background="new 0 0 110 110" height="512" viewBox="0 0 110 110" width="512" xmlns="http://www.w3.org/2000/svg"><path d="m47.2400665 69.4712524s-25.9937038-36.9613647 9.2159233-57.142765c0 0 .0011711 10.0789719 6.2298012 16.4031181s20.4975662 32.9442558-11.9354248 45.655304z" fill="#4abba4"/><path d="m50.7503662 74.3869095s6.1873093-10.7643204 1.7851944-42.0425034c0 0-1.5942497-6.7190189-.1020546-11.1211338" fill="#4abba4"/><path d="m63.6001053 41.960144s.4793701 11.8403511-9.1749153 16.0964775c.0975494-1.5045624.1573601-3.0117035.1610985-4.5183296.0630379-1.7812119-.0314827-3.55933-.0458069-5.3395119-.0850334-1.7770844-.2209091-3.551075-.3463974-5.3245468l-.5447235-5.3044128c-.2219429-1.7631493-.5078239-3.5180397-.7584114-5.2755127l-.0026436-.0180664-.0036125-.0149651c-.4387894-1.786377-.6973114-3.6424332-.849575-5.4907455-.1318741-1.8514099-.0821953-3.7306919.3983994-5.5470028-.6731186 1.7610836-.8324776 3.6816578-.8382187 5.5635204.0054855 1.894249.2319412 3.7673359.591114 5.6399078l-.0061951-.0325165c.1903305 1.7595367.3453674 3.5216522.5643387 5.2760277l.4660149 5.2801552c.066906 1.1592598.1302643 2.3185234.1891022 3.4777832-6.6283875-4.265934-7.7079697-8.7563896-7.8682327-10.3693428.2342644 5.9800491 6.471096 11.1683311 7.9608803 12.3198509.0714874 1.7172127.1191025 3.4349403.1180687 5.1531868l-.0185814 2.6457558-.1094208 2.6421432c-.1009064 1.7590179-.191555 3.5221672-.406208 5.2718964-.4322701 3.4886169-.9554443 7.018013-2.3258095 10.2950134 1.6738548-3.1489944 2.4459419-6.6995544 3.008152-10.2021103.2583961-1.6325607.4467239-3.2749329.5822754-4.9214325 2.1296766-1.0699691 10.0515898-5.8401755 9.2593077-17.3032226z" fill="#41a38e"/><path d="m45.5314407 36.059063c-.008194-.2090378-.0331612-.415493-.0261307-.6260796.0000001 0-.01342.2276192.0261307.6260796z" fill="#41a38e"/><path d="m52.4837799 74.7283783s32.0544357-7.6941071 36.2774582 21.6099701c0 0-6.8359451-2.7083817-12.7992554-.1839752-5.9633026 2.5244064-27.8526649 5.0463715-27.7555847-20.3665848z" fill="#4abba4"/><path d="m48.206398 75.7877884s5.6373253 7.0896683 28.0336838 12.511528c0 0 4.9854126.7248001 7.56987 2.9200821" fill="#4abba4"/><path d="m66.7445297 93.2187119s-8.1590652-2.8575058-8.4505806-10.5491409c.9941826.4705811 2.0002594.9162521 3.0210609 1.323761 1.1910858.5215302 2.4224243.935379 3.633606 1.4041672 1.2280884.4199982 2.4677429.8046875 3.7042618 1.1962814l3.7439117 1.0563583c1.2554321.3234024 2.5224609.6012192 3.7817459.9036713l.0129623.0030594.0111237.0015717c1.3294754.182579 2.657753.5061493 3.9522247.8996964 1.2910843.4082108 2.5522766.9470444 3.6549301 1.7612-1.0134506-.9298782-2.2731628-1.5541992-3.5479126-2.0639267-1.286171-.5054474-2.6173782-.8553391-3.9839172-1.1150818l.0237198.0045395c-1.2444916-.3438721-2.4812469-.7123718-3.7299347-1.0354233l-3.7062988-1.1032257c-.8042068-.2662277-1.6074524-.5348587-2.4094925-.8065567 4.6748657-3.3487625 8.0105133-2.8739319 9.1475067-2.5490723-4.1186829-1.4485245-9.3138428 1.3867569-10.4952545 2.087616-1.1838455-.4130936-2.361618-.842514-3.5266685-1.305069l-1.7893753-.7237701-1.7625084-.7844009c-1.1658592-.5412521-2.3372726-1.0766525-3.4662552-1.6925507-2.2498169-1.2308884-4.5028496-2.5343933-6.3569908-4.3446274 1.6857491 1.9816589 3.8862305 3.4596634 6.1105728 4.7824249 1.0377617.6140671 2.1010094 1.1832581 3.1812401 1.7177582.1532173 1.7319639 1.259037 8.3868711 9.2463226 10.9307402z" fill="#41a38e"/><path d="m75.603447 82.5505905c.1439743.0506287.2907028.0891876.431633.1505661 0 0-.1507645-.0702896-.431633-.1505661z" fill="#41a38e"/><path d="m89.6668777 37.3247337c-3.4564514-3.4564476-11.815239-.7017975-18.6694641 6.1524277s-9.6088753 15.2130127-6.1524277 18.6694641c3.4564514 3.4564476 11.8151398.7016907 18.6693649-6.1525307 6.8542176-6.8542251 9.6089784-15.2129096 6.1525269-18.6693611z" fill="#4abba4"/><path d="m85.2059708 67.8321609c-7.1876526 7.1876526-20.9402008 9.2921677-28.139534 2.0928345-7.187355-7.1873589-5.094738-20.9518051 2.0929108-28.1394539 5.8119049-5.8119011 17.1015472-11.4808846 25.795166-8.8613548l-18.4407272 27.553463 27.7572556-18.5487518c3.2164534 9.0534668-3.1574098 19.9955978-9.0650712 25.903263z" fill="#fed35b"/><g fill="#bb9b45"><circle cx="88.964" cy="52.007" r="1.034"/><circle cx="85.46" cy="60.766" r="1.034"/><circle cx="74.343" cy="62.388" r="1.034"/><circle cx="62.495" cy="44.888" r="1.034"/><path d="m69.906662 70.7329254c.1747437-.3729858.0140152-.8175049-.3594131-.9923935-.3728409-.1754761-.8178711-.0143814-.9926147.3586121-.1753235.3735657-.0146713.8180161.3588333.9929733.3734206.1748886.8177947.0143128.9931945-.3591919z"/><path d="m59.5021248 59.2723618c.1747398-.3729897.0140114-.8175087-.3594131-.9923973-.3728409-.1754723-.8178749-.0143776-.9926147.3586082-.1753273.3735733-.0146713.8180199.3588257.992981.3734282.1748886.8178023.0143089.9932021-.3591919z"/><path d="m75.0953217 38.1848564c.1747437-.3729858.0140152-.8175087-.3594131-.9923973-.3728409-.1754723-.8178711-.0143776-.9926147.3586121-.1753311.3735695-.0146713.8180161.3588257.9929771.3734282.1748886.8178023.0143089.9932021-.3591919z"/></g><path d="m22.2861633 54.3667183c-4.1113377 2.6440468-3.1936398 11.397068 2.0495701 19.5499535s12.8268528 12.6189575 16.9381924 9.9749069c4.1113396-2.644043 3.1935158-11.3969803-2.0496941-19.5498657s-12.8267288-12.6190415-16.9380684-9.9749947z" fill="#4abba4"/><path d="m51.1516151 65.2013168c5.4982681 8.5494843 4.6357956 22.4353638-3.9275818 27.9425659-8.5491371 5.4980469-21.555788.5315475-27.0540562-8.0179367-4.4458733-6.9130707-7.5894108-19.1487427-3.1843109-27.0882683l23.0115223 23.868885-12.234518-31.0618438c9.5298863-1.2215347 18.8698139 7.3296128 23.3889446 14.3565979z" fill="#fed35b"/><g fill="#bb9b45"><circle cx="36.485" cy="58.17" r="1.034"/><circle cx="44.3" cy="63.454" r="1.034"/><circle cx="43.526" cy="74.661" r="1.034"/><circle cx="23.909" cy="82.525" r="1.034"/><path d="m50.7389488 80.7677155c-.3274002-.2499313-.7959061-.1872101-1.0460739.1405869-.2506104.327095-.1876488.7961807.1397514 1.0461121.3278465.2506256.7962685.1879654 1.0465202-.1398849.2501641-.3277971.1875611-.7961351-.1401977-1.0468141z"/><path d="m37.3311081 88.5026321c-.3274002-.2499313-.7959061-.1872177-1.0460701.1405792-.2506104.3271027-.1876488.7961884.1397514 1.0461197.3278465.250618.7962646.1879654 1.0465164-.1398926.2501641-.3277969.1875611-.7961272-.1401977-1.0468063z"/><path d="m20.0338154 68.788826c-.3274002-.2499313-.795908-.1872177-1.046072.1405792-.2506123.3271027-.1876488.7961884.1397514 1.0461121.3278465.2506256.7962666.1879654 1.0465183-.1398849.2501641-.327797.1875611-.7961274-.1401977-1.0468064z"/></g></svg>