<svg enable-background="new 0 0 110 110" height="512" viewBox="0 0 110 110" width="512" xmlns="http://www.w3.org/2000/svg"><path d="m60.2504616 42.8782578-1.9564171-24.1811562-3.6283341 5.0910473-.864643 17.1981869z" fill="#41a38e"/><path d="m68.0811157 59.0833092c-7.8521156-3.9809494-7.8521156-10.548317-7.8521156-10.548317h.0214615v-5.6567345l-10.4851723-5.6565285v11.3132629s0 6.5673676-7.8436584 10.548317-16.8537198 16.7692223-6.6857109 28.9741326c0 0 4.1585159 4.3697128 7.7253151 5.5277634l.0760384.025177c.008461 0 .016922.008667.033741.008667l2.848484.9042358c.1605453.0507584.3126259.1015244.4732704.1436157h.008461c5.6122665 1.6735229 11.5880203 1.6735229 17.2001839 0h.008461c.1605415-.0420914.3128319-.0928574.4733696-.1436157l2.8314667-.8959808c.0252762-.008255.0506592-.016922.0760422-.025177l.0507584-.016922c3.566803-1.1580505 7.7167511-5.5277634 7.7167511-5.5277634 10.1764677-12.2049103 1.1665114-24.9931831-6.6771471-28.9741325z" fill="#dbd8dd"/><path d="m62.5807533 59.0833092c-4.5504494-3.9809494-4.5504494-10.548317-4.5504494-10.548317h.0124359v-5.6567345l-6.076355-5.6565285v11.3132629s0 6.5673676-4.5455475 10.548317-9.7670479 16.7692223-3.8744965 28.9741325c0 0 2.4099388 4.3697128 4.4769669 5.5277634l.0440674.025177c.0049019 0 .0098038.008667.0195503.008667l1.650753.9042358c.0930367.0507584.1811714.1015244.2742691.1436157h.0049019c3.2524147 1.6735229 6.715477 1.6735229 9.9678345 0h.0049019c.0930367-.0420914.1812897-.0928574.2743263-.1436157l1.6408882-.8959808c.0146484-.008255.0293579-.016922.0440674-.025177l.0294189-.016922c2.0670242-1.1580505 4.4720001-5.5277634 4.4720001-5.5277634 5.8974611-12.2049102.6760179-24.993183-3.8695334-28.9741324z" fill="#ededed"/><path d="m57.6398964 59.0833092c-1.5846329-3.9809494-1.5846329-10.548317-1.5846329-10.548317h.0043297v-5.6567345l-2.1160088-5.6565285v11.3132629s0 6.5673676-1.5829277 10.548317c-1.5829239 3.9809494-3.4012413 16.7692223-1.3492393 28.9741325 0 0 .8392296 4.3697128 1.5590439 5.5277634l.0153465.025177c.0017052 0 .0034142.008667.0068054.008667l.574852.9042358c.032402.0507584.0630913.1015244.0955124.1436157h.001709c1.1326065 1.6735229 2.3385735 1.6735229 3.4711609 0h.001709c.0323982-.0420914.0631332-.0928574.0955315-.1436157l.5714149-.8959808c.0051041-.008255.0102234-.016922.0153465-.025177l.0102463-.016922c.7198143-1.1580505 1.557312-5.5277634 1.557312-5.5277634 2.0537109-12.2049102.2354164-24.993183-1.3475113-28.9741324z" fill="#dbd8dd"/><g fill="#ededed"><path d="m58.008358 101.0902481c-.0512276 0-.1024551-.015419-.1472168-.0467529-.1148911-.0815659-.1417503-.2407227-.0606804-.3551178.1422462-.2004318.1636353-.4819412.0527229-.7007828-.0770912-.1526871-.2143669-.2829971-.3600922-.4207687-.1606483-.1526947-.326767-.3103561-.4441452-.522728-.2188416-.3964005-.1949692-.8345795-.1715927-1.2583313.0218849-.3909302.0417786-.7599716-.1447334-1.0220795-.1079254-.1521988-.2874756-.2705688-.4774666-.3964005-.2989159-.1979523-.6381187-.4222641-.7351036-.8350754-.0820656-.3511429.0601807-.6868591.1641312-.9325562.0547066-.1293182.2034187-.1899948.3337288-.1347885.1293144.0547104.1899948.2039185.1347847.3337326-.0989723.2342606-.1775589.4421539-.1367722.6172256.0507278.2158585.2685738.3600922.5202408.5267105.220829.1457291.4486237.2969284.6112595.5257111.2904625.4078445.2626076.9061966.2387352 1.345871-.0203934.3680496-.0397911.7157059.1084251.983284.0795784.1437378.2103844.2680817.3491478.3998795.1705971.161644.3471603.3292542.4640427.5605316.1964569.388443.1606483.8693924-.0915146 1.2250061-.049736.0701295-.1283226.1074296-.207901.1074296z"/><path d="m60.2693748 100.4183121c-.0164146 0-.0323296-.0014954-.0487404-.0044785-.1382675-.0268555-.2282906-.1606445-.201931-.2984161.0954933-.4928894-.0547104-1.029541-.3914261-1.4010773-.1303062-.1432343-.2909584-.2720566-.4610558-.4078369-.3665581-.29245-.7455482-.594841-.8629265-1.0907135-.0223808-.0935059-.0333214-.1914902-.043766-.2894669-.0164146-.1566696-.030838-.291954-.0979805-.3675537-.0397911-.0447617-.1129036-.0825653-.1904907-.1228485l-.0621719-.0328293c-.6147423-.3317413-1.054409-.9405136-1.1762657-1.6278687-.0243683-.1382675.0676422-.2705688.2064095-.2949371.1352806-.0263596.270565.0676422.2949333.2064056.0935059.5277023.4446449 1.0131302.9166412 1.2677841l.055706.0293427c.1094208.0571976.2332649.1213531.3352242.2357483.1765633.1979523.2019272.4396744.2248077.653038.0079575.0765991.015419.1531906.0323296.2258072.0770912.3247757.3725243.560524.6853676.8102036.1780548.1422424.3625755.2894669.5202408.4635391.4426537.487915.6396103 1.1931763.5147705 1.8397522-.0238724.1218567-.1303101.2064057-.2496758.2064057z"/><path d="m56.2474899 101.8584595c.0146942-.0073166.0282745-.0157471.0416336-.0257339.1117859-.0856934.1327095-.2455902.0476875-.3571548-.3052444-.3985977-.4100838-.9459229-.274353-1.4286118.0527725-.1863174.1391296-.3732529.2308388-.5706329.1977043-.425209.4021034-.8648682.286068-1.3610535-.0216599-.0936737-.0555534-.1862564-.0898895-.2786179-.0551643-.1475525-.1025772-.2750702-.0761833-.3726807.0156555-.0578079.0642433-.1242371.1157303-.1948929l.0410118-.057106c.4023323-.5710373.524437-1.3119888.3270264-1.9815674-.0398369-.1346283-.1811867-.2120209-.3162575-.1719666-.1328468.0367279-.2120247.1811905-.1719627.3162613.1515961.5140381.0537376 1.1051025-.2551994 1.5434952l-.0367775.0511017c-.0724373.0999832-.1546822.2126312-.1949387.3604889-.0697784.2559128.0152969.4835815.0899544.6847687.0270271.0721054.0545044.1439896.071743.2165298.0758095.3250809-.0835152.6678238-.2522087 1.0307999-.0959511.2067108-.1954727.4207611-.2589798.6468811-.1786652.6340942-.040493 1.3531876.3595428 1.8762665.0756988.0984268.2086715.1266479.3155135.0734253z"/><path d="m51.5073204 101.3730392c.0146904-.0073166.0282707-.0157471.0416336-.0257416.1117859-.0856857.1327095-.2455826.0476837-.3571472-.3052444-.3985977-.4100838-.9459305-.2743492-1.4286194.0527687-.1863174.1391258-.3732452.2308388-.5706253.1977043-.4252167.4021034-.8648682.286068-1.3610611-.0216599-.0936737-.0555534-.1862488-.0898933-.2786102-.0551643-.1475525-.1025734-.2750778-.0761833-.3726807.0156555-.0578079.0642471-.1242447.1157303-.1949005l.0410118-.0570984c.4023323-.5710449.524437-1.3119888.3270302-1.981575-.0398369-.1346283-.1811867-.2120209-.3162613-.1719589-.132843.0367279-.2120209.1811829-.1719627.3162613.1515999.5140305.0537415 1.1051025-.2551994 1.5434875l-.0367737.0511093c-.0724411.0999832-.1546822.2126312-.1949387.3604889-.0697784.2559052.0152931.4835815.0899506.684761.0270309.072113.0545044.1439972.0717468.2165298.0758095.3250809-.0835152.6678314-.2522125 1.0308075-.0959511.2067108-.1954727.4207611-.2589798.6468735-.1786613.6341019-.040493 1.3531952.3595428 1.8762741.0757025.098427.2086714.1266481.3155173.0734254z"/><path d="m61.5048256 98.6874847c-.0765915 0-.1526909-.0348129-.2029228-.1009598-.2098885-.276535-.4471321-.5898743-.7530098-.7510223l-.0666466-.0338211c-.0721169-.0348129-.1531868-.0746078-.2307777-.1357803-.2297821-.180542-.3118439-.4476242-.3839645-.6833801-.0596809-.1949615-.1114082-.3630753-.224308-.4332047-.0397911-.0243683-.0974846-.0427704-.1586609-.0621643-.0427742-.0134354-.0850487-.0268631-.1268272-.042778-.152195-.0591812-.2849884-.1472168-.3973923-.2253036-.8365669-.5819168-.9519577-1.1334915-.901722-1.4940796.0198936-.1392593.1526909-.2337646.2874756-.2168503.1392632.0193939.236248.1482162.2168503.2874756-.0557022.3968964.3436775.7654419.6878548 1.0051727.0925102.0636597.1909866.1298141.2909584.168602.0313339.01194.0641594.0218887.096489.0323334.084549.0268555.1795464.0571976.2730522.1148911.2755394.1705933.3645668.460556.4431496.7166977.0552063.1800461.1074295.3501434.2123756.4327087.0348167.0273514.0855446.0522232.1387634.0785828l.0810699.0402832c.4053535.2138672.6794014.5754547.9211197.8942642.0850487.111908.0631638.2715607-.0492401.3566055-.0457574.0348205-.0999719.0517272-.1536866.0517272z"/><path d="m55.1167068 94.5692139c.1156769-.027359.2386017.0299377.289772.14254.058445.1282578.0016403.2791748-.1262474.3370285-.1789818.0816879-.2273598.3762741-.1827545.6253586.0196114.1088181.0497246.2166901.0798416.3245621.065155.236557.1328545.4817047.1147156.7507401-.0327415.4881668-.3438072.8822021-.5745583 1.1361084-.0637398.0697632-.1292725.1384201-.1952934.2071915-.1910858.1990356-.3714218.387352-.4939919.605957-.132576.2368164-.1957397.5747681-.0390701.7963181.1095123.1539993.302784.2386093.5270004.3373642.1374855.0605011.2800102.1228714.4140472.207695.4667206.2964249.7567711.8441925.7382851 1.396965-.0189667.5528793-.344883 1.0807571-.8304253 1.3443298-.1260796.0676498-.2780991.0213165-.3451729-.1023407-.06707-.1236649-.0213165-.2780991.1023445-.3451767.3247108-.1764679.5515938-.5439453.5642586-.9139023.0121803-.3698425-.1895027-.7514496-.5016098-.9495239-.1075897-.0680771-.2275772-.1194229-.3463402-.172081-.2565002-.1120758-.5468216-.2396622-.737751-.5088196-.2512589-.3535233-.2473526-.8793411.0102654-1.3394394.1535759-.2755127.3655701-.4963608.5705948-.709938.0627174-.0654373.1254349-.130867.1863594-.1974106.2850761-.3137741.4263039-.5766602.4431229-.8274994.0119743-.1827316-.0414238-.3760681-.098053-.5809097-.0336647-.1228714-.0673332-.2457504-.0895195-.3698044-.0800095-.4441223.035862-.9805756.4729233-1.1790237.0156556-.0072786.0312844-.0125124.0472565-.0162889z"/><path d="m51.6812668 101.0902481c.0512276 0 .1024551-.015419.1472168-.0467529.1148911-.0815659.1417503-.2407227.0606804-.3551178-.1422462-.2004318-.1636314-.4819412-.0527191-.7007828.0770912-.1526871.2143631-.2829971.3600883-.4207687.1606483-.1526947.3267708-.3103561.444149-.522728.2188377-.3964005.1949654-.8345795.1715889-1.2583313-.0218849-.3909302-.0417786-.7599716.1447334-1.0220795.1079254-.1521988.2874756-.2705688.4774666-.3964005.2989159-.1979523.6381187-.4222641.7351036-.8350754.0820656-.3511429-.0601807-.6868591-.1641273-.9325562-.0547104-.1293182-.2034225-.1899948-.3337326-.1347885-.1293144.0547104-.189991.2039185-.1347847.3337326.0989761.2342606.1775589.4421539.136776.6172256-.0507317.2158585-.2685776.3600922-.5202446.5267105-.220829.1457291-.4486198.2969284-.6112595.5257111-.2904587.4078445-.2626076.9061966-.2387352 1.345871.0203934.3680496.0397911.7157059-.1084251.983284-.0795784.1437378-.2103844.2680817-.3491478.3998795-.1705971.161644-.3471603.3292542-.4640427.5605316-.1964569.388443-.1606483.8693924.0915184 1.2250061.049736.0701295.1283188.1074296.2078972.1074296z"/><path d="m49.4202499 100.4183121c.0164146 0 .0323296-.0014954.0487404-.0044785.1382675-.0268555.2282906-.1606445.201931-.2984161-.0954933-.4928894.0547104-1.029541.3914261-1.4010773.1303101-.1432343.2909584-.2720566.4610558-.4078369.3665581-.29245.7455482-.594841.8629265-1.0907135.0223808-.0935059.0333214-.1914902.043766-.2894669.0164146-.1566696.030838-.291954.0979805-.3675537.0397911-.0447617.1129036-.0825653.1904907-.1228485l.0621719-.0328293c.6147423-.3317413 1.054409-.9405136 1.1762657-1.6278687.0243683-.1382675-.0676422-.2705688-.2064056-.2949371-.1352844-.0263596-.2705688.0676422-.2949371.2064056-.0935059.5277023-.4446449 1.0131302-.9166412 1.2677841l-.055706.0293427c-.1094208.0571976-.2332649.1213531-.3352242.2357483-.1765633.1979523-.2019272.4396744-.2248077.653038-.0079575.0765991-.015419.1531906-.0323296.2258072-.0770912.3247757-.3725243.560524-.6853638.8102036-.1780586.1422424-.3625793.2894669-.5202446.4635391-.4426537.487915-.6396103 1.1931763-.5147705 1.8397522.0238724.1218567.13031.2064057.2496757.2064057z"/><path d="m48.1847992 98.6874847c.0765953 0 .1526909-.0348129.2029228-.1009598.2098885-.276535.4471321-.5898743.7530098-.7510223l.0666466-.0338211c.0721169-.0348129.1531868-.0746078.2307777-.1357803.2297821-.180542.3118477-.4476242.3839645-.6833801.0596848-.1949615.1114082-.3630753.2243118-.4332047.0397873-.0243683.0974808-.0427704.1586571-.0621643.0427742-.0134354.0850487-.0268631.1268272-.042778.152195-.0591812.2849922-.1472168.3973961-.2253036.8365631-.5819168.9519539-1.1334915.9017181-1.4940796-.0198936-.1392593-.1526909-.2337646-.2874756-.2168503-.1392632.0193939-.236248.1482162-.2168503.2874756.055706.3968964-.3436775.7654419-.6878548 1.0051727-.0925102.0636597-.1909866.1298141-.2909584.168602-.0313339.01194-.0641594.0218887-.0964851.0323334-.0845528.0268555-.1795502.0571976-.273056.1148911-.2755394.1705933-.3645668.460556-.4431496.7166977-.0552063.1800461-.1074295.3501434-.2123756.4327087-.0348129.0273514-.0855446.0522232-.1387634.0785828l-.0810699.0402832c-.4053497.2138672-.6793976.5754547-.9211159.8942642-.0850525.111908-.0631676.2715607.0492363.3566055.0457574.0348205.0999718.0517272.1536866.0517272z"/><path d="m54.9971428 93.7878418c-3.3639526 0-6.398365.3382111-8.5959129.8790588 5.6122665 1.6735229 11.5880203 1.6735229 17.2001839 0-2.206009-.5408477-5.2403146-.8790588-8.604271-.8790588z"/></g><path d="m54.6657104 39.8654022v-29.6087103l-3.0692138-3.0692105-1.7948456 30.5079379z" fill="#4abba4"/></svg>