<svg enable-background="new 0 0 110 110" height="512" viewBox="0 0 110 110" width="512" xmlns="http://www.w3.org/2000/svg"><path d="m63.1815529 30.3880634s11.4014549-.8637466 16.4111824 5.3552303c5.0097351 6.2189751 9.8467178 11.055954 10.5377121 18.8296776.6910019 7.7737198 2.4184952 15.2019386-6.564476 29.367382s-18.4841766 14.165451-32.6496239 11.7469559c0 0-5.244381 3.0110855-10.7104568.1727524-8.9198265-4.6317368-20.5571728-16.3170013-20.9026699-28.8884201-.345499-12.5714226 1.3819942-29.8463554 21.593668-35.547081 0 0 7.7737198-.1727486 9.8467102 0 2.0729942.1727467 3.5037689-1.9427585 12.4379539-1.0364971z" fill="#fb7833"/><path d="m52.4907646 35.232399c-2.7185059 1.1339417-5.104969 2.8784256-7.0804901 4.9472046-1.98666 2.0666885-3.5193901 4.5056-4.6312294 7.1063652-.5401993 1.3103065-.9666862 2.6631927-1.3235588 4.0335999-.3361053 1.3774834-.5832443 2.7775917-.7520943 4.1900024-.0718498.7077713-.1397285 1.4170494-.1867485 2.1280708-.0207405.7153091-.0882683 1.420414-.0634384 2.1450081.025177 1.4402542-.0434532 2.8837585.0888481 4.3185616l.1212807 2.1556854.2492828 2.1431503.1174507 1.0729141.1789436 1.0632782.3611679 2.1274948c.5839958 2.8171539 1.352478 5.5934753 2.3152809 8.3137512l.7937469 2.0125046c.2694168.6697159.596962 1.3121643.8801308 1.9781647.6069412 1.3103027 1.274189 2.5970535 2.0177841 3.8397141 1.4610519 2.5020294 3.1631851 4.8875656 5.3392334 6.8794174-1.2664185-.7671814-2.37257-1.7750015-3.4368362-2.8161163-1.0290527-1.0738449-1.995018-2.2161407-2.8762779-3.4207382-1.7512703-2.4177933-3.238369-5.0343399-4.4380417-7.7807236-1.1988029-2.7476578-2.0993805-5.6190033-2.7996674-8.5374527-.1530724-.7338791-.2856636-1.4722824-.4282036-2.2088318l-.2073708-1.1063232-.1448021-1.1152649-.2751617-2.2333069-.1402779-2.2442093c-.1241493-1.4961815-.0530548-2.9950333-.0591164-4.4922562.02425-1.4990845.1552467-3.0161476.3633995-4.5147667.2286644-1.4988518.5323372-2.9901581.9667168-4.4493256.4376869-1.4577751.9867897-2.8837624 1.6591148-4.2516136 1.3458366-2.7350121 3.2252884-5.2075691 5.513649-7.1803932 2.3035357-1.9374351 4.9823-3.4661064 7.8772852-4.1035652z" fill="#d6683d"/><path d="m44.2515297 34.5945816s5.6243973-.4535789 7.8922997-.7257271c2.2678986-.2721481 5.7151108 0 8.7087402 0s6.259407.7257271 6.259407.7257271-10.9766426 1.4794579-12.6095314 1.3293839-6.5315552-.5129395-6.5315552-.5129395l-4.2636566-.5697479z" fill="#d6683d"/><path d="m65.3643188 12.9441118c-.2519531-.0502806-.5196152-.0155764-.7482758.101655-12.3364143 6.3250294-11.1757812 21.5645618-11.1757812 22.1865177l5.9151993-.3910446c-.1013145-12.0925941 3.9592896-17.6516571 6.5285416-19.9542007.6937561-.6216831.3939133-1.7603846-.5196839-1.9429274z" fill="#41a38e"/><path d="m58.8696365 20.5903778s-17.4674797-5.2315845-29.5580883 10.4673004c-7.1654663 9.3039055-7.2347717 14.1091728-9.1488934 24.3078308 0 0 17.0229225 1.764679 28.5036736-8.6457405 5.6830254-5.1532058 8.8301583-14.2777557 10.2033081-26.1293907z" fill="#4abba4"/><path d="m58.8696365 20.5903778s-18.6988907 6.2342377-32.337471 29.2654266c-.0000019 0 20.0168419-18.3005695 32.337471-29.2654266z" fill="#41a38e"/></svg>