<svg enable-background="new 0 0 110 110" height="512" viewBox="0 0 110 110" width="512" xmlns="http://www.w3.org/2000/svg"><path d="m41.1496086 26.6645508c-16.3844604 0-29.666687 13.2822266-29.666687 29.6660156 0 16.3847656 13.2822266 29.6669922 29.666687 29.6669922s29.6666908-13.2822266 29.6666908-29.6669922c0-16.3837891-13.2822303-29.6660156-29.6666908-29.6660156z" fill="#293b44"/><path d="m41.1496086 32.568634c-13.1237049 0-23.7625675 10.6388626-23.7625675 23.7620277 0 13.123951 10.6388626 23.7628136 23.7625675 23.7628136s23.7625694-10.6388626 23.7625694-23.7628135c0-13.1231652-10.6388626-23.7620278-23.7625694-23.7620278z" fill="#ededed"/><path d="m68.8503876 24.0024414c-16.3844566 0-29.6666832 13.2822266-29.6666832 29.6665039 0 16.3847656 13.2822266 29.6669922 29.6666832 29.6669922s29.666687-13.2822266 29.666687-29.6669922c0-16.3842773-13.2822266-29.6665039-29.666687-29.6665039z" fill="#344d5b"/><g fill="#416270"><path d="m67.824715 29.014059h2.051348v7.109148h-2.051348z"/><path d="m67.824715 71.215172h2.051348v7.109148h-2.051348z"/><path d="m88.92527 50.114616h2.051348v7.109148h-2.051348z" transform="matrix(0 1 -1 0 143.62 -36.282)"/><path d="m46.724159 50.114616h2.051348v7.109148h-2.051348z" transform="matrix(0 1 -1 0 101.419 5.919)"/><path d="m82.745064 35.194267h2.051348v7.109148h-2.051348z" transform="matrix(.707 .707 -.707 .707 51.935 -47.886)"/><path d="m52.904369 65.034966h2.051348v7.109148h-2.051348z" transform="matrix(.707 .707 -.707 .707 64.296 -18.045)"/><path d="m82.745064 65.034966h2.051348v7.109148h-2.051348z" transform="matrix(-.707 .707 -.707 -.707 191.506 57.855)"/><path d="m52.904369 35.194267h2.051348v7.109148h-2.051348z" transform="matrix(-.707 .707 -.707 -.707 119.464 28.014)"/><path d="m59.749882 30.620243h2.051348v7.109148h-2.051348z" transform="matrix(.924 -.383 .383 .924 -8.452 25.859)"/><path d="m75.899551 69.608986h2.051348v7.109148h-2.051348z" transform="matrix(.924 -.383 .383 .924 -22.143 35.007)"/><path d="m87.319092 42.039784h2.051348v7.109148h-2.051348z" transform="matrix(.383 .924 -.924 .383 96.66 -53.474)"/><path d="m48.330345 58.189449h2.051348v7.109148h-2.051348z" transform="matrix(.383 .924 -.924 .383 87.512 -7.483)"/><path d="m75.899551 30.620243h2.051348v7.109148h-2.051348z" transform="matrix(.924 .383 -.383 .924 18.934 -26.837)"/><path d="m59.749882 69.608986h2.051348v7.109148h-2.051348z" transform="matrix(.924 .383 -.383 .924 32.625 -17.689)"/><path d="m87.319092 58.189449h2.051348v7.109148h-2.051348z" transform="matrix(-.383 .924 -.924 -.383 179.197 3.753)"/><path d="m48.330345 42.039784h2.051348v7.109148h-2.051348z" transform="matrix(-.383 .924 -.924 -.383 110.367 17.444)"/><path d="m68.8503876 43.0722656c-5.8499718 0-10.590023 4.75-10.590023 10.6000977s4.7400513 10.5898438 10.590023 10.5898438 10.5900269-4.7397461 10.5900269-10.5898438-4.7400513-10.6000977-10.5900269-10.6000977zm0 19.2900391c-4.7999878 0-8.7000084-3.8901367-8.7000084-8.6899414 0-4.8100586 3.9000206-8.7001953 8.7000084-8.7001953s8.7000122 3.8901367 8.7000122 8.7001953c0 4.7998047-3.9000244 8.6899414-8.7000122 8.6899414z"/></g></svg>