<svg enable-background="new 0 0 110 110" height="512" viewBox="0 0 110 110" width="512" xmlns="http://www.w3.org/2000/svg"><circle cx="55" cy="55" fill="#feda6f" r="44.397"/><circle cx="55" cy="55" fill="#fed35b" r="38.782"/><ellipse cx="63.505" cy="27.468" fill="#dd584d" rx="4.948" ry="4.948" transform="matrix(.973 -.23 .23 .973 -4.612 15.325)"/><path d="m64.1867676 24.3078613c.0660324-.1954937.1784058-.4102058.3807907-.4504414.157486-.031311.3162613.0592442.4256592.1767845.1093903.1175423.1851425.262289.2871704.3862801.3007812.3655491.7957306.5155544 1.1304474.8503036.1452408.1452522.255722.3208618.3649139.4948425.2474823.3943062.494957.7886124.7424316 1.1829205.07444.1186047.151413.2455769.1513519.3856087-.0000839.2015419-.1669312.3730965-.3566818.4410076-.1897583.0679131-.3980331.0535278-.5984192.0319424-.8249054-.0888577-1.6340942-.2843685-2.4405212-.4793873-.5719681-.1383209-.3083115-.7152748-.3148994-1.1862316-.0086365-.617588.0286903-1.2442436.2277565-1.8336296z" fill="#a64139"/><path d="m63.2662621 24.1894207c-.1894608-.3944645-.6666603-.6875248-1.0703239-.5185509-.1255989.0525742-.2309952.142931-.3341064.2318497-.4548721.3922577-.9097443.7845154-1.3646202 1.176775-.1041145.0897827-.2098732.1814613-.2824974.298193-.0560989.090168-.0902748.1919308-.1239586.2926407-.1158638.3463936-.2317238.6927891-.3475876 1.0391827-.0265808.0794678-.0515213.1728439-.0041084.2419338.0348282.0507526.0989914.0718193.1595993.0825806.3723907.0661259.7416153-.1327095 1.1197968-.1381054.6096153-.0086975 1.9564667.9683952 2.2858849.0319366.1217384-.3460693.0664215-.8054066.0875015-1.1665192.0301817-.5170822.1069296-1.0878277-.12558-1.5719166z" fill="#a64139"/><path d="m63.3631096 30.7627659c-.0299721.1822243-.0349693.3956451.0911102.496069.0981102.078146.2446442.0568447.3671036-.0030308.1224594-.0598774.2319603-.1532593.3517799-.2208786.3532257-.1993542.7584229-.1573429 1.1234207-.3201427.158371-.0706425.3042297-.1777477.4485626-.2839451.327095-.2406845.6541977-.4813709.9813004-.7220554.0983887-.0723972.2018127-.1508083.2563705-.2655926.0785294-.165205.0285416-.3614082-.0779037-.4803066-.1064453-.1188965-.2579498-.1765175-.4067307-.2256088-.6124954-.2020836-1.2555618-.3115215-1.8964996-.4204426-.4545975-.0772533-.4948654.4834652-.6831093.8672504-.2468528.5032768-.4650459 1.0293006-.5554046 1.5786838z" fill="#a64139"/><path d="m62.2975426 30.5951481c-.2443848.2936497-.7108002.4401951-1.0166054.2111969-.0951462-.071249-.1651497-.170187-.2335243-.2674236-.3016243-.4289455-.6032524-.8578911-.9048805-1.2868385-.0690384-.0981789-.1390686-.1983166-.1757088-.3126106-.0283012-.0882835-.0355721-.1817188-.0426559-.2741585-.0243568-.3179474-.0487175-.6358948-.0730743-.9538422-.0055885-.0729408-.0068321-.1573105.0480194-.2057133.0402946-.0355568.099102-.0397339.1527061-.0359459.3293762.0232868.599659.2702351.9187088.3553085.5142937.1371346 1.8626366-.4034328 1.9421997.459568.0293999.318922-.1152153.6960564-.1742401 1.0062885-.0845185.4442254-.141037.9437981-.4409447 1.3041707z" fill="#a64139"/><ellipse cx="43.288" cy="32.417" fill="#dd584d" rx="4.948" ry="4.948" transform="matrix(.973 -.23 .23 .973 -6.29 10.813)"/><path d="m43.9699631 29.2561283c.0660286-.1954937.1784058-.4102058.3807869-.4504414.1574898-.031311.3162689.0592442.4256592.1767845.1093941.1175423.1851501.262289.2871742.3862801.3007774.3655491.7957344.5155544 1.1304512.8503036.145237.1452522.2557182.3208618.3649101.4948425.2474785.3943062.494957.7886124.7424316 1.1829205.07444.1186047.1514091.2455769.1513519.3856068-.0000801.2015457-.1669312.3730965-.3566856.4410095s-.3980331.0535278-.5984154.0319443c-.8249054-.0888596-1.6340942-.2843704-2.4405251-.4793892-.5719643-.1383209-.3083115-.7152748-.3148956-1.1862316-.0086364-.617588.0286866-1.2442436.2277566-1.8336296z" fill="#a64139"/><path d="m43.0494576 29.1376877c-.1894608-.3944645-.6666603-.6875248-1.0703239-.5185509-.1255989.0525742-.2309952.142931-.3341064.2318497-.4548721.3922577-.9097481.7845154-1.3646202 1.176775-.1041145.0897827-.2098732.1814613-.2825012.298193-.0560951.090168-.090271.1919308-.1239548.2926407-.1158638.3463936-.2317238.6927891-.3475876 1.0391827-.0265808.0794678-.0515213.1728439-.0041084.2419338.0348282.0507526.0989914.0718193.1595955.0825806.3723946.066124.7416191-.1327095 1.1198006-.1381054.6096153-.0086975 1.9564667.9683971 2.2858849.0319366.1217384-.3460693.0664215-.8054066.0875015-1.1665192.0301817-.5170823.1069296-1.0878277-.12558-1.5719166z" fill="#a64139"/><path d="m43.1463051 35.7110329c-.0299721.1822243-.0349693.3956451.0911102.496067.0981102.0781479.2446442.0568466.3671036-.0030289s.2319641-.1532593.3517761-.2208786c.3532257-.1993523.7584305-.157341 1.1234207-.3201447.1583748-.0706406.3042374-.1777458.4485626-.2839432.3271027-.2406845.6542015-.481369.9813042-.7220573.0983887-.0723953.2018127-.1508064.2563744-.2655907.0785255-.1652069.0285378-.3614082-.0779076-.4803047-.1064415-.1189003-.2579498-.1765213-.4067345-.2256088-.6124916-.2020836-1.255558-.3115234-1.8964996-.4204445-.4545937-.0772514-.4948616.4834671-.6831055.8672523-.2468528.5032731-.4650459 1.0293008-.5554046 1.5786821z" fill="#a64139"/><path d="m42.0807381 35.5434151c-.2443848.2936516-.7108002.4401932-1.0166054.2111969-.0951462-.0712509-.1651497-.1701889-.2335243-.2674217-.3016243-.4289474-.6032524-.8578949-.9048805-1.2868385-.0690384-.0981827-.1390686-.1983185-.1757088-.3126106-.0283012-.0882874-.0355721-.1817207-.0426559-.2741585-.0243568-.3179474-.0487175-.6358948-.0730782-.9538422-.0055847-.0729408-.0068283-.1573105.0480232-.2057152.0402946-.0355568.099102-.0397339.1527061-.0359459.3293724.0232887.599659.2702332.918705.3553085.5142975.1371346 1.8626404-.4034348 1.9422035.459568.0293999.3189201-.1152153.6960564-.1742401 1.0062904-.0845184.4442216-.1410369.9437981-.4409446 1.3041688z" fill="#a64139"/><ellipse cx="31.069" cy="55" fill="#dd584d" rx="4.948" ry="4.948" transform="matrix(.973 -.23 .23 .973 -11.805 8.61)"/><path d="m31.7506466 51.8394508c.0660286-.1954956.1784039-.4102058.380785-.4504433.1574898-.031311.3162689.0592461.425663.1767883.1093903.1175385.1851463.2622871.2871704.3862801.3007774.3655472.7957344.5155525 1.1304512.8502998.145237.145256.2557182.3208656.3649139.4948425.2474747.3943062.4949532.7886162.7424316 1.1829224.07444.1186028.1514053.2455788.1513481.3856087-.0000801.2015419-.1669273.3730965-.3566856.4410095-.1897545.0679092-.3980331.0535278-.5984154.0319405-.8249054-.0888596-1.6340942-.2843666-2.4405231-.4793892-.5719662-.1383209-.3083115-.7152748-.3148975-1.1862297-.0086365-.617588.0286884-1.2442436.2277584-1.8336296z" fill="#a64139"/><path d="m30.8301411 51.7210083c-.1894627-.3944626-.6666622-.6875229-1.0703259-.5185509-.125597.052578-.2309933.1429329-.3341064.2318497-.4548721.3922577-.9097462.7845192-1.3646183 1.1767769-.1041145.0897827-.209877.1814613-.2825012.2981911-.056097.0901718-.090271.1919327-.1239567.2926407-.1158619.3463974-.2317238.692791-.3475857 1.0391846-.0265808.0794678-.0515232.1728439-.0041103.2419319.0348301.0507545.0989914.0718193.1595974.0825806.3723946.0661278.7416172-.1327095 1.1197987-.1381035.6096153-.0086975 1.9564667.9683952 2.2858868.0319366.1217365-.3460693.0664196-.8054085.0874977-1.1665192.0301837-.5170822.1069316-1.0878296-.1255761-1.5719185z" fill="#a64139"/><path d="m30.9269867 58.2943573c-.0299721.1822243-.0349693.3956451.0911083.496067.0981121.0781441.2446461.0568466.3671055-.0030327.1224594-.0598755.2319641-.1532593.351778-.2208786.3532238-.1993523.7584286-.157341 1.1234188-.3201408.1583748-.0706406.3042374-.1777458.4485626-.283947.3271027-.2406845.6542015-.481369.9813042-.7220535.0983887-.0723991.2018127-.1508102.2563744-.2655945.0785255-.1652031.0285378-.3614082-.0779076-.4803047-.1064415-.1188965-.2579498-.1765175-.4067345-.2256088-.6124878-.2020836-1.2555542-.3115234-1.8964996-.4204445-.4545918-.0772514-.4948616.4834671-.6831055.8672523-.2468528.5032769-.465044 1.0293007-.5554046 1.5786858z" fill="#a64139"/><path d="m29.8614216 58.1267357c-.2443848.2936516-.7108021.440197-1.0166054.2112007-.0951481-.0712509-.1651497-.1701889-.2335243-.2674255-.3016281-.4289474-.6032543-.8578911-.9048824-1.2868385-.0690384-.0981789-.1390686-.1983185-.1757088-.3126106-.0283012-.0882835-.0355721-.1817169-.042654-.2741585-.0243587-.3179474-.0487194-.6358948-.0730782-.9538422-.0055885-.0729408-.0068283-.1573105.0480232-.2057152.0402927-.0355568.099102-.0397339.1527061-.0359421.3293724.0232849.599659.2702332.918705.3553047.5142956.1371384 1.8626404-.4034309 1.9422016.459568.0294018.318924-.1152153.6960564-.1742401 1.0062904-.0845165.4442254-.141035.9437982-.4409427 1.3041688z" fill="#a64139"/><ellipse cx="61.57" cy="53.01" fill="#dd584d" rx="4.948" ry="4.948" transform="matrix(.973 -.23 .23 .973 -10.532 15.564)"/><path d="m62.2518921 49.8490982c.0660286-.1954918.1784058-.4102058.3807869-.4504433.1574898-.031311.3162689.0592461.4256592.1767883.1093941.1175423.1851501.2622871.2871742.3862801.3007774.3655472.7957306.5155525 1.1304474.8503036.1452408.1452522.255722.3208618.3649139.4948387.2474823.39431.494957.7886162.7424316 1.1829224.07444.1186066.151413.2455788.1513519.3856087-.0000839.2015419-.1669312.3730965-.3566818.4410095-.1897583.0679131-.3980331.0535278-.5984192.0319405-.8249054-.0888596-1.6340942-.2843666-2.4405251-.4793892-.5719643-.1383171-.3083076-.715271-.3148956-1.1862297-.0086364-.617588.0286904-1.2442436.2277566-1.8336296z" fill="#a64139"/><path d="m61.3313866 49.7306557c-.1894608-.3944626-.6666603-.6875229-1.0703239-.5185509-.1255989.052578-.2309952.1429329-.3341064.2318497-.4548721.3922577-.9097443.7845192-1.3646202 1.1767769-.1041145.0897827-.2098732.1814613-.2824974.2981949-.0560989.090168-.090271.1919289-.1239586.2926369-.1158638.3463974-.2317238.692791-.3475876 1.0391846-.0265808.0794678-.0515213.1728439-.0041084.2419319.0348282.0507545.0989914.0718193.1595993.0825806.3723907.0661278.7416153-.1327095 1.1197968-.1381035.6096153-.0086975 1.9564667.9683952 2.2858849.0319366.1217384-.3460693.0664215-.8054085.0875015-1.1665192.0301817-.5170823.1069296-1.0878258-.12558-1.5719185z" fill="#a64139"/><path d="m61.4282341 56.3040047c-.0299721.1822243-.0349693.3956451.0911102.496067.0981102.0781441.2446442.0568466.3671036-.0030327.1224594-.0598755.2319641-.1532593.3517761-.2208786.3532257-.1993523.7584305-.157341 1.1234207-.3201408.1583748-.0706406.3042374-.1777458.4485626-.2839432.3270988-.2406883.6542015-.4813728.9813042-.7220573.0983887-.0723991.2018127-.1508102.2563705-.2655945.0785294-.1652031.0285416-.3614082-.0779037-.4803047s-.2579498-.1765175-.4067307-.2256088c-.6124916-.2020836-1.255558-.3115234-1.8965034-.4204445-.4545937-.0772514-.4948616.4834671-.6831055.8672523-.2468528.5032768-.4650459 1.0293007-.5554046 1.5786858z" fill="#a64139"/><path d="m60.3626671 56.1363831c-.2443848.2936516-.7108002.440197-1.0166016.2112007-.09515-.0712509-.1651535-.1701889-.2335281-.2674255-.3016243-.4289474-.6032524-.8578911-.9048805-1.2868385-.0690384-.0981789-.1390686-.1983147-.1757088-.3126106-.0283012-.0882835-.0355721-.1817169-.0426559-.2741585-.0243568-.3179474-.0487175-.6358948-.0730743-.9538422-.0055885-.0729408-.0068321-.1573105.0480194-.2057152.0402946-.035553.0991058-.0397339.15271-.0359421.3293724.0232849.5996552.2702332.918705.3553047.5142937.1371384 1.8626366-.4034309 1.9421997.459568.0294037.318924-.1152153.6960564-.1742401 1.0062904-.0845186.4442254-.1410333.9437981-.4409448 1.3041688z" fill="#a64139"/><ellipse cx="71.969" cy="74.189" fill="#dd584d" rx="4.948" ry="4.948" transform="matrix(.973 -.23 .23 .973 -15.12 18.52)"/><path d="m72.6508789 71.0286789c.0660324-.1954956.1784058-.410202.3807831-.4504395.1574936-.031311.3162689.0592422.4256668.1767807.1093903.1175461.1851425.262291.2871704.3862839.3007812.3655472.7957306.5155487 1.1304474.8503036.1452408.1452484.255722.3208618.3649139.4948425.2474747.3943024.494957.7886124.7424316 1.1829147.07444.1186066.151413.2455826.1513519.3856125-.0000839.2015457-.1669312.3730927-.3566895.4410095-.1897507.0679092-.3980331.0535278-.5984116.0319443-.8249054-.0888596-1.6340942-.2843704-2.4405212-.479393-.5719681-.1383209-.3083115-.715271-.3149033-1.1862335-.0086363-.6175841.0286943-1.2442397.2277605-1.8336257z" fill="#a64139"/><path d="m71.7303772 70.9102402c-.1894684-.3944626-.6666641-.6875305-1.0703278-.5185547-.1255951.0525742-.2309952.1429291-.3341064.2318497-.4548721.3922577-.9097443.7845154-1.3646164 1.1767731-.1041183.0897827-.209877.1814651-.2825012.2981949-.0560989.0901718-.090271.1919327-.1239624.2926407-.11586.3463974-.23172.6927872-.34758 1.0391846-.0265808.0794678-.0515289.1728439-.0041122.2419357.0348282.0507507.0989914.0718155.1595993.0825806.3723907.066124.7416153-.1327133 1.1197968-.1381073.6096115-.0086975 1.9564667.9683914 2.2858887.0319366.1217346-.3460693.0664139-.8054047.0874939-1.1665192.0301818-.5170823.1069335-1.0878296-.1255723-1.5719147z" fill="#a64139"/><path d="m71.8272171 77.4835815c-.0299683.1822281-.0349655.3956451.0911102.4960709.098114.0781479.2446442.0568466.3671036-.0030289.1224594-.0598831.2319641-.1532593.3517838-.2208786.3532257-.1993561.7584229-.157341 1.1234131-.3201447.1583786-.0706406.3042374-.1777496.4485703-.2839432.327095-.2406845.6541977-.4813766.9813004-.7220612.0983887-.0723953.2018127-.1508026.2563705-.2655869.0785294-.1652069.0285416-.361412-.0779037-.4803085s-.2579498-.1765213-.4067383-.2256088c-.6124878-.2020798-1.2555542-.3115234-1.896492-.4204407-.4545975-.0772552-.4948654.4834595-.6831131.8672485-.2468492.5032732-.4650422 1.0292971-.5554048 1.5786821z" fill="#a64139"/><path d="m70.7616577 77.3159637c-.2443848.2936478-.7108078.4401932-1.0166092.2111969-.0951462-.0712509-.1651459-.1701889-.2335205-.2674255-.3016281-.4289398-.6032562-.8578873-.9048843-1.2868347-.0690384-.0981827-.1390686-.1983185-.1757126-.3126144-.0282974-.0882797-.0355682-.1817169-.0426483-.2741547-.0243607-.3179474-.0487213-.6358948-.073082-.9538422-.0055847-.0729446-.0068283-.1573105.048027-.2057114.0402908-.0355606.0990982-.0397339.1527023-.0359497.3293762.0232925.5996628.2702332.9187088.3553085.5142899.1371384 1.8626404-.4034348 1.9421997.4595718.0294037.3189163-.1152191.6960526-.1742401 1.0062866-.0845184.4442216-.1410369.9437944-.4409408 1.3041688z" fill="#a64139"/><ellipse cx="48.635" cy="81.479" fill="#dd584d" rx="4.948" ry="4.948" transform="matrix(.973 -.23 .23 .973 -17.419 13.354)"/><path d="m49.3169441 78.3180847c.0660286-.1954956.1784058-.4102097.3807869-.4504395.1574898-.031311.3162689.0592422.4256592.1767807.1093941.1175461.1851501.262291.2871742.3862839.3007774.3655472.7957306.5155487 1.1304512.8503036.145237.1452484.2557182.3208618.3649101.4948425.2474785.3943024.494957.7886124.7424316 1.1829147.07444.1186066.1514091.2455826.1513519.3856125-.0000801.2015381-.1669312.3730927-.3566856.4410095-.1897583.0679092-.3980331.0535278-.5984154.0319366-.8249054-.0888519-1.6340942-.2843628-2.4405251-.4793854-.5719643-.1383209-.3083115-.715271-.3148956-1.1862335-.0086364-.617584.0286866-1.2442396.2277566-1.8336256z" fill="#a64139"/><path d="m48.3964386 78.199646c-.1894608-.3944702-.6666603-.6875305-1.0703239-.5185547-.1255989.0525742-.2309952.1429291-.3341064.2318497-.4548721.3922577-.9097481.7845154-1.3646202 1.1767731-.1041145.0897827-.2098732.1814651-.2825012.2981949-.0560951.0901718-.090271.1919327-.1239548.2926407-.1158638.3463974-.2317238.6927872-.3475876 1.0391846-.0265808.0794678-.0515213.1728439-.0041084.2419357.0348282.0507507.0989914.0718155.1595955.0825806.3723946.066124.7416191-.1327133 1.1198006-.1381073.6096153-.0086975 1.9564667.9683914 2.2858849.0319366.1217384-.3460693.0664215-.8054047.0875015-1.1665192.0301817-.5170822.1069296-1.0878296-.12558-1.5719147z" fill="#a64139"/><path d="m48.4932861 84.7729874c-.0299721.1822281-.0349693.3956451.0911064.4960709.098114.0781479.244648.0568466.3671074-.0030289.1224594-.0598831.2319641-.1532593.3517761-.2208786.3532257-.1993561.7584305-.1573486 1.1234207-.3201447.1583748-.0706406.3042374-.1777496.4485626-.2839432.3271027-.2406845.6542015-.4813766.9813042-.7220612.0983887-.0723953.2018127-.1508102.2563744-.2655869.0785255-.1652069.0285378-.361412-.0779076-.4803085-.1064415-.1188965-.2579498-.1765213-.4067345-.2256088-.6124916-.2020874-1.255558-.3115234-1.8964996-.4204407-.4545937-.0772552-.4948616.4834595-.6831055.8672485-.2468528.5032731-.4650458 1.029297-.5554046 1.5786821z" fill="#a64139"/><path d="m47.4277191 84.6053696c-.2443848.2936478-.7108002.4401932-1.0166054.2111969-.0951462-.0712509-.1651497-.1701889-.2335243-.2674255-.3016281-.4289398-.6032524-.8578873-.9048805-1.2868347-.0690384-.0981827-.1390686-.1983185-.1757088-.3126144-.0283012-.0882797-.0355721-.1817169-.0426559-.2741547-.0243568-.3179474-.0487175-.6358948-.0730782-.9538422-.0055885-.0729446-.0068283-.1573105.0480232-.2057114.0402946-.0355606.099102-.0397415.1527061-.0359497.3293724.0232849.599659.2702332.918705.3553085.5142975.1371384 1.8626404-.4034348 1.9422035.4595642.0293999.318924-.1152153.6960602-.1742401 1.0062943-.0845183.4442215-.1410369.9437942-.4409446 1.3041687z" fill="#a64139"/><path d="m77.6339951 43.6579933c-.0851059-.6863708-.471756-1.344986-1.0711823-1.6927948-.5975571-.3459549-1.4004669-.3459549-1.9610367.0592041-.1165543.083252-.2238617.1831512-.3589096.2312546-.0869446.0314484-.179451.0388565-.2682571.0610542-.6937637.1646461-.6808167.7973671-.6308594 1.3560715.0499573.5661125-.0462494.9694328.5143051 1.3005867.3922043.2312546.7899704.4643593 1.2247238.6012611.2312546.0703049.4791641.1147041.7141266.051796.4403076-.1165428.7030106-.5624084 1.0804214-.8214188.2238541-.1535454.4995117-.249752.6493607-.4754486.1276551-.1924133.1350479-.4403114.1073075-.671566zm-2.0461426-1.4541435c.2534485 0 .5013504.0666122.7141113.1887093.1617737.0943069.306221.2221184.4274826.3731232-.1143265.4537926-.4550934.8606491-.9077988.9754181-.0956345-.0823059-.208107-.1591148-.2824783-.2342148-.2105789-.2126808-.5205841-.354393-.6132736-.6389656-.0541687-.1663055-.0191727-.3430328.0427017-.5103111.1832352-.0992547.3932343-.1537591.6192551-.1537591zm-1.7242432 1.4578323c-.0481033-.5494537.0018539-.8658142.405159-.9620094.0240555-.005558.0499573-.0092621.0739975-.0148048.0499496-.0092468.1073074-.0185051.1646576-.0388565.0575638-.0208321.1085587-.0497818.155838-.0808907.0055389.160511.0182877.3236771.0923538.4650269.086174.1644859.2430725.2775192.388176.393383.1278687.1021004.2501907.2131882.3656006.3309479-.2230682-.0159187-.4706039-.0611534-.6442261-.0305328-.3981323.0702133-.6675491.3837852-.8269424.7590446-.1391678-.1484528-.1471863-.3202782-.1598129-.5826454-.0037003-.0758553-.0074006-.155407-.0148011-.2386628zm1.8407974 1.483738c-.0499573.0129509-.1036072.0203476-.1591187.0203476-.1017456 0-.2145996-.0203476-.3477936-.0628929-.3459702-.1073074-.6697235-.2978668-.9823685-.482872-.0245667-.0145302-.0441284-.029232-.0650787-.0438881.1792831-.2299232.3839417-.4356842.6489487-.5482521.2494659-.1059723.5275421-.1181984.7985611-.1213379.0168304-.0001945.0337677-.0004539.0506134-.0006104.2338943.2671623.4247589.5677261.5454025.895874-.1568068.1531983-.3048858.2953148-.4891662.3436318zm1.3449707-1.0119667c-.066597.1017494-.1868439.1683502-.3126602.2405052-.0628967.0370026-.1258011.0721512-.1850052.1128464-.0745239.0507584-.1418686.1089668-.2067261.1691856-.097641-.2648239-.2310181-.5115738-.3798904-.7576637-.000145-.0002518-.0003815-.0004883-.0005264-.0007362.1490479-.0081291.296814-.0253143.4395981-.0679207.2597198-.0775032.5064468-.2523575.5952759-.5084305.0061874-.0178528.0074081-.0365524.0120163-.0546761.0494537.1329384.085083.2722778.1026764.4154778.0240478.2016487.0036926.3496513-.0647584.4514122z" fill="#4abba4"/><path d="m49.8806763 45.9065742c-.0851059-.6863708-.471756-1.3449821-1.0711784-1.692791-.5975609-.3459587-1.4004745-.3459587-1.9610405.0592003-.1165543.0832558-.2238579.1831551-.3589096.2312546-.0869446.0314484-.1794472.0388565-.2682571.061058-.6937675.1646423-.6808128.7973671-.6308594 1.3560715.0499535.5661125-.0462494.969429.5143051 1.3005829.3922081.2312546.7899704.4643631 1.2247276.601265.2312546.0703011.4791641.1147003.7141228.051796.4403114-.1165428.7030144-.5624084 1.0804176-.8214188.2238617-.1535454.4995155-.249752.6493683-.4754524.1276512-.1924134.1350479-.4403115.1073036-.6715661zm-2.0461426-1.4541397c.2534523 0 .5013542.0666084.7141113.1887054.1617775.0943108.306221.2221222.4274826.373127-.1143265.4537926-.4550896.8606453-.9077988.9754143-.0956306-.0823059-.208107-.159111-.2824745-.2342148-.2105827-.212677-.5205841-.3543892-.6132774-.6389656-.0541687-.1663055-.0191765-.3430328.0427055-.5103073.1832314-.0992546.3932343-.153759.6192513-.153759zm-1.7242432 1.4578324c-.0480995-.5494576.0018539-.865818.4051628-.9620132.0240517-.0055542.0499535-.0092583.0739937-.014801.0499535-.0092506.1073036-.0185089.1646576-.0388565.0575638-.0208321.1085587-.0497856.1558342-.0808945.0055466.160511.0182953.3236771.0923576.4650269.0861778.1644897.2430763.2775192.388176.393383.1278687.1021004.2501907.2131882.3656044.3309517-.2230682-.0159225-.4706078-.0611572-.6442299-.0305328-.3981361.0702095-.6675453.3837852-.8269386.7590408-.1391716-.1484528-.1471901-.3202782-.1598129-.5826416-.0037041-.0758592-.0074082-.1554071-.0148049-.2386628zm1.8407936 1.4837379c-.0499535.0129509-.1035995.0203476-.159111.0203476-.1017494 0-.2145996-.0203476-.3477974-.0628967-.3459663-.1073036-.6697235-.297863-.9823723-.4828682-.024559-.014534-.0441284-.0292358-.0650749-.0438919.1792793-.2299232.3839455-.4356804.6489487-.5482483.2494698-.1059723.5275421-.1182022.7985649-.1213417.0168266-.0001907.0337639-.0004501.0506096-.0006104.2338982.2671623.4247627.5677261.5454025.8958778-.1568069.1531945-.3048859.2953149-.4891701.3436318zm1.3449746-1.0119667c-.0666008.1017494-.1868439.1683464-.3126564.2405014-.0628967.0370026-.1258049.072155-.1850052.1128502-.0745277.0507545-.1418686.1089668-.2067299.1691856-.097641-.2648277-.2310181-.5115738-.3798904-.7576675-.000145-.000248-.0003815-.0004845-.0005302-.0007324.1490517-.0081329.2968178-.0253181.4396019-.0679207.2597198-.077507.5064468-.2523613.5952759-.5084343.0061913-.0178528.0074081-.0365524.0120163-.0546761.0494576.1329384.085083.2722778.1026764.4154816.0240515.2016487.0036925.3496475-.0647584.4514122z" fill="#4abba4"/><path d="m53.0657005 62.1911201c-.0851059-.6863708-.471756-1.344986-1.0711823-1.6927948-.5975571-.3459549-1.4004707-.3459549-1.9610367.0592041-.1165543.0832558-.2238617.1831512-.3589096.2312546-.0869446.0314484-.1794472.0388565-.2682571.0610542-.6937675.1646461-.6808167.7973671-.6308594 1.3560715.0499535.5661125-.0462532.9694328.5143051 1.3005867.3922081.2312546.7899704.4643631 1.2247276.6012611.2312546.0703049.4791641.1147003.7141228.051796.4403114-.116539.7030144-.5624084 1.0804176-.8214188.2238579-.1535454.4995155-.249752.6493683-.4754486.1276513-.1924133.135048-.4403114.1073037-.671566zm-2.0461464-1.4541435c.2534561 0 .5013542.0666122.7141151.1887093.1617775.0943069.306221.2221184.4274826.3731232-.1143303.4537964-.4550896.8606491-.9077988.9754181-.0956306-.0823059-.208107-.1591148-.2824745-.2342148-.2105827-.2126808-.5205841-.354393-.6132812-.6389656-.0541649-.1663055-.0191727-.3430328.0427055-.5103073.1832314-.0992547.3932382-.1537629.6192513-.1537629zm-1.7242393 1.4578362c-.0481033-.5494576.0018539-.865818.405159-.9620132.0240517-.005558.0499573-.0092583.0739975-.0148048.0499535-.0092468.1073036-.0185051.1646538-.0388527.0575676-.0208359.1085587-.0497856.155838-.0808945.0055466.160511.0182953.3236771.0923576.4650269.0861778.1644859.2430763.2775192.388176.393383.1278687.1021004.2501907.2131882.3656044.3309479-.2230682-.0159187-.4706078-.0611534-.6442299-.0305328-.3981361.0702133-.6675453.3837852-.8269386.7590446-.1391716-.1484528-.1471901-.3202782-.1598129-.5826416-.0037041-.0758592-.0074082-.1554109-.0148049-.2386628zm1.8407936 1.4837341c-.0499535.0129547-.1035995.0203476-.159111.0203476-.1017494 0-.2145996-.0203476-.3477974-.0628929-.3459702-.1073074-.6697273-.2978668-.9823723-.482872-.024559-.0145302-.0441284-.029232-.0650749-.0438881.1792793-.2299232.3839417-.4356804.6489487-.5482483.2494698-.1059761.5275421-.1182022.7985649-.1213417.0168266-.0001945.0337639-.0004539.0506096-.0006104.2338982.2671623.4247627.5677261.5454025.8958778-.156807.1531945-.3048859.295311-.4891701.343628zm1.3449745-1.0119667c-.0666008.1017494-.1868477.1683502-.3126602.2405052-.0628929.0370026-.1258011.0721512-.1850014.1128502-.0745277.0507545-.1418724.108963-.2067299.1691818-.097641-.2648239-.2310181-.5115738-.3798904-.7576637-.000145-.000248-.0003815-.0004883-.0005302-.0007362.1490517-.0081291.296814-.0253143.4395981-.0679169.2597237-.077507.5064468-.2523613.5952797-.5084343.0061874-.0178528.0074081-.0365524.0120163-.0546761.0494576.1329384.085083.2722778.1026764.4154816.0240516.2016449.0036925.3496475-.0647584.4514084z" fill="#4abba4"/><path d="m33.2179184 70.3162079c-.0851059-.6863632-.4717598-1.3449783-1.0711823-1.6927872-.597559-.3459549-1.4004707-.3459549-1.9610386.0592041-.1165543.083252-.2238598.1831512-.3589077.2312546-.0869465.0314484-.1794491.0388489-.268259.0610504-.6937656.16465-.6808147.7973709-.6308594 1.3560715.0499554.5661163-.0462513.9694366.5143051 1.3005829.3922081.2312622.7899723.4643631 1.2247276.601265.2312546.0703049.479166.1147003.7141247.051796.4403095-.116539.7030144-.5624084 1.0804176-.8214188.2238579-.1535416.4995117-.2497482.6493645-.4754486.1276551-.1924134.1350518-.4403077.1073075-.6715699zm-2.0461464-1.4541397c.2534561 0 .5013542.0666122.7141132.1887131.1617794.0943069.3062229.2221146.4274845.3731232-.1143303.4537888-.4550915.8606415-.9078007.9754105-.0956306-.0822983-.208107-.159111-.2824745-.2342072-.2105808-.2126846-.5205841-.354393-.6132793-.6389694-.0541649-.1663055-.0191727-.3430328.0427055-.5103073.1832314-.0992585.3932362-.1537629.6192513-.1537629zm-1.7242393 1.4578323c-.0481033-.5494537.001852-.8658142.405159-.9620056.0240517-.0055618.0499554-.0092621.0739956-.0148087.0499554-.0092468.1073055-.0185089.1646557-.0388565.0575657-.0208282.1085606-.0497818.155838-.0808945.0055447.1605148.0182934.3236847.0923557.4650345.0861778.1644821.2430782.2775116.388176.3933792.1278687.1020966.2501926.2131882.3656044.3309479-.2230682-.0159225-.4706059-.0611572-.644228-.0305328-.3981361.0702133-.6675453.3837891-.8269405.7590485-.1391716-.1484528-.1471882-.320282-.1598129-.5826492-.0037023-.0758515-.0074063-.1554032-.014803-.2386628zm1.8407936 1.4837418c-.0499554.0129471-.1036015.0203476-.1591129.0203476-.1017494 0-.2145996-.0203476-.3477974-.0628967-.3459682-.1073074-.6697254-.2978668-.9823704-.482872-.024559-.0145264-.0441284-.0292282-.0650749-.0438919.1792793-.2299194.3839417-.4356766.6489487-.5482483.2494698-.1059723.5275402-.1182022.7985649-.1213379.0168247-.0001907.033762-.0004501.0506096-.0006104.2338963.2671661.4247608.5677261.5454025.895874-.1568089.1531983-.3048878.2953186-.4891701.3436356zm1.3449707-1.0119705c-.066597.1017532-.1868439.1683502-.3126564.2405014-.0628929.0370026-.1258011.0721588-.1850052.112854-.0745239.0507584-.1418686.108963-.206728.1691818-.0976391-.2648239-.2310181-.5115738-.3798885-.7576675-.0001469-.0002441-.0003834-.0004807-.0005302-.0007324.1490517-.0081253.296814-.0253143.4395981-.0679169.2597237-.077507.5064468-.2523575.5952797-.5084381.0061874-.0178528.0074081-.0365448.0120163-.0546722.0494576.1329422.085083.2722778.1026726.4154816.0240515.2016448.0036925.3496474-.0647584.4514083z" fill="#4abba4"/><path d="m84.6896591 62.1911201c-.0851059-.6863708-.4717636-1.344986-1.0711823-1.6927948-.5975647-.3459549-1.4004745-.3459549-1.9610443.0592041-.1165466.0832558-.2238541.1831512-.358902.2312546-.0869522.0314484-.179451.0388565-.2682648.0610542-.6937637.1646461-.680809.7973671-.6308517 1.3560715.0499496.5661125-.046257.9694328.5143051 1.3005867.3922043.2312546.7899704.4643631 1.2247238.6012611.2312546.0703049.4791641.1147003.7141266.051796.4403076-.116539.7030106-.5624084 1.0804138-.8214188.2238617-.1535454.4995117-.249752.6493683-.4754486.1276551-.1924133.135048-.4403114.1073075-.671566zm-2.0461502-1.4541435c.2534561 0 .501358.0666122.714119.1887093.1617737.0943069.306221.2221184.4274826.3731232-.1143341.4537964-.4550934.8606491-.9078064.9754181-.0956268-.0823059-.208107-.1591148-.2824707-.2342148-.2105789-.2126808-.5205841-.354393-.6132812-.6389656-.0541611-.1663055-.0191727-.3430328.0427094-.5103073.1832274-.0992547.3932341-.1537629.6192473-.1537629zm-1.7242355 1.4578362c-.0481033-.5494576.0018463-.865818.405159-.9620132.0240479-.005558.0499573-.0092583.0739899-.0148048.0499573-.0092468.1073074-.0185051.1646576-.0388527.0575714-.0208359.1085587-.0497856.155838-.0808945.0055466.160511.0182953.3236771.0923538.4650269.0861816.1644859.2430801.2775192.3881836.393383.127861.1021004.2501907.2131882.3656006.3309479-.2230682-.0159187-.4706039-.0611534-.6442261-.0305328-.39814.0702133-.6675491.3837852-.8269424.7590446-.1391678-.1484528-.1471863-.3202782-.1598129-.5826416-.0037004-.0758592-.0074082-.1554109-.0148011-.2386628zm1.8407898 1.4837341c-.0499496.0129547-.1035995.0203476-.159111.0203476-.1017456 0-.2145996-.0203476-.3477936-.0628929-.3459702-.1073074-.6697311-.2978668-.9823761-.482872-.024559-.0145302-.0441284-.029232-.0650711-.0438881.1792755-.2299232.3839417-.4356804.6489487-.5482483.2494659-.1059761.5275345-.1182022.7985611-.1213417.0168228-.0001945.0337601-.0004539.0506134-.0006104.2338943.2671623.4247589.5677261.5454025.8958778-.156807.1531945-.3048935.295311-.4891739.343628zm1.3449707-1.0119667c-.066597.1017494-.1868439.1683502-.3126526.2405052-.0628967.0370026-.1258011.0721512-.1850052.1128502-.0745239.0507545-.1418686.108963-.2067261.1691818-.097641-.2648239-.2310181-.5115738-.3798904-.7576637-.000145-.000248-.0003891-.0004883-.0005341-.0007362.1490555-.0081291.296814-.0253143.4395981-.0679169.2597275-.077507.5064468-.2523613.5952835-.5084343.0061874-.0178528.0074081-.0365524.0120087-.0546761.0494614.1329384.0850906.2722778.1026764.4154816.0240555.2016449.0036926.3496475-.0647583.4514084z" fill="#4abba4"/><path d="m64.1178818 83.7931213c-.0851059-.6863632-.4717598-1.3449783-1.0711823-1.6927872-.5975609-.3459549-1.4004745-.3459549-1.9610405.0592041-.1165543.083252-.2238579.1831512-.3589096.2312546-.0869446.0314484-.1794472.0388489-.2682571.0610504-.6937675.16465-.6808128.7973709-.6308594 1.3560715.0499535.5661163-.0462494.9694366.5143051 1.3005905.3922081.2312546.7899704.4643555 1.2247276.6012573.2312546.0703049.4791641.1147079.7141228.051796.4403114-.116539.7030144-.5624084 1.0804176-.8214188.2238617-.1535416.4995155-.2497482.6493683-.4754486.1276551-.1924133.135048-.4403076.1073075-.6715698zm-2.0461464-1.4541397c.2534523 0 .5013542.0666122.7141113.1887131.1617775.0943069.306221.2221146.4274826.3731232-.1143265.4537888-.4550896.8606415-.9077988.9754181-.0956306-.0823059-.208107-.1591187-.2824745-.2342148-.2105789-.2126846-.5205841-.354393-.6132774-.6389694-.0541687-.1663055-.0191765-.3430328.0427055-.5103073.1832314-.0992585.3932343-.1537629.6192513-.1537629zm-1.7242432 1.4578324c-.0480995-.5494537.0018539-.8658142.4051628-.9620056.0240517-.0055618.0499535-.0092621.0739937-.0148087.0499535-.0092468.1073036-.0185089.1646576-.0388565.0575638-.0208282.1085587-.0497818.1558342-.0808945.0055466.1605148.0182953.3236847.0923576.4650345.0861778.1644821.2430763.2775116.388176.3933792.1278687.1021042.2501907.2131882.3656044.3309479-.2230682-.0159149-.4706078-.0611496-.6442299-.0305328-.3981361.0702133-.6675453.3837891-.8269386.7590485-.1391716-.1484528-.1471901-.320282-.1598129-.5826492-.0037041-.0758516-.0074082-.1554033-.0148049-.2386628zm1.8407936 1.4837417c-.0499535.0129471-.1035995.0203476-.159111.0203476-.1017494 0-.2145996-.0203476-.3477974-.0628967-.3459663-.1073074-.6697235-.2978668-.9823723-.482872-.024559-.0145264-.0441284-.0292282-.0650749-.0438919.1792793-.2299194.3839455-.4356766.6489487-.5482483.2494698-.1059723.5275421-.1182022.7985649-.1213379.0168266-.0001907.0337639-.0004501.0506096-.0006104.2338982.2671661.4247627.5677261.5454025.895874-.1568069.1531983-.3048859.2953187-.4891701.3436356zm1.3449745-1.0119705c-.0666008.1017532-.1868439.1683502-.3126564.2405014-.0628967.0370102-.1258049.0721588-.1850052.112854-.0745277.0507584-.1418686.108963-.2067299.1691818-.097641-.2648239-.2310181-.5115738-.3798904-.7576599-.000145-.0002518-.0003815-.0004883-.0005302-.0007401.1490517-.0081253.2968178-.0253143.4396019-.0679169.2597198-.077507.5064468-.2523575.5952759-.5084381.0061913-.0178452.0074081-.0365448.0120163-.0546722.0494576.1329422.085083.2722778.1026764.4154816.0240516.2016449.0036926.3496475-.0647584.4514084z" fill="#4abba4"/><path d="m73.2884521 35.8639679c-.4100342.4799805-.9300537.8099976-1.4900513 1.0999756-.6999512.3699951-1.4699707.6699829-2.1499634 1.0800171-.6700439.4099731-1.25.9299927-1.8300171 1.4499512-1.3699951 1.2300415-2.7399902 2.460022-4.1099892 3.6900024-.1600342-.5.0199585-1.0699463.3900185-1.4499512.1499634-1.210022.2799683-2.4300537.3699951-3.6400146.0199585-.3699951.0499878-.75.1999512-1.0900269.1000366-.2299805.25-.4199829.4400024-.5899658.3699951-.3300171.8800049-.5200195 1.3800049-.5800171.75-.0900269 1.5100098.0599976 2.2600098.1599731 1.5100099.1900025 3.0499879.1400147 4.5400391-.1299438z" fill="#d6b250"/><path d="m68.7484131 35.9939117c-.75-.0999756-1.5100098-.25-2.2600098-.1599731-.5.0599976-1.0100098.25-1.3800049.5800171.2400513.0799561.4900513.1300049.7300415.1699829 1.7999878.3599854 3.6699829-.0800171 5.4699707.2700195.1699829.0299683.3300171.0700073.4899902.1099854.5599976-.289978 1.0800171-.6199951 1.4900513-1.0999756-1.4900512.2699585-3.0300292.3199463-4.540039.1299438z" fill="#bb9b45"/><path d="m35.9254608 43.0068283c-.3683777.0975952-.7398949.0829659-1.1175232.034729-.4745903-.0565414-.9599457-.1719017-1.4383698-.2017097-.473465-.0264244-.9399681.0327263-1.4064808.0918198-1.1025524.1405334-2.2050858.2810326-3.3076191.4215355.0921669-.3032265.3771954-.5244637.6914043-.5861359.4898376-.5493965.9731998-1.110611 1.4332542-1.6805496.1369209-.1768837.2822781-.355278.4734688-.4726486.1286221-.0798645.2683144-.1227379.4210167-.1419258.2970181-.036869.6155033.0438499.8843899.1856956.4033356.2127495.7292442.5481415 1.0673599.8552399.6846201.6126975 1.4664995 1.1165084 2.2990991 1.4939498z" fill="#d6b250"/><path d="m33.6263618 41.5128784c-.3381157-.3070984-.6640244-.6424904-1.0673599-.8552399-.2688866-.1418457-.5873718-.2225647-.8843899-.1856956.0917587.1221085.1987228.2327805.3041744.3350143.7702637.7966499 1.8499069 1.2200737 2.6235886 2.0117836.0741234.0732346.1398468.1480522.2055626.2228165.3776283.0482368.7491455.0628662 1.1175232-.034729-.8325996-.3774414-1.614479-.8812523-2.299099-1.4939499z" fill="#bb9b45"/><path d="m85.2184448 51.6239166c-.1199951.0500488-.2400513.1000366-.3600464.1700439-.5199585.2599487-1 .6099854-1.3999634 1.0299683-.2399902.2600098-.4700317.5599976-.5599976.9100342-.1000366.3399658-.0700073.7199707-.2000122 1.0499878-.2200317.5499878-.7999878.8399658-1.3499756 1.0700073-.460022.1999512-.9300537.3800049-1.4000244.5599976-.3699951.1300049-.7600098.2600098-1.1500244.2099609-.3299561-.0499878-.6300049-.2399902-.9099731-.4099731-.5999756-.3800049-1.1500244-.7600098-.9500122-1.460022.2299805-.8099976.1400146-1.5100098.1400146-2.3399658.0100098-.9100342.3099976-1.8200073.8599854-2.5300293.0100098-.0100098.0100098-.0199585.0200195-.0299683.039978-.0599976.0800171-.1100464.1499634-.1400146.0700073-.0200195.1500244 0 .2200317.0200195.6499634.1900024 1.210022.6099854 1.8300171.8800049.4799805.2099609.9899902.3299561 1.5.4499512.0899658.0200195.1900024.0400391.2799683.0200195.1199951-.0200195.210022-.1199951.2999878-.1900024.5300293-.3800049 1.2600098-.1099854 1.8400269.1699829.3800049.1900024.7600097.3699951 1.1400146.5599975z" fill="#d6b250"/><path d="m85.2184448 51.6239166c-.1199951.0500488-.2400513.1000366-.3600464.1700439-.1999512-.0200195-.3899536-.0100098-.5799561-.0100098-.4200439.0199585-.8300171.039978-1.2399902.0499878-.1400146.0100098-.2700195.0200195-.4000244.0499878-.2000122.0599976-.3800049.2000122-.5800171.2700195-.1900024.0599976-.3999634.0499878-.6099854.039978-.3400269-.0100098-.6900024-.0299683-1.0300293-.039978-.4499512-.0200195-.9299927-.0599976-1.2799683-.3400269-.1400146-.1099854-.2399902-.25-.3400269-.3899536-.3200073-.4500122-.5700073-.9200439-.7999878-1.4100342-.0200195-.039978-.039978-.0899658-.0599976-.1300049.0100098-.0100098.0100098-.0199585.0200195-.0299683.039978-.0599976.0800171-.1100464.1499634-.1400146.0700073-.0200195.1500244 0 .2200317.0200195.6499634.1900024 1.210022.6099854 1.8300171.8800049.4799805.2099609.9899902.3299561 1.5.4499512.0899658.0200195.1900024.0400391.2799683.0200195.1199951-.0200195.210022-.1199951.2999878-.1900024.5300293-.3800049 1.2600098-.1099854 1.8400269.1699829.3800051.1900026.7600099.3699953 1.1400148.5599977z" fill="#bb9b45"/><path d="m44.0997849 66.9180908c-.0775986.0323639-.1552353.0646896-.2328339.1099625-.3362427.1680984-.6466713.394455-.9053154.6660461-.1551971.1681442-.3039551.3621368-.3621368.5884933-.0646896.2198486-.045269.4655838-.1293411.6790009-.1422882.3556595-.5173302.5431824-.8729897.6919403-.2974854.129303-.6014404.2457428-.9053574.3621368-.2392654.0840683-.491478.1681442-.7436905.1357803-.2133713-.0323257-.4074059-.1551971-.5884514-.2651215-.387989-.2457352-.7436905-.491478-.6143494-.9441528.1487236-.5238037.0905457-.9764862.0905457-1.5131912.0064735-.5884933.2004662-1.1769485.5561295-1.6361008.0064697-.0064774.0064697-.0129089.0129433-.0193787.0258522-.0388031.0517464-.071167.0969772-.0905457.0452728-.0129471.0970192 0 .1422882.0129471.4203148.1228714.7824898.3944626 1.1834221.5690765.3103905.1357727.6401978.2133713.9700089.2909698.0581779.0129471.1228676.0258942.1810455.0129471.0775986-.0129471.1358185-.0775986.1939964-.1228714.3427544-.2457352.8148117-.0711212 1.1898918.1099243.245739.1228717.491478.2392657.737217.3621371z" fill="#d6b250"/><path d="m44.0997849 66.9180908c-.0775986.0323639-.1552353.0646896-.2328339.1099625-.129303-.0129471-.2521706-.0064774-.3750381-.0064774-.2716331.0129089-.5367508.025856-.8018684.0323257-.0905457.0064774-.174614.0129471-.2586861.0323257-.1293411.0388031-.245739.1293411-.3750801.174614-.1228676.0388031-.2586441.0323257-.3944588.025856-.2198868-.0064774-.4462051-.0193787-.6660919-.025856-.2909698-.0129471-.6014023-.0387955-.8277206-.2198868-.0905418-.0711212-.1551933-.1616669-.2198868-.2521667-.2069397-.2910156-.3686066-.5949707-.5173302-.9118347-.0129433-.0258484-.0258522-.0581741-.0387955-.0840683.0064697-.0064774.0064697-.0129089.0129433-.0193787.0258522-.0388031.0517464-.071167.0969772-.0905457.0452728-.0129471.0970192 0 .1422882.0129471.4203148.1228714.7824898.3944626 1.1834221.5690765.3103905.1357727.6401978.2133713.9700089.2909698.0581779.0129471.1228676.0258942.1810455.0129471.0775986-.0129471.1358185-.0775986.1939964-.1228714.3427544-.2457352.8148117-.0711212 1.1898918.1099243.245739.1228716.491478.2392656.737217.362137z" fill="#bb9b45"/><path d="m65.2903671 67.8686752c-.2259903.0072556-.4446793.0218506-.6560745.0582886-1.1518364.1895447-2.2234459.7800369-3.2513618 1.3559341-1.1518364.648819-2.303627 1.3997116-3.5064964 1.9610138.1385117-.6560745.5759392-1.2028275.8383713-1.8079071.3717957-.8602142.6269302-1.8006134.9112511-2.6900177.0072975-.014595.0072975-.0218506.0145493-.0364456.6634178-.087471 1.3194923.2186966 1.9902039.2697296.2551346.0218887.5103111.0073013.7581444.0291443.3134651.0364838.612381.1312637.9112549.2259903.6634137.2114411 1.3267896.4228287 1.9901578.6342697z" fill="#d6b250"/><path d="m65.2903671 67.8686752c-.2259903.0072556-.4446793.0218506-.6560745.0582886-.0437393 0-.0801773-.0072937-.1239166-.0072937-.211441-.0145493-.4228363-.0364456-.626976-.0874786-.2113953-.051033-.4082375-.1457672-.6123352-.2113953-.612381-.196846-1.2684555-.131218-1.9099808-.1749496-.4592743-.0291901-.9404411-.131218-1.3267899-.4009476-.1166649-.0802231-.2770233-.182251-.4082375-.298912.0072975-.014595.0072975-.0218506.0145493-.0364456.6634178-.087471 1.3194923.2186966 1.9902039.2697296.2551346.0218887.5103111.0073013.7581444.0291443.3134651.0364838.612381.1312637.9112549.2259903.6634139.211441 1.3267898.4228286 1.990158.6342696z" fill="#bb9b45"/><g fill="#293b44"><path d="m70.4896851 59.5886383c-.4920654 0-.8909912.3989258-.8909912.8910522s.3989258.8910522.8909912.8910522c.4921265 0 .8910522-.3989258.8910522-.8910522s-.3989258-.8910522-.8910522-.8910522z"/><path d="m82.540863 69.5082626c-.4920654 0-.8909912.3989258-.8909912.8910522s.3989258.8910522.8909912.8910522c.4921265 0 .8910522-.3989258.8910522-.8910522s-.3989257-.8910522-.8910522-.8910522z"/><path d="m50.9880791 69.728447c-.4920654 0-.8909912.3989258-.8909912.8910522s.3989258.8910522.8909912.8910522c.4921265 0 .8910522-.3989258.8910522-.8910522s-.3989258-.8910522-.8910522-.8910522z"/><path d="m41.165741 50.0625191c-.4920654 0-.8909912.3989258-.8909912.8910522s.3989258.8910522.8909912.8910522c.4921265 0 .8910522-.3989258.8910522-.8910522s-.3989258-.8910522-.8910522-.8910522z"/><path d="m55.9432487 36.0728912c-.4920654 0-.8909912.3989258-.8909912.8910522s.3989258.8910522.8909912.8910522c.4921265 0 .8910522-.3989258.8910522-.8910522s-.3989257-.8910522-.8910522-.8910522z"/><path d="m76.5441666 29.8953152c-.4920654 0-.8909912.3989258-.8909912.8910522s.3989258.8910522.8909912.8910522c.4921265 0 .8910522-.3989258.8910522-.8910522s-.3989258-.8910522-.8910522-.8910522z"/><path d="m30.9092102 31.3912926c-.4920654 0-.8909912.3989258-.8909912.8910522s.3989258.8910522.8909912.8910522c.4921265 0 .8910522-.3989258.8910522-.8910522s-.3989257-.8910522-.8910522-.8910522z"/><path d="m22.2744694 47.17033c-.4920654 0-.8909912.3989258-.8909912.8910522s.3989258.8910522.8909912.8910522c.4921265 0 .8910522-.3989258.8910522-.8910522s-.3989258-.8910522-.8910522-.8910522z"/><path d="m36.9084129 79.4882812c-.4920654 0-.8909912.3989258-.8909912.8910522s.3989258.8910522.8909912.8910522c.4921265 0 .8910522-.3989258.8910522-.8910522s-.3989257-.8910522-.8910522-.8910522z"/></g><g fill="#d6b250"><path d="m71.5992889 55.0417862c-.0721054 0-.1392899-.0457611-.1629562-.118084l-.125-.3823814c-.0354919-.1089325-.0796967-.2442055-.0642929-.3901901.0270157-.2553673.2370605-.4830513.5348434-.5803795.1520157-.0495529.3046951-.0647316.4524689-.0792427.068306-.0066948.1366119-.0133934.2042465-.0238838.1888504-.0290184.3707733-.0888443.5406494-.1776848.0499954-.0261192.0627213-.0383949.0656204-.0435295.0029068-.0062485.0013428-.0357132-.0194168-.065403-.0799103-.1131744-.2781372-.1317024-.4805984-.1346016-.2801437-.0042419-.5888596-.0424156-.7535934-.2951012-.1515732-.232151-.0955429-.5672073.1301346-.7792664.1560364-.1464348.3741226-.2330475.6667633-.2645187.2558136-.0279045.5145264-.0151787.7678833.0381699.0926437.0196419.1520157.1104965.1325989.2031326-.0198669.0928612-.1129532.1511192-.2031326.1325951-.2176437-.0459862-.4404221-.0564766-.6605148-.0330391-.2158585.0234375-.3692093.0801353-.4687653.1736679-.0901871.0845985-.1428604.2421951-.0779037.3417511.0770111.118084.2814789.136837.4714432.1397362.1973267.002903.5643082.0084839.7560501.2799225.0971069.138176.1102753.3102798.0334854.438633-.0508957.0854912-.1303635.1348228-.2013474.1718788-.2031326.1060295-.4209976.1776848-.6468964.2125092-.0736618.0113831-.1484451.0189743-.2232208.0263405-.1352768.0131683-.2629547.0258904-.3792572.063839-.1390686.0455399-.2859421.1529083-.3004532.2904129-.0078125.0732155.0212021.1620598.0491104.247776l.125.3821564c.0294647.0899582-.0196457.1868362-.1096039.216301-.0176316.0058058-.0357132.0084837-.0533448.0084837z"/><path d="m46.0174103 57.030941c-.0894775 0-.1728592-.0567856-.2022209-.1465416l-.1551323-.4745255c-.0440445-.1351852-.0988922-.3030586-.0797806-.4842262.0335197-.316906.2941933-.5994644.6637306-.7202415.1886482-.0614967.3781281-.0803337.561512-.0983429.0847702-.0083084.1695366-.0166206.2534714-.0296402.2343559-.0360107.460125-.1102524.6709328-.2205048.0620537-.0324097.0778427-.0476456.0814438-.0540161.0036011-.0077591.0016632-.044323-.0241013-.0811691-.0991707-.1404457-.3451614-.1634369-.5964165-.167038-.3476524-.0052643-.7307663-.0526352-.9352074-.3662148-.1880913-.2880974-.1185608-.7038994.1615028-.9670639.193634-.1817245.4642792-.2892075.827446-.3282661.3174629-.034626.6385231-.018837.9529381.0473709.1149597.0243759.1886482.1371231.164547.2520828-.0246544.1152382-.1401711.187542-.2520866.164547-.2700882-.0570641-.5465508-.0700836-.8196907-.0409966-.2678757.0290871-.4581833.0994492-.5817337.215519-.1119156.1049881-.1772919.3005638-.0966797.4241104.0955734.1465416.3493195.1698112.5850601.1734123.2448807.0036011.7002983.0105286.9382553.3473778.1205025.1714745.1368446.3850555.0415497.5443382-.0631599.1060982-.1617775.1673164-.2498665.2133026-.2520866.1315842-.5224533.2205048-.8027954.2637215-.0914154.0141258-.1842155.0235443-.2770157.0326881-.1678696.0163422-.3263245.0321312-.4706497.0792236-.1725807.0565109-.3548584.1897583-.3728638.3604012-.009697.0908585.0263176.2011108.0609436.3074875l.1551285.4742508c.0365677.1116371-.0243759.2318611-.136013.2684288-.021885.0072022-.044323.0105248-.0662079.0105248z"/><path d="m75.6912918 65.0873108c-.1003418 0-.197998-.012207-.2905273-.0368652-.1652832-.0441895-.3063965-.1240234-.4431152-.201416-.0463867-.026123-.0927734-.0524902-.1398926-.0771484-.407959-.2124023-.8823242-.2893066-1.3356934-.2141113-.1022949.0180664-.1984863-.0522461-.215332-.1547852-.0166016-.1022949.0524902-.1984863.1547852-.215332.532959-.0866699 1.0900879.0019531 1.5693359.251709.0507812.0263672.1013184.0549316.1516113.083252.1213379.0688477.236084.1337891.3549805.1655273.1274414.0344238.2727051.0322266.4187012-.0039062.208252-.0517578.3774414-.1669922.4645996-.3161621.0878906-.1508789.0808105-.3508301-.0163574-.4648438-.1218262-.1430664-.3630371-.1716309-.5964355-.1994629l-.0478516-.0058594c-.4521484-.0549316-.7358398-.223877-.8430176-.5021973-.1271973-.3305664.0637207-.6811523.3178711-.8566895.2324219-.1604004.5009766-.2070312.7785645-.2443848.0998535-.0146484.1970215.0581055.2106934.1608887.013916.1025391-.0581055.1970215-.1608887.2106934-.2307129.0310059-.451416.0683594-.6154785.1813965-.1318359.0910645-.2355957.270752-.1806641.4133301.0664062.1728516.3293457.239502.5383301.2648926l.046875.0056152c.2763672.0327148.6206055.0737305.8376465.3286133.2016602.2370605.2241211.6057129.0546875.8969727-.1379395.236084-.392334.4150391-.6982422.4909668-.105713.026367-.2119142.0393065-.3151857.0393065z"/><path d="m49.8714447 25.8381004c-.0225296 0-.045166-.0069408-.0647049-.0213547-.0486908-.0357704-.0590477-.1042156-.0231705-.1527996.223484-.3035679.5416794-.5423222.8957558-.6723766.1108322-.0406818.2245522-.0709.3345337-.1001568.1215096-.0322475.2362976-.0627861.3472366-.1061363.1351814-.0528545.3742561-.1747952.4564743-.3962517.0900154-.2425976-.0276527-.5038815-.1521568-.7804356-.0449524-.0998363-.0896912-.1993542-.1250381-.298336-.1436119-.4016972-.1202278-.8393764.0624657-1.1710281.2090721-.3794861.6323357-.6111927 1.031044-.5610085.0599022.0073681.1025047.0620384.0950317.1219406-.00737.0599022-.0610771.1041069-.1219406.0950317-.3108292-.0389748-.6455765.1462841-.8125763.4495316-.1529045.2776222-.170948.6483536-.0481567.9918556.0335274.0936451.0760269.1878223.1185226.2822132.1372108.304636.2790108.6196289.1578178.9463673-.0829659.2232723-.2895813.4092789-.5818291.5237446-.1224747.0479431-.2486839.0814705-.3707314.1139297-.1099815.0291519-.2139816.0568066-.3153152.0939655-.3143501.1154251-.5966721.3273792-.7951698.5967789-.0213547.0291501-.0544548.0445252-.0880928.0445252z"/><path d="m86.7539902 44.6683426c-.078743 0-.1569672-.0340881-.21035-.1001511-.2645187-.3258286-.6749039-.5084305-1.1090775-.7018661l-.2497253-.1125755c-.7718964-.3575363-1.212677-.7938232-1.3474426-1.3334351-.0985718-.3937454-.014801-.7716293.06633-1.1368332.0679092-.3062744.1321259-.5953712.0782166-.8593636-.0758438-.369957-.3733902-.6603737-.688385-.9679718-.2645264-.2581749-.5382919-.525341-.7171936-.8691368-.3842316-.7383347-.1841888-1.7340508.4558411-2.2667923.1146851-.0953979.2854004-.0798073.3810577.0348816.0956573.1146851.0800705.2853966-.0348816.3810577-.4518814.3763008-.5932541 1.0794868-.3218613 1.6011314.1387329.2668991.370224.4925728.6151886.7317238.3596497.3509331.7314606.7137566.840332 1.2467613.0771637.3768311-.0026398.7367477-.0800705 1.0850372-.0705566.3179016-.137146.6183624-.0697632.8884315.0927582.3707504.4362869.6891823 1.0501556.9735222l.2423248.1091385c.4732819.2108765.9626846.4286232 1.3091278.8553963.0940704.1160088.0766296.28619-.0396423.3805313-.0499421.0406953-.1104584.0605127-.1701813.0605127z"/><path d="m52.5772018 44.2908096c-.0928421 0-.1714668-.0714302-.1790123-.1654968-.0078964-.0988083.0659866-.1855049.1649704-.1934052.362236-.0287819.6605873-.0605469.9287529-.1828728.2248192-.1024895.4787674-.3157272.5170288-.6067085.0435219-.3330994-.2104263-.6339073-.4412117-.7902794-.2379799-.1612854-.5168533-.2532501-.8120461-.3504791l-.2056847-.0687943c-.3666229-.1265373-.7779999-.3034439-1.0498505-.6551476-.3015099-.3896141-.3596039-.9494629-.1449661-1.3927803.2146416-.4434891.6897202-.7450027 1.1825294-.750267h.0019302c.0984573 0 .1786613.0791512.1797142.177784.0010529.0993347-.0786247.1805916-.177784.1816444-.3596001.0038605-.7062149.2237625-.8627625.5473862-.156723.3236275-.114254.7320175.1056519 1.0165062.2141113.2767639.5665169.425766.8827705.5351028l.2009506.0672188c.3057213.1007347.621624.2048073.9011993.3941727.4154091.2815056.649353.7269287.5958252 1.1346169-.0479126.3653946-.3253784.7053413-.7241173.8871613-.3471413.1581268-.7365799.1891899-1.0494995.2141113-.0047375.000351-.0096508.0005264-.0143887.0005264z"/><path d="m22.1766014 67.0086746c-.1033955 0-.1889-.0821152-.1924782-.186264-.0237312-.6893082.0242958-1.3827591.5320473-1.7850418.1604614-.1269379.3412628-.2007675.5162258-.2721405.1540585-.0630951.2998295-.122612.4165974-.212822.261034-.2018967.3653717-.5851593.2425766-.8915787-.0512276-.1282578-.1386147-.2469063-.2308998-.372715-.1135654-.1542473-.2308979-.3139572-.297945-.5113297-.1020775-.3017159-.0419998-.6531487.161026-.9403572.2030258-.2870255.5143433-.4608574.8326302-.4650002.1045265-.0096054.193985.0838089.195303.1904068.001318.1064072-.0838089.193985-.1904068.1953011-.195303.002449-.3906078.1154518-.5224419.3020897-.1320229.1866417-.1734562.4086876-.1107407.5936356.0478363.1410599.1427574.2700729.2433281.4068031.102644.1397438.2086754.284008.2783604.457653.1843796.4604797.0274963 1.0365944-.364994 1.3401909-.1582012.1224213-.3352356.1947403-.5066223.264801-.1568832.0640335-.3051014.1244888-.4226227.2175293-.3734703.2958755-.4062405.8810349-.3860874 1.4693909.003767.1064072-.0796661.1956787-.1860752.1992569-.0022604.0001908-.0045206.0001908-.0067808.0001908z"/></g></svg>