<svg enable-background="new 0 0 110 110" height="512" viewBox="0 0 110 110" width="512" xmlns="http://www.w3.org/2000/svg"><path d="m25.364037 66.995743h9.094842v26.18565h-9.094842z" fill="#feda6f" transform="matrix(.707 .707 -.707 .707 65.392 2.307)"/><path d="m58.0375023 83.0986023 32.6981544-36.4646416c2.5349197-2.8270454 2.4175949-7.1428223-.2674332-9.8278503l-17.274414-17.2744141c-2.6850281-2.6850281-7.0007019-2.8022499-9.8277435-.2673302l-36.4646435 32.6981545c-3.0531921 2.7378311-3.1822414 7.4777908-.2823734 10.3776588l21.0407982 21.0407944c2.899868 2.8998718 7.6398239 2.7708206 10.377655-.2823715z" fill="#ededed"/><g fill="#b1b2b6"><path d="m67.1921463 41.3343315c-.4611511-.0941124-.9658813-.2305374-1.3807755-.0083313-.4407654.2360611-.5967636.7762375-.7579956 1.249527-.2388.7009888-.5771942 1.3679619-1.0018616 1.9746513.1973724.3618851.7204361.292511 1.1324997.2816811.7968674-.0209427 1.5905609.408493 2.0089874 1.0869827.0969925.1572762.1948242.342598.3736496.3891258.2303085.0599213.4365234-.1436119.5950317-.3211136.8342896-.934288 1.8828278-1.6761093 3.0415421-2.1518402.5198364-.2134323 1.131546-.4434624 1.2986603-.9798965.8075944-2.592411-4.2978668-1.3143044-5.3097381-1.5207863z"/><path d="m71.7486115 32.5173225c.6089478.2575455.9362946 1.0336609 1.5886612 1.1412163-.3433304.8842659-.4698792 1.8518066-.3655319 2.794632-.4094925-.330925-.8306656-.6473312-1.2623444-.9487267-.3146515-.2196846-1.1403046-.5477333-1.3321838-.8592529-.2546539-.4134293.0288849-.5322838.3897476-.9606628.1015167-.1205063.91716-1.1944657.9816513-1.1672059z"/><path d="m64.4874191 31.6369572c-1.0070229.4346066-2.1206436.6196728-3.2141075.5341396-.0818787-.0064049-.1710625-.0125122-.2390938.033493-.0853081.0576859-.1042824.1736832-.1102715.2764893-.0247421.4246941.0427437.8545227.1964493 1.2511978.1371918.3540573.3465576.7110214.2874069 1.0860939-.0169678.1075935-.0560646.216732-.0306396.3226471.0357742.1490135.1850662.2390099.3255501.3003006.8591537.3748322 1.7733345.1032486 2.2147331-.7362976.2130165-.4051666.3739815-2.9834785.569973-3.0680637z"/><path d="m81.0160446 44.3096275c.5791855-.631115 1.1583786-1.2622299 1.7375641-1.8933449.435318.4201927.8861084 1.0494652.5830078 1.5730972-.102951.1778526-.2768707.3006935-.4410934.4242287-.5384598.4050484-1.0267868.8766823-1.4503098 1.4007378-.249939.309269-.4889603.6804695-.4334106 1.0742149-.551178-.2383385-.877037-.8787613-.8053741-1.4749756.0716629-.5962105.5025787-1.1197281 1.050293-1.3659248"/><path d="m82.8855286 36.3752899c.0568771.0697632.1171875.1509438.1048965.2401047-.0097198.0704536-.0627518.1259842-.1130676.1762543-.6722641.6716614-1.3245468 1.4117317-2.053215 2.0115433-1.3400421-1.692318-1.1728516-2.9096107.7571869-3.9765511.4730834.4662781.8799667 1.0282745 1.3041992 1.5486488z"/><path d="m70.3409271 55.5160217c.1534119-1.0145226.5992661-1.9831161 1.2702026-2.7594147.7529373.7668152 1.4680481 1.5707779 2.1418457 2.4079895-.6295395.6058273-1.2590714 1.2116585-1.8886108 1.8174858-.0456619.0439453-.0929489.0889511-.1519165.1121712-.1832428.0721512-.3696442-.0897446-.4943237-.2421875-.4436874-.5424957-.799614-1.1566048-1.0497818-1.811264"/><path d="m65.6892853 53.0894508c-1.2566528.6415062-2.8055458.6784058-4.0913239.097477-.438427 1.7035408-.3724289 3.4908447-.3034821 5.2485466.0016441.041893.0052185.0882797.0355453.1172256.0490761.0468407.1292496.0175362.1893272-.0139771.6337357-.3324242 1.2674751-.6648483 1.9012146-.9972725.1175804-.061676.2399864-.1275635.3144226-.2375107.0793571-.1172142.0917015-.2657776.1016045-.4069824.0673561-.9603958.1513176-1.0959969.6944046-1.7889862.244423-.3118896.9274751-1.9136085 1.1582872-2.0185203z"/><path d="m67.681839 63.694931c-.2706528.8342209-.4950333 1.6834564-.6717758 2.5424957.456871-.5208206 1.303978-.6435852 1.8899002-.2738876.1949921-1.1048279.3925323-2.2187996.8092346-3.2604408-.4103241.6969109-1.252655 1.112915-2.0554581 1.0151405"/><path d="m55.3939323 43.8058777c-.9081459.1387863-1.8283577.2622414-2.7431526.1778107-.9148026-.0844307-1.8350182-.3946381-2.5044785-1.023777.4872856 1.0969238.7292786 2.3020058.7032356 3.5020103-.0049477.2280121-.000309.4972267.1866798.6278.0818176.0571289.1840515.0746155.2826271.0901222.4616051.0726013.9249878.1339035 1.3895912.1838303.4335251.0465851.8790207.0823975 1.2997742-.0322685 1.3250963-.3611832.9225007-3.4547387 1.3857232-3.525528z"/><path d="m54.0276337 34.4790077c-.2605171 1.0655823-.2202377 2.2030029.1150093 3.2474861-.8967781-.4094467-1.7726593-.8646545-2.6230965-1.363266.4694023-.7320976 1.2056122-1.2889404 2.0378342-1.5413475"/><path d="m52.1652031 57.9647522c-.0053177 1.1869164-.0106354 2.3738365-.0159531 3.5607529-1.2377052-1.2558823-2.4754105-2.5117645-3.7131157-3.7676468.4373093-.4437218.9712448-.7917175 1.5537491-1.0126648.713356.6110191 1.3900032 1.2648926 2.0250778 1.9569168"/><path d="m58.6750259 67.0529327c-1.0674438-.0124512-2.1363525.1060486-3.1751518.3519897.1922989.6470947.2738991 1.3269348.2401962 2.0011597.9268951-.0151138 1.855896.1057663 2.7480621.3575592-.0318108-.7853012.0012665-1.5732193.0987816-2.3530884"/><path d="m53.5393333 77.5718613c.2841187.1381989.6186752.0306168.9271622-.0376205s.6936417-.0645523.8659439.2002792c1.4036407-1.0928574 2.7024612-2.3202667 3.87286-3.6599274-.1469803.1682358-1.7244225.2164307-2.065155.3364334-.4832764.1702042-.9125137.4548416-1.390976.6288605-.4858475.1766968-1.3885269.1356659-1.6954727.5500259-.3261681.4403076-.0929604 1.4057083-.5143624 1.9819489z"/><path d="m46.6537514 69.5389786c.0146179.5243759.0939636 1.1538086.5682602 1.3779221-1.1322708-1.1196442-2.2645378-2.2392807-3.3968086-3.3589249-.1964569-.1942596-.3978577-.3957367-.5034904-.6510315-.0987587-.238678-.1051712-.5035095-.1324272-.7603683-.1101112-1.037735-.5746498-1.9998779-1.0320358-2.9378662.2814407.5771637 1.1441536 1.2518845 1.6933975 1.5655594.6871033.3924103 1.7185287.2846832 2.3267174.7365799.9136122.6788329.4474638 2.9904708.4763869 4.0281295z"/><path d="m41.9612503 52.5825005c-.1464272.9752808.0469284 1.9982643.5392113 2.8528214-1.4699287-.7811432-2.7924385-1.8385735-3.8778648-3.100605.3093948-.667675.4999237-1.3902245.5599785-2.1236458.6413383.904686 1.5942802 1.5840187 2.6586494 1.8952942"/><path d="m43.7108383 42.9278412c-.1173859 1.1312485.0771294 2.2932816.5565147 3.3246346-1.0018959-.866581-2.003788-1.7331581-3.0056839-2.5997353.3432121-.3776932.7108955-.7331429 1.0999794-1.0633812.0813675-.0690613.1724319-.1404724.2791176-.143158.0943222-.0023766.1803322.0497742.2601318.1001205.3518524.2219887.7037086.4439774 1.0555649.665966"/><path d="m36.26231 58.9911385c-.9222832-.2694016-1.8596573-.4871368-2.8062592-.6518517.2866096.8852386.3711472 1.835247.2453423 2.7571869-.0084.0615654-.0169868.1278.0117683.1828842.0477486.0914688.1697731.1070251.2728691.1112328.6823006.0278358 1.3646011.0556755 2.0469017.0835152.2121925.0086555.4597168.0015793.5875397-.1680145.0875244-.1161308.088913-.2728844.1013222-.4177742.0446281-.5209999.2858849-1.0227928.6649323-1.3830109-.2355728-.3299866-.5982742-.5667343-.9951668-.6495781"/><path d="m67.8574677 24.6379509c-.4412994-.3848648-1.1483688-.1184673-1.6944427-.3292618l-.2426376-.6302032c-.0032196.7163048-.2683716 1.428772-.7343597 1.9735985.4848709.2134914.9933853.373455 1.5131149.4757385.2391127-.5907822.6448287-1.1128922 1.1583251-1.489872z"/><path d="m74.5494995 28.4150639c.7739716.0898705 1.5395966.2514267 2.2838898.4819298-.1651382-.4986668-.215271-1.0350361-.1454086-1.5556698-.3739548-.250061-1.9595642-1.6876202-2.3101501-1.4501896-.3412858.2311401.0743941 2.5127601.1716689 2.5239296z"/></g></svg>