<svg enable-background="new 0 0 110 110" height="512" viewBox="0 0 110 110" width="512" xmlns="http://www.w3.org/2000/svg"><path d="m81.7945862 17.1097393h-49.9917126c-2.7582645 0-4.9942741 2.2360096-4.9942741 4.9944019v65.7917175c0 2.7583923 2.2360096 4.9944 4.9942741 4.9944h49.9917145c2.7650452 0 5.0065613-2.2416382 5.0065613-5.006691v-65.7671355c-.0000019-2.765049-2.2415181-5.0066929-5.0065632-5.0066929z" fill="#fed35b"/><path d="m80.2901764 18.5658817h-48.0705032c-2.6522617 0-4.8023396 2.1500778-4.8023396 4.8024635v63.2633057c0 2.6523895 2.1500778 4.8024673 4.8023396 4.8024673h48.0705032c2.6587906 0 4.8141632-2.1554947 4.8141632-4.8142853v-63.2396678c0-2.6587887-2.1553726-4.8142834-4.8141632-4.8142834z" fill="#ededed"/><path d="m78.1848373 17.1097393h-49.9917125c-2.7582645 0-4.9942722 2.2360096-4.9942722 4.9944019v65.7917175c0 2.7583923 2.2360077 4.9944 4.9942722 4.9944h49.9917145c2.7650452 0 5.0065613-2.2416382 5.0065613-5.006691v-65.7671355c-.000002-2.765049-2.2415181-5.0066929-5.0065633-5.0066929z" fill="#feda6f"/><path d="m28.1931248 17.1097393c-2.7582645 0-4.9942722 2.2360096-4.9942722 4.9944019v65.7917175c0 2.7583923 2.2360077 4.9944 4.9942722 4.9944h3.1553669v-75.7805194z" fill="#fed35b"/><path d="m68.7492981 46.2771416h-.0000153c-.4480362 0-.8112488.3632278-.8112488.8112679v8.8106728h-1.4425201v-8.8106728c0-.44804-.3632126-.8112679-.8112488-.8112679h-.0128708c-.4480362 0-.8112488.3632278-.8112488.8112679v8.8106728h-1.4425201v-8.8106728c0-.44804-.3632126-.8112679-.8112488-.8112679h-.012886c-.44804 0-.8112488.3632278-.8112488.8112679v8.8106728h-1.4425201v-8.8106728c0-.44804-.3632126-.8112679-.8112488-.8112679h-.0000153c-.44804 0-.8112526.3632278-.8112526.8112679v8.7490234c0 1.8024521.9205475 3.4789696 2.4402008 4.445858l1.1640739.741272-.6441383 22.4945488c-.0452805 1.3495789.9636383 2.5504379 2.3116302 2.6299744 1.463192.0864487 2.6628075-1.1010437 2.6143913-2.5440903l-.6470107-22.5804978 1.1639938-.7412071c1.5196686-.9668884 2.4402008-2.6434059 2.4402008-4.445858v-8.7490234c.0000001-.4480401-.3632125-.8112679-.8112487-.8112679z" fill="#344d5b"/><path d="m54.9961052 54.4581909c0-4.5183411-2.6941185-8.1811066-6.0175171-8.1811066-3.3233452 0-6.0174637 3.6627655-6.0174637 8.1811066 0 3.6383705 1.7481384 6.7181358 4.1637878 7.7812767l-.6092911 21.2796822c-.0452766 1.3495178.9636421 2.5503845 2.3116341 2.6300049 1.4631996.0864029 2.662796-1.1011124 2.6143837-2.5441742l-.6120796-21.3641319c2.4170876-1.0619889 4.1665459-4.1429062 4.1665459-7.7826577z" fill="#344d5b"/><ellipse cx="48.979" cy="53.717" fill="#293b44" rx="4.843" ry="6.584"/><path d="m42.281605 26.157661h27.958464v11.386807h-27.958464z" fill="#ededed"/></svg>