<svg enable-background="new 0 0 110 110" height="512" viewBox="0 0 110 110" width="512" xmlns="http://www.w3.org/2000/svg"><path d="m78.7543259 80.1068726s.2161026-39.1884842 0-42.4784698c-.1440659-2.2570305-.8164139-3.0250053-1.3567123-3.7454948v-.012314c-.2521515-.3241882-.4682541-.6360703-.5882874-1.0564041-.1801224-.6483841-.2041626-.8641205-.0720367-1.1044807.1320496-.2761192.4562454-.5645504.9244308-1.5851955.876503-1.8847675-.8523941-2.7488861-.8523941-2.7488861h-.3241959l-21.491169 1.3805981-21.4790802-1.3805981h-.324192s-1.728899.8641186-.8524666 2.7488861c.3602448.7808723.636364 1.1291008.8044701 1.3811836v.0117264c.2520828.3482265.2761192.4801311.0479965 1.2967663-.1320496.4320602-.3481522.7322159-.5882912 1.068718-.5402946.7204895-1.2126427 1.4884644-1.3567104 3.7454948-.2161026 3.2899857 0 42.4784698 0 42.4784698s-1.1646423 8.3199387 4.4543362 12.7026749c3.4337616 2.6773682 10.9856491 3.6376343 16.3404541 3.9741364h5.9190598c5.3548012-.3365021 12.9066887-1.2967682 16.3404503-3.9741364 5.618904-4.3827363 4.454338-12.7026749 4.454338-12.7026749z" fill="#ededed"/><path d="m32.5751076 16.7241936v9.8904781c0 1.9375286 10.0398254 3.50807 22.424469 3.50807s22.4244652-1.5705414 22.4244652-3.50807v-9.8904781z" fill="#293b44"/><ellipse cx="55" cy="16.724" fill="#304551" rx="22.424" ry="3.508"/><path d="m32.5751076 16.7241936v9.8904781c0 1.9375286 10.0398254 3.50807 22.424469 3.50807s22.4244652-1.5705414 22.4244652-3.50807v-9.8904781z" fill="#293b44"/><ellipse cx="55" cy="16.724" fill="#304551" rx="22.424" ry="3.508"/><path d="m74.7945786 82.0129166c-13.1146469 2.0765915-26.4745102 2.0765915-39.5891609 0 0-10.9120865 0-21.8247833 0-32.7374802 13.1146431 2.0772018 26.4745026 2.0772018 39.5891609 0z" fill="#4abba4"/><path d="m77.3976135 33.870594v.0123138c-26.7499008 5.6308479-44.0868912.2280464-44.7952156 0 .240139-.3365021.4562416-.6366577.5882912-1.068718.2281227-.8166351.2040863-.9485397-.0479965-1.2967663 23.0159111 4.5867519 40.5210037.9127789 43.5945969.1922855-.1321259.2403603-.1080856.4560966.0720367 1.1044807.1200332.4203341.3361358.7322161.5882873 1.0564043z" fill="#dbd8dd"/><path d="m41.3980255 67.8964233 1.0292168-.0899887c.0487442.4124374.1621628.750824.3402596 1.0151596.1781006.264328.4546204.4780502.8295631.6411514.3749428.1630936.7967529.2446442 1.2654305.2446442.4161835 0 .7836304-.0618668 1.1023293-.1855927.3187027-.1237335.555851-.293396.7114525-.5089874s.2334023-.4508667.2334023-.7058258c0-.2587128-.0749893-.4846115-.2249641-.6777115-.1499786-.1930923-.397438-.3552551-.7423859-.4864883-.2212181-.086235-.7105179-.2202759-1.4678993-.4021225-.7573853-.1818466-1.2879295-.3533859-1.5916328-.5146103-.3936882-.2062149-.6870804-.4621124-.8801765-.7676926s-.2896423-.6477127-.2896423-1.0264053c0-.4161835.1181068-.805191.3543205-1.1670074.2362137-.3618202.5811615-.636467 1.0348396-.8239365.4536819-.1874733.9579773-.281208 1.5128937-.281208.6111565 0 1.150135.098423 1.6169395.2952652.4668045.196846.8258095.4864883 1.0770226.8689308.2512093.3824425.3861885.8154984.4049377 1.2991791l-1.0460892.0787354c-.0562439-.5211716-.2465248-.9148598-.5708504-1.1810684s-.8033142-.3993149-1.4369659-.3993149c-.6599007 0-1.1407623.1209183-1.4425926.3627586-.3018265.2418365-.4527435.5333519-.4527435.8745537 0 .2962036.1068611.539917.3205757.7311325.2099686.1912231.7583237.3871307 1.6450615.5877228.8867378.2005997 1.4950829.375885 1.8250313.525856.4799271.2212219.8342476.5014877 1.0629616.8408127s.3430748.7302017.3430748 1.1726303c0 .4386826-.1256065.8520584-.3768196 1.2401199-.2512093.3880692-.6120911.6898956-1.0826454.9054871s-1.0001602.3233871-1.5888176.3233871c-.7461357 0-1.3713531-.1087341-1.8756523-.3261948-.5042953-.2174683-.8998604-.5446091-1.1866913-.9814148s-.4377445-.9307937-.4527439-1.4819565z"/><path d="m48.5463028 70.5453873 3.1663895-8.2449837h1.1754456l3.3744812 8.2449837h-1.2429352l-.9617271-2.4971161h-3.4475938l-.9054871 2.4971161zm2.3790092-3.385727h2.7951965l-.8604927-2.2834015c-.2624588-.6936417-.457428-1.2635574-.5849113-1.7097359-.1049843.5286674-.2530861 1.0535851-.4443054 1.5747566z"/><path d="m57.0893669 70.5453873v-8.2449837h1.0910835v7.272007h4.0606232v.9729767z"/><path d="m64.7831879 70.5453873v-7.272007h-2.7164612v-.9729767h6.5352478v.9729767h-2.7277069v7.272007z"/></svg>