<svg enable-background="new 0 0 110 110" height="512" viewBox="0 0 110 110" width="512" xmlns="http://www.w3.org/2000/svg"><path d="m63.7240906 50.5048599-.6562577-16.8784599c-.0231628-.5961418-.5131493-1.0674706-1.1097527-1.0674706h-.1251372c-.6133804 0-1.1106262.4972458-1.1106262 1.110672v15.4466438h-2.424469v-15.4467353c0-.6133347-.4972038-1.1105804-1.1105804-1.1105804h-.0075378c-.6133766 0-1.1106262.4972458-1.1106262 1.110672v15.4466438h-2.424469v-15.4467354c0-.6133347-.4972-1.1105804-1.1105804-1.1105804-.6133766 0-1.1106262.4972458-1.1106262 1.1105804v15.4467354h-2.4245148v-15.4467354c0-.6133347-.4972-1.1105804-1.1105804-1.1105804h-.1251376c-.5966072 0-1.0865898.4713287-1.1097984 1.0674706l-.6585541 16.9382019c-.0345612.8887939.1817551 1.7694092.6241302 2.5410156l5.0297356 8.7734222-.6746864 34.1850471c-.0429688 2.176857 1.7098961 3.9647369 3.8871193 3.9647369h.0000458c2.1768608 0 3.9295387-1.7872391 3.8871689-3.9636383l-.6757889-34.7006721 4.9716454-8.223877c.4795074-.7932052.7159042-1.7095756.6798782-2.6357765z" fill="#ededed"/><path d="m81.2888489 10.501791c-17.8525696 5.730814-35.5255585 6.1369781-52.9935837 1.0118418-7.408844-2.1737719-14.6481256 4.0665579-14.5122137 11.1846914l.0018311.0959225c.0981874 5.1423931 4.1802778 8.9086685 9.4654379 10.665451 20.9225769 6.9546967 42.2944489 6.6220093 64.0314178-1.128067 5.2040558-1.8554611 9.0372238-5.8902035 8.9397888-10.9932137l-.0040817-.2140694c-.1359177-7.1181325-7.5769425-12.9825048-14.9285965-10.6225566z" fill="#d6683d"/><path d="m96.2145386 21.013195.0061951.3244038c.0973892 5.1005917-3.7379608 9.1403351-8.9401398 10.9975758-21.7402191 7.7441978-43.1080933 8.0800552-64.0292206 1.1234016-5.289217-1.7560711-9.3726845-5.5184479-9.4709339-10.6640854l-.0018921-.0991154c-.029767-1.5589867.292964-3.0706177.89746-4.461462.1159449 5.1272526 4.1900473 8.8717613 9.4701891 10.628006 20.9211845 6.956707 42.2890015 6.6207962 64.0292816-1.1234055 3.6443233-1.2955932 6.6099376-3.6690464 8.0390606-6.7253189z" fill="#c9522d"/></svg>