<svg enable-background="new 0 0 110 110" height="512" viewBox="0 0 110 110" width="512" xmlns="http://www.w3.org/2000/svg"><path d="m14.4732628 47.2560616c.6711693 21.811924 18.5517731 39.291111 40.5265388 39.291111s39.8553696-17.479187 40.5265427-39.291111z" fill="#de594e"/><path d="m95.5267334 47.2529068c0 1.0114784-.419693 1.9909019-1.2160034 2.9269791-4.3797531 5.2299881-20.3168793 9.1040726-39.310173 9.1040726-18.9932251 0-34.9303513-3.8740845-39.3101082-9.1040726-.7963076-.9360771-1.2160044-1.9155006-1.2160044-2.9269791 0-6.6394882 18.1431274-12.0307884 40.5261116-12.0307884 22.3830576 0 40.5261774 5.3913002 40.5261774 12.0307884z" fill="#a64139"/><path d="m94.31073 50.1798859c-4.3797531 5.2299881-20.3168793 9.1040726-39.310173 9.1040726-18.9932251 0-34.9303513-3.8740845-39.3101082-9.1040726 4.4012365-5.2297287 20.3276558-9.1038132 39.3101082-9.1038132 18.982521 0 34.9088745 3.8740845 39.310173 9.1038132z" fill="#feda6f"/><path d="m55.5024719 50.8722c-.001297-.1141663-.0017128-.2295685.0831985-.3421173.0440445-.0550003.1117516-.1137848.2742805-.1499405.1749153-.0344543.3833237-.0168839.5609703-.0066757.3662033.0274773.7121925.0741806 1.0414963.129097.3291855.0551682.6438675.1196938.9203644.2002563l.003685.0010643.0037193.0017014c.6333351.2898827.7483559.6613884.5123901.9969139-.2345695.3341599-.8617821.6649628-1.8717117.8380814-.9548378.1809044-2.07827.2940063-3.2198105.2861824-1.1356239-.0071487-2.271431-.1094437-3.2253075-.3004723-.9571571-.1880112-1.7805786-.4425011-2.3660736-.7425079-.5859299-.2997475-.9866753-.6298256-1.1929054-.9741554-.1959343-.3444557-.168045-.7023506.0927925-1.0461273.2807274-.341732.803009-.668663 1.5572205-.9388084.3830032-.1304131.8047562-.2620201 1.2736893-.3575554l.6916656-.1525345.7314758-.1336021c.9915733-.1678467 2.0435371-.3105545 3.1569633-.3895874 2.2081451-.1767769 4.6050949-.1422806 6.7646713.111145 1.0723228.1324997 2.0706749.3215294 2.940464.556839.8873215.233223 1.5701828.5258713 2.1581802.8239174 1.1923904.6010742 1.8210526 1.3113365 1.7874146 2.0192184-.0258636.7083931-.6955338 1.4109154-1.876564 2.0170059-1.1740723.6076698-2.8294907 1.1262245-4.7893028 1.4999428-1.96698.3691254-4.2292976.5937576-6.5364494.637825-1.1435928.0185471-2.3317032.0105896-3.4702682-.0688667-1.1245346-.075882-2.2255783-.1855812-3.2787018-.3309288-2.108223-.2905197-3.9860764-.7340393-5.4842529-1.2726288-1.4950066-.540844-2.6053505-1.1756477-3.306488-1.8486938-.6920624-.6744881-.9539719-1.3899422-.7680054-2.0966759.1948471-.706646.8753242-1.4022789 1.9982452-2.0260658l.0122452-.0068054.0178642-.0082932c2.4018478-1.1135902 6.0058556-1.9739609 10.1079025-2.4176941 4.093338-.445137 8.6987038-.4789124 12.823288-.0091896 4.0886497.4673843 7.6359825 1.3557472 9.9702797 2.4863472 2.3389664 1.129837 3.4833603 2.4828186 3.2646942 3.8180161-.0465012.1669121-.0702133.3348846-.138092.5008163l-.3089752.4928207c-.0585327.081543-.0892181.1653786-.171196.2450066l-.2396469.2393913c-.1710968.1583176-.2964706.321701-.5071564.4755936-.7839813.6245956-1.9022064 1.2033806-3.2205276 1.7340584-1.3900375.5135345-2.9845963.9712639-4.7620697 1.3530655-1.8087769.3653412-3.7438469.6711731-5.7933006.8836823-.507103.0568695-1.0367889.0921745-1.5542526.1390076l-.7805824.0660133-.7956009.0453873c-.5317078.0277748-1.0603981.0624428-1.5946274.0840492l-1.6118774.0431747c-.5363464.0209274-1.0769005.0102921-1.615757.0118675-.53965-.0048904-1.0770798.0081253-1.6186333-.0151443l-1.6217003-.0489998c-.2727928-.0031891-.5332413-.0303688-.7985077-.0481491l-.7927628-.0591698c-1.0737572-.0655022-2.0641594-.1975365-3.0897064-.301239l-1.4709549-.2068939c-.2425232-.036068-.4948921-.0662689-.7290916-.1071892l-.7001076-.1242485c-1.8953819-.3171043-3.5968628-.7334023-5.1409264-1.1921501l-1.1280441-.3547478-1.0251732-.3830376c-.3569527-.1241188-.6468506-.2637634-.9521713-.3998375-.2918968-.1387062-.6347809-.2675476-.879467-.4152756l-.7902107-.4323349c-.2509232-.1460686-.4507675-.3001328-.6779099-.4499016l-.330307-.2262039-.264185-.234417c-.1682949-.1569557-.3685551-.3109779-.5076065-.4706573-.57341-.6383781-.8614559-1.2976837-.9004993-1.9590302.0066185-.1648712.0484123-.3294411.0715733-.4940529l.0436287-.2467957.1086769-.2443237.2188435-.4883118c.0265083-.0818405.0843239-.1621475.1554737-.2417297l.1946278-.2397346c1.0190926-1.2770538 3.0740662-2.4828148 6.0429115-3.4299622l1.1190224-.3523216c.3819618-.1144218.8110352-.213192 1.2143936-.3203812l.6142006-.1576805.3075714-.0785637.3309555-.0690765 1.3240242-.2759323c.4298744-.0976181.9075394-.1711617 1.3757401-.2493439l1.4059258-.2334785 1.4736557-.1896667c.4918823-.0625305.976059-.1313095 1.4926643-.1727409 4.0396996-.4113617 8.3855171-.5274849 12.5808601-.3321609 2.0914993.1046371 4.1423225.27491 6.11903.506218 1.9640656.2416458 3.841011.5464172 5.5897293.9093742 1.7577972.3595543 3.3460464.7935905 4.7683945 1.2699509 1.4123611.4787827 2.6875305.9994202 3.6868286 1.5683365 1.0163651.5653877 1.809906 1.1660805 2.3975449 1.7841682.5680695.6174927 1.1572495 1.2360039 1.5063477 1.8696594-.4034805-.6304626-1.0441971-1.2424278-1.6651535-1.855072-.6383286-.6098785-1.4774094-1.1975517-2.512291-1.7509003-1.022995-.5561142-2.3144379-1.061779-3.7336426-1.5242729-1.429245-.4600677-3.0148697-.8765373-4.7599182-1.2182693-1.7360153-.3451347-3.5900879-.6318245-5.5215912-.8561172-1.9439316-.2139969-3.9546089-.3677216-5.9926414-.4571342-4.0797386-.164444-8.2718887-.0424919-12.1466408.3698921-.4960251.0413017-.9593124.1097412-1.4301338.1717186l-1.4102669.1872826-1.3417435.2296944c-.446743.0766487-.9030571.1484947-1.311306.2441139l-1.2594681.2692528-.3149071.0672073-.2914276.0765648-.5820427.1533394c-.3819313.1041718-.7898827.199791-1.1507301.3106804l-1.0561333.3409691c-2.8030014.915287-4.706337 2.0702629-5.6266899 3.2857666l-.1765709.2281189c-.065258.0755844-.1175308.1520233-.1389313.2304573l-.1895256.4665337-.0955105.2330971-.03125.2341614c-.0153294.1560211-.0501595.3121681-.0507221.4679337.0631981.6228104.3576965 1.2421341.9200401 1.8408661.61269.5923958 1.3751183 1.1740761 2.4469223 1.7043686.2303581.1391792.5582695.2597237.8341255.3901405.2893105.1278191.562355.2594261.9016075.3756332l.9694557.3597679 1.0671082.3324585c1.459362.4296989 3.0625458.8197937 4.8458519 1.1144829l.6577682.1160355c.2199249.0382843.45755.0658913.6853218.0994072l1.3804321.1925621c.9600372.094471 1.8988876.2196121 2.8826599.2769928l.7303734.053936c.2444496.0162468.4834175.0419388.7361565.0438538l1.4979858.0427895c.4960403.0216942 1.0077209.0078697 1.5114174.0120392.505127-.0022125 1.0120049.0080795 1.5143356-.0128479l1.5097771-.0420685c.5001411-.0208817.9944687-.0544853 1.4920158-.0808144l.7444267-.0430069.7290802-.0630379c.4830742-.0447044.9789505-.0775414 1.4518204-.1315193 1.9129639-.2009811 3.7116394-.4891205 5.390419-.8300858 1.646553-.3572159 3.1160049-.7833824 4.3963165-1.2586365 1.20784-.4922256 2.2328568-1.0262184 2.9485931-1.6028366.193634-.1419411.3037949-.2934532.4608994-.4395638l.2198715-.220974c.0757904-.0734596.100235-.1505775.1531906-.2256508l.2802048-.4530067c.059845-.152195.0771866-.3058357.1193466-.45858.1704254-1.2291565-.8542633-2.4748192-2.9931259-3.5174599-2.1326141-1.0425529-5.386795-1.8619194-9.1248932-2.2947655-3.717289-.4301643-7.9690742-.4085999-11.7382202-.0022964-3.7864571.4041328-7.1316872 1.1953011-9.3641014 2.2217331l.029995-.0150146c-1.0201721.5623665-1.6482925 1.1918945-1.8348045 1.8367805-.1774826.6448021.0525475 1.3018112.6800957 1.9218559.6362267.6185989 1.6477394 1.2021027 3.006012 1.6973915 1.367672.4909058 3.0437698.9040985 4.9593353 1.1747971.954792.1359444 1.9579659.2400703 2.9863663.3137016 1.0167007.0749893 2.0529823.0847321 3.1101913.0724373 2.1025391-.0324554 4.1671066-.2290955 5.9800911-.5596008 1.8048286-.3351402 3.3453026-.8057556 4.4460945-1.3601685 1.1080322-.553051 1.7452316-1.1952972 1.7940063-1.8431625.0547943-.647522-.4893875-1.2992554-1.5734634-1.8607292-.5417404-.2814178-1.1535873-.550457-1.9421883-.7616043-.7773132-.2151031-1.6732368-.3899269-2.6453743-.5145569-3.9294128-.4903107-8.7921944-.1171837-11.7764587.8011208-2.8971786.974453-1.9703293 2.7293549 1.6248817 3.4582901.8850479.1851997 1.9424896.2868195 3.0083923.3002625 1.0712929.0139503 2.1388817-.0858803 3.0655136-.2536011.9482536-.1555519 1.5637627-.456665 1.820076-.7773857.2541847-.3199959.1743469-.6792526-.4109573-.9627113l.0072594.0026779c-.2574272-.079071-.561512-.1454277-.8805046-.2021713-.319191-.0566597-.6572495-.1054459-1.0123177-.1351776-.173996-.0117836-.3717461-.0285873-.5229874.0005074-.1481209.0307541-.2228775.0869865-.2699051.1408806-.0933226.1102517-.1032981.2258217-.1116103.3398621z" fill="#d6b24e"/><path d="m88.411171 23.9847813c-2.3340378-1.2340374-5.2251205-.2426968-6.3107071 2.1640587l-9.1785049 20.3497143 5.6049271 2.9634056 11.6491622-19.0434399c1.3777694-2.2522774.5691147-5.1997223-1.7648773-6.4337387z" fill="#ededed"/><path d="m88.4136963 23.9876385c-.0430908-.0215435-.0753403-.043087-.1184235-.0538578 1.6464691 1.4202709 2.0769424 3.884594.8931885 5.8216381l-11.6969376 19.158411 1.032753.5451469 11.6541824-19.0362473c1.3774415-2.2599258.570366-5.2084464-1.7647628-6.4350909z" fill="#dbd8dd"/></svg>