<svg enable-background="new 0 0 110 110" height="512" viewBox="0 0 110 110" width="512" xmlns="http://www.w3.org/2000/svg"><path d="m33.179985 37.7260094c-10.7738685 10.7738647-10.7739162 28.2417946-.0000495 39.0156593s38.9922523 16.9298782 47.4689217 8.4532089c7.972496-7.9725037 2.3206558-36.6950493-8.4532089-47.4689178s-28.2417031-10.7739125-39.0156633.0000496z" fill="#dd584d"/><path d="m79.6338196 49.6473999c5.3989944 12.8744888 6.829483 29.7328873 1.015152 35.5472183-8.4752502 8.4752502-36.7007065 2.3225098-47.475605-8.4523849-3.7915897-3.7915878-6.2450218-8.4137115-7.367857-13.2743835 1.2920589 2.6302643 3.0379448 5.0990448 5.2298203 7.2909164 10.7749004 10.7749023 39.0003128 16.9275894 47.4755554 8.4523392 4.9452686-4.9452591 4.6377048-17.8813363 1.1229343-29.5637055z" fill="#cd5248"/><g fill="#4abba4"><path d="m33.2845459 34.8996048-1.0345459 1.8964577-1.8964081 1.0345001s4.6396141 12.4687729 17.0428391 14.1119308c-1.6431084-12.4032745-14.1118851-17.0428886-14.1118851-17.0428886z"/><path d="m41.7820854 27.9048176c-8.4825172 1.7939701-8.6203613 8.1535053-8.5586205 9.4474316-1.2937641-.0619049-7.6533813.0760231-9.4474316 8.5586205-1.9994984 9.4586601-.6400318 9.6892815.1708622 18.4420357 0 0 1.3380051-8.8169708 3.7682095-16.7788124 1.9328041-6.3339462 5.7337017-7.959034 6.5959339-9.1342697 1.1753159-.8623161 2.8004036-4.6632118 9.1344337-6.5960979 7.9617577-2.4301205 16.7787323-3.7681274 16.7787323-3.7681274-8.752838-.8108103-8.9833792-2.1703608-18.4421195-.1707804z"/><path d="m25.4310589 17.9238796-.0000935.0000935c-.3782997.0021114-.7335052.216774-.9065762.553297-8.0590191 15.6639729 9.041029 21.9962559 9.041029 21.9962559l4.4199905-6.3505898c-12.8195686-2.7617435-12.2280617-11.7105808-11.5486336-14.9888649.1302625-.6286849-.3636531-1.2138538-1.0057162-1.2101917z"/></g><g fill="#ededed"><path d="m62.67453 43.882c-.6209564.6209564-.2966309 1.9520683.7243996 2.9731026 1.0210304 1.0210304 2.3521461 1.345356 2.9731026.7243996.6209564-.6209602.2966919-1.9521332-.7243347-2.9731636-1.0210343-1.0210305-2.3522072-1.3452951-2.9731675-.7243386z"/><path d="m50.2231865 56.3333473c-.6209602.6209564-.2966309 1.9520683.7243996 2.9730988s2.3521423 1.3453598 2.9730988.7243996c.6209602-.6209564.2966957-1.9521294-.7243385-2.9731598-1.0210305-1.0210343-2.3522035-1.3452988-2.9731599-.7243386z"/><path d="m37.7718391 68.7846909c-.6209564.6209564-.2966309 1.9520721.7243996 2.9730988 1.0210304 1.0210342 2.3521423 1.3453598 2.9731026.7244034.6209564-.6209564.2966919-1.9521332-.7243385-2.9731598-1.0210305-1.0210343-2.3522072-1.3452989-2.9731637-.7243424z"/><path d="m39.9359627 57.628418c-.6209564.6209602-.2966309 1.9520721.7243996 2.9731026s2.3521423 1.345356 2.9731026.7243996c.6209564-.6209564.2966919-1.9521332-.7243385-2.9731636-1.0210344-1.0210305-2.3522073-1.3452951-2.9731637-.7243386z"/><path d="m51.2921524 44.5626526c-.6209564.6209564-.2966309 1.9520683.7243996 2.9731026 1.0210304 1.0210304 2.3521461 1.345356 2.9731026.7243996.6209564-.6209602.2966919-1.9521332-.7243385-2.9731636s-2.3522073-1.345295-2.9731637-.7243386z"/><path d="m56.2113228 33.0508652c-.6209564.6209564-.2966309 1.9520683.7243996 2.9730988 1.0210342 1.0210342 2.3521461 1.3453598 2.9731026.7243996.6209564-.6209564.2966919-1.9521294-.7243385-2.9731598s-2.3522035-1.3452989-2.9731637-.7243386z"/><path d="m45.1210022 34.7766647c-.6209564.6209564-.2966309 1.9520683.7243996 2.9730988 1.0210342 1.0210304 2.3521461 1.3453598 2.9731026.7243996.6209564-.6209564.2966919-1.9521294-.7243385-2.9731598-1.0210305-1.0210343-2.3522035-1.3452988-2.9731637-.7243386z"/><path d="m28.8161354 62.1580544c-.6209583.6209564-.2966328 1.9520683.7243996 2.9731026 1.0210304 1.0210266 2.3521423 1.3453522 2.9731026.7243958.6209564-.6209564.2966919-1.9521294-.7243404-2.9731598-1.0210305-1.0210305-2.3522054-1.3452989-2.9731618-.7243386z"/><path d="m30.980257 50.09375c-.6209564.6209602-.2966309 1.9520721.7243996 2.9731026 1.0210323 1.0210304 2.3521442 1.345356 2.9731007.7243996.6209602-.6209564.2966957-1.9521332-.7243385-2.9731636-1.0210305-1.0210305-2.3522034-1.345295-2.9731618-.7243386z"/><path d="m73.9734955 56.4512825c-.6209564.6209564-.2966309 1.9520683.7243958 2.9730988 1.0210342 1.0210304 2.3521423 1.3453598 2.9731064.7243996.6209564-.6209564.2966919-1.9521294-.7243423-2.9731598-1.0210344-1.0210343-2.3522035-1.3452988-2.9731599-.7243386z"/><path d="m73.663208 69.1824646c-.6209564.6209641-.2966309 1.9520721.7243958 2.9731064 1.0210342 1.0210266 2.3521423 1.3453522 2.9731064.7243958.6209564-.6209564.2966919-1.9521255-.7243423-2.9731598s-2.3522035-1.3452988-2.9731599-.7243424z"/><path d="m65.7471542 77.9453964c-.6209564.6209564-.2966309 1.9520721.7244034 2.9731064 1.0210266 1.0210266 2.3521423 1.3453522 2.9730988.7243958s.2966919-1.9521332-.7243423-2.9731598c-1.0210267-1.0210343-2.3522034-1.3452988-2.9731599-.7243424z"/><path d="m59.8989601 66.0091248c-.6209564.6209564-.2966309 1.9520645.7243996 2.9730988 1.0210342 1.0210342 2.3521461 1.3453598 2.9731026.7243958.6209602-.6209564.2966919-1.9521255-.7243385-2.9731598-1.0210305-1.0210267-2.3522035-1.3452989-2.9731637-.7243348z"/><path d="m55.0972214 78.205864c-.6209564.6209564-.2966309 1.9520721.7243996 2.9730988 1.0210304 1.0210342 2.3521423 1.3453598 2.9731026.7244034.6209564-.6209564.2966919-1.9521332-.7243385-2.9731598-1.0210344-1.0210343-2.3522073-1.3452989-2.9731637-.7243424z"/><path d="m49.7816315 68.7314529c-.6209602.6209564-.2966309 1.9520721.7243996 2.9730988 1.0210304 1.0210342 2.3521423 1.3453598 2.9730988.7244034.6209602-.6209564.2966957-1.9521332-.7243385-2.9731674-1.0210306-1.0210267-2.3522035-1.3452912-2.9731599-.7243348z"/><path d="m62.1937981 55.4642944c-.6209602.6209602-.2966309 1.9520721.7243996 2.9731026s2.3521423 1.345356 2.9730988.7243996.2966919-1.9521294-.7243347-2.9731636c-1.0210344-1.0210305-2.3522073-1.345295-2.9731637-.7243386z"/><path d="m68.8597565 34.3900642c-5.4701309-2.4223156-2.1316528 7.1522942.291893 12.8588333.9049454 2.130806.2959595 4.7015648-1.6460342 5.9616928-.1516876.0984268-.3097916.1893387-.4750748.271862-1.4392014.7181168-3.2992058 1.6298752-4.6344872.7985954-6.2369614-3.883358-9.132206-2.2566185-11.0486679-.0628166-1.9161301 2.1941338-2.3776207 5.9005165.6534042 11.9643021.151207.3024139.1952782.6361313.1815605.980545-.0791626 1.9879227-1.3668671 3.7588196-3.1698227 4.5999146-2.4376144 1.1371765-5.249115.9248123-7.6315956 2.1682587-2.9971046 1.5635147-4.6921043 5.9018402-2.4514999 8.5536652 7.1378212 8.4480972 31.8194618 9.0659256 33.0748482 9.303566 4.4931717.8502655 9.8788757-.1210938 12.905777-3.8776627 2.8079987-3.4848404 2.8165817-8.2273788 2.6785736-12.5162582-.0562973-1.7444458-.1125946-3.4888916-.1686401-5.2329254-.2103119-6.5244484-.4622345-13.2351189-3.1252899-19.009182-.0004883-.000824-.0009842-.0016518-.001152-.0021439.0013199.0013199.0029678.0023079.0042114.0037117-.0000001 0-3.936844-11.6708679-15.4380036-16.763958z"/></g><path d="m85.6431961 66.0231476c.0541458 1.744606.1082916 3.4892197.1690445 5.2404251.1352844 4.2869873.1285172 9.0270462-2.684433 12.5161819-3.022522 3.752861-8.4051743 4.7264404-12.9085007 3.8744431-1.2100677-.2228622-24.3355446-.8179932-32.308033-8.492836-.0879059 1.1834106.2099075 2.3601303 1.0209656 3.3200912 7.1407089 8.4524689 31.8145103 9.0675735 33.0724525 9.3112411 4.4963913.8450623 9.8790436-.1285248 12.9015656-3.8813782 2.8129501-3.4891357 2.8197174-8.2291946 2.684433-12.5161819-.0541458-1.744606-.1082916-3.489212-.1758118-5.2336578-.2095795-6.5251961-.4530792-13.2330589-3.1171188-19.0074539-.216507-.4735413-.4530716-.9263687-.7169647-1.3796082 1.6771774 5.0985413 1.8798981 10.7378121 2.0624008 16.2487336z" fill="#dbd8dd" opacity=".25"/><path d="m78.2279282 54.4419098c-3.2387848-2.3991661-6.0200348 5.9751358-10.0274506 6.6458702-4.0070877.6710701-12.0438766-6.1662178-12.3438339-1.4281425-.2999573 4.7380829 6.6575928 10.6161499 4.1984177 12.8349609-1.3001213 1.1733322-6.3109169 2.4618149-10.7449951 3.4159164-2.2093201.4752808-2.4308624 3.5389099-.3139038 4.3307343 8.0557709 3.0121231 20.7754974 6.9275894 26.4129562 4.1289215 8.5764465-4.2585144 6.8721237-11.6007919 7.1846237-12.4877853.3121719-.8873291-1.1270294-15.0413094-4.3658142-17.4404755z" fill="#fff" opacity=".25"/></svg>