<svg enable-background="new 0 0 110 110" height="512" viewBox="0 0 110 110" width="512" xmlns="http://www.w3.org/2000/svg"><path d="m74.4860001 97.1210785h-38.9720307c-3.3594093 0-6.0827465-2.7233429-6.0827465-6.0827484v-50.0423928c0-4.7936745 3.0708828-9.0482216 7.6206074-10.5579586l17.9481544-5.9557419 17.9481583 5.9557419c4.5497208 1.509737 7.6206055 5.7642841 7.6206055 10.5579586v50.0423927c0 3.3594056-2.7233353 6.0827485-6.0827484 6.0827485z" fill="#4da0dc"/><g fill="#439bd1"><path d="m80.7483521 40.8114815h-51.496708c-.9367943 0-1.6962242.7594299-1.6962242 1.6962242v3.3924522c0 .9367943.7594299 1.6962242 1.6962242 1.6962242h51.4967079c.9367981 0 1.696228-.7594299 1.696228-1.6962242v-3.3924522c.0000001-.9367943-.7594299-1.6962242-1.6962279-1.6962242z"/><path d="m80.7483521 52.9715576h-51.496708c-.9367943 0-1.6962242.7594299-1.6962242 1.6962242v3.3924484c0 .9367981.7594299 1.696228 1.6962242 1.696228h51.4967079c.9367981 0 1.696228-.7594299 1.696228-1.696228v-3.3924484c.0000001-.9367943-.7594299-1.6962242-1.6962279-1.6962242z"/><path d="m80.7483521 70.764183h-51.496708c-.9367943 0-1.6962242.7594299-1.6962242 1.6962204v3.3924561c0 .9367905.7594299 1.6962204 1.6962242 1.6962204h51.4967079c.9367981 0 1.696228-.7594299 1.696228-1.6962204v-3.3924561c.0000001-.9367904-.7594299-1.6962204-1.6962279-1.6962204z"/><path d="m80.7483521 82.9242554h-51.496708c-.9367943 0-1.6962242.7594299-1.6962242 1.696228v3.3924484c0 .9367981.7594299 1.696228 1.6962242 1.696228h51.4967079c.9367981 0 1.696228-.7594299 1.696228-1.696228v-3.3924484c.0000001-.9367981-.7594299-1.696228-1.6962279-1.696228z"/></g><path d="m48.946373 20.504608h12.107227v8.124587h-12.107227z" fill="#4da0dc"/><g fill="#4288b9"><path d="m61.3559418 12.8789234h-12.7119103c-.8918076 0-1.6147957.7229214-1.6147957 1.6146631v7.2012529c0 .8918705.7229881 1.6149216 1.6147957 1.6149216h12.7119102c.8918076 0 1.6147919-.7230511 1.6147919-1.6149216v-7.2012529c0-.8917417-.7229843-1.6146631-1.6147918-1.6146631z"/><path d="m29.431223 47.596382h51.137524v.530281h-51.137524z"/><path d="m29.431223 59.491318h51.137524v.530281h-51.137524z"/><path d="m29.431223 77.283943h51.137524v.530281h-51.137524z"/><path d="m29.431223 89.70916h51.137524v.530281h-51.137524z"/></g></svg>