<svg enable-background="new 0 0 110 110" height="512" viewBox="0 0 110 110" width="512" xmlns="http://www.w3.org/2000/svg"><path d="m8.7346678 32.0865173c.2434063 25.3498955 20.8581886 45.8269653 46.2652931 45.8269653 25.4071808 0 46.021965-20.4770699 46.2653732-45.8269653z" fill="#4abba4"/><path d="m14.6919718 32.0865173c.2436342 22.0250664 18.2265511 39.8703461 40.3080673 39.8703461 22.0819702 0 40.0649643-17.8452797 40.3085938-39.8703461z" fill="#ededed"/><path d="m17.227478 32.0865173c.243557 20.6269989 17.089035 37.3347626 37.7724838 37.3347626 20.6841354 0 37.5295334-16.7077637 37.7730942-37.3347626z" fill="#dd584d"/><g fill="#a64139"><path d="m75.2345505 47.374836c-.8427048 0-1.525856 2.2782555-1.525856 3.1210442 0 .8426247.6831512 1.5258102 1.525856 1.5258102s1.5258484-.6831856 1.5258484-1.5258102c0-.8427888-.6831437-3.1210442-1.5258484-3.1210442z"/><path d="m69.5502243 40.1946373c-.8427048 0-1.5258484 2.2782555-1.5258484 3.1210442 0 .8426285.6831436 1.5258102 1.5258484 1.5258102.8427124 0 1.525856-.6831818 1.525856-1.5258102 0-.8427887-.6831436-3.1210442-1.525856-3.1210442z"/><path d="m65.0695801 47.374836c-.8427048 0-1.5258522 2.2782555-1.5258522 3.1210442 0 .8426247.6831474 1.5258102 1.5258522 1.5258102s1.525856-.6831856 1.525856-1.5258102c0-.8427888-.6831512-3.1210442-1.525856-3.1210442z"/><path d="m70.0762939 55.8368835c-.8427048 0-1.5258484 2.2782555-1.5258484 3.1210442 0 .8426247.6831436 1.5258102 1.5258484 1.5258102s1.5258484-.6831856 1.5258484-1.5258102c0-.8427887-.6831436-3.1210442-1.5258484-3.1210442z"/><path d="m61.0736046 55.4842987c-.8427048 0-1.5258522 2.2782555-1.5258522 3.1210442 0 .8426247.6831474 1.5258102 1.5258522 1.5258102.8427086 0 1.5258522-.6831856 1.5258522-1.5258102 0-.8427887-.6831436-3.1210442-1.5258522-3.1210442z"/><path d="m51.5537987 55.4842987c-.8427048 0-1.5258484 2.2782555-1.5258484 3.1210442 0 .8426247.6831436 1.5258102 1.5258484 1.5258102.8427086 0 1.5258522-.6831856 1.5258522-1.5258102 0-.8427887-.6831436-3.1210442-1.5258522-3.1210442z"/><path d="m41.6108932 55.4842987c-.8427086 0-1.5258522 2.2782555-1.5258522 3.1210442 0 .8426247.6831436 1.5258102 1.5258522 1.5258102s1.5258522-.6831856 1.5258522-1.5258102c.0000001-.8427887-.6831436-3.1210442-1.5258522-3.1210442z"/><path d="m46.5137634 47.374836c-.8427086 0-1.5258522 2.2782555-1.5258522 3.1210442 0 .8426247.6831436 1.5258102 1.5258522 1.5258102.8427048 0 1.5258484-.6831856 1.5258484-1.5258102 0-.8427888-.6831436-3.1210442-1.5258484-3.1210442z"/><path d="m61.0736046 39.738636c-.8427048 0-1.5258522 2.2782516-1.5258522 3.1210403 0 .8426285.6831474 1.5258141 1.5258522 1.5258141.8427086 0 1.5258522-.6831856 1.5258522-1.5258141 0-.8427886-.6831436-3.1210403-1.5258522-3.1210403z"/><path d="m56.0873566 47.374836c-.8427048 0-1.5258484 2.2782555-1.5258484 3.1210442 0 .8426247.6831436 1.5258102 1.5258484 1.5258102.8427086 0 1.5258522-.6831856 1.5258522-1.5258102 0-.8427888-.6831436-3.1210442-1.5258522-3.1210442z"/><path d="m50.4030342 40.1946373c-.8427048 0-1.5258522 2.2782555-1.5258522 3.1210442 0 .8426285.6831474 1.5258102 1.5258522 1.5258102.8427086 0 1.5258522-.6831818 1.5258522-1.5258102 0-.8427887-.6831436-3.1210442-1.5258522-3.1210442z"/><path d="m41.9264145 39.738636c-.8427086 0-1.5258522 2.2782516-1.5258522 3.1210403 0 .8426285.6831436 1.5258141 1.5258522 1.5258141s1.5258522-.6831856 1.5258522-1.5258141c0-.8427886-.6831436-3.1210403-1.5258522-3.1210403z"/><path d="m36.9401665 47.374836c-.8427086 0-1.5258522 2.2782555-1.5258522 3.1210442 0 .8426247.6831436 1.5258102 1.5258522 1.5258102s1.5258522-.6831856 1.5258522-1.5258102c0-.8427888-.6831436-3.1210442-1.5258522-3.1210442z"/></g></svg>